<svg width="74" height="95" viewBox="0 0 74 95" fill="none" xmlns="http://www.w3.org/2000/svg">
<path d="M21.5771 0.959853C9.1857 1.76732 -2.85943 12.089 1.26018 25.5521C4.58562 36.4198 16.6815 41.5247 25.7792 46.6128C34.5053 51.4931 43.7309 57.5784 46.1774 67.9495C47.8609 75.0863 45.7979 83.4098 50.185 89.2853C57.892 99.6071 72.7752 91.7676 73.9108 80.6812C74.8531 71.4792 68.1739 63.4393 61.9257 56.6184C55.8689 50.0063 49.097 43.6236 43.7206 36.4376C38.742 29.7831 36.1395 21.5109 42.7412 14.9196C44.2242 13.439 45.9907 11.9146 45.4489 9.50604C43.6701 1.60546 27.6397 0.564951 21.5771 0.959853Z" fill="url(#paint0_linear)"/>
<path d="M56.1458 48.8171C55.1317 48.8171 54.3096 49.6392 54.3096 50.6533V60.9375C54.3096 61.9516 55.1317 62.7737 56.1458 62.7737C57.1599 62.7737 57.982 61.9516 57.982 60.9375V50.6533C57.9821 49.6392 57.1599 48.8171 56.1458 48.8171Z" fill="#2626BC"/>
<path d="M21.2981 48.8171C20.284 48.8171 19.4619 49.6392 19.4619 50.6533V60.9375C19.4619 61.9516 20.284 62.7737 21.2981 62.7737C22.3122 62.7737 23.1343 61.9516 23.1343 60.9375V50.6533C23.1343 49.6392 22.3122 48.8171 21.2981 48.8171Z" fill="#2626BC"/>
<path d="M21.3408 62.7716V48.8193C22.335 48.8423 23.1342 49.6537 23.1342 50.6535V60.9376C23.1342 61.9372 22.335 62.7487 21.3408 62.7716Z" fill="#2626BC"/>
<path d="M56.189 62.7716V48.8193C57.1831 48.8423 57.9823 49.6537 57.9823 50.6535V60.9376C57.9823 61.9372 57.1831 62.7487 56.189 62.7716Z" fill="#2626BC"/>
<path d="M44.0559 71.3317H33.388C32.3739 71.3317 31.5518 72.1538 31.5518 73.1679C31.5518 74.182 32.3739 75.0041 33.388 75.0041H44.0559C45.07 75.0041 45.8921 74.182 45.8921 73.1679C45.8921 72.1538 45.07 71.3317 44.0559 71.3317Z" fill="#2626BC"/>
<path d="M44.0558 36.5867H33.3543C32.3402 36.5867 31.5181 37.4088 31.5181 38.4229C31.5181 39.437 32.3402 40.2591 33.3543 40.2591H44.0558C45.0699 40.2591 45.892 39.437 45.892 38.4229C45.892 37.4088 45.0699 36.5867 44.0558 36.5867Z" fill="#2626BC"/>
<path d="M32.0319 60.9376H10.5641C9.81512 60.9376 9.20801 61.5449 9.20801 62.2939V84.042C9.20801 84.791 9.81512 85.3983 10.5641 85.3983H32.0319C32.7809 85.3983 33.388 84.791 33.388 84.042V62.2938C33.3881 61.5448 32.7809 60.9376 32.0319 60.9376Z" fill="#FFBD00"/>
<path d="M31.9983 26.1927H10.5306C9.78155 26.1927 9.17432 26.8 9.17432 27.549V49.2972C9.17432 50.0462 9.78155 50.6535 10.5306 50.6535H31.9983C32.7473 50.6535 33.3545 50.0462 33.3545 49.2972V27.549C33.3545 26.8 32.7473 26.1927 31.9983 26.1927Z" fill="#0082FF"/>
<path d="M66.88 60.9376H45.4124C44.6634 60.9376 44.0562 61.5449 44.0562 62.2939V84.042C44.0562 84.791 44.6634 85.3983 45.4124 85.3983H66.8801C67.6291 85.3983 68.2364 84.791 68.2364 84.042V62.2938C68.2362 61.5448 67.629 60.9376 66.88 60.9376Z" fill="#FF5CA8"/>
<path d="M66.88 26.1927H45.4124C44.6634 26.1927 44.0562 26.8 44.0562 27.549V49.2972C44.0562 50.0462 44.6634 50.6535 45.4124 50.6535H66.8801C67.6291 50.6535 68.2364 50.0462 68.2364 49.2972V27.549C68.2362 26.8 67.629 26.1927 66.88 26.1927Z" fill="#FF4B00"/>
<path d="M25.904 36.5867H16.6248C15.6107 36.5867 14.7886 37.4088 14.7886 38.4229C14.7886 39.437 15.6107 40.2591 16.6248 40.2591H25.904C26.9181 40.2591 27.7402 39.437 27.7402 38.4229C27.7402 37.4088 26.9181 36.5867 25.904 36.5867Z" fill="#F6EFEA"/>
<path d="M32.0319 85.3983H21.3408V60.9376H32.0319C32.7809 60.9376 33.388 61.5449 33.388 62.2939V84.042C33.3881 84.791 32.7809 85.3983 32.0319 85.3983V85.3983Z" fill="#FF8B00"/>
<path d="M31.9982 50.6534H21.3071V26.1928H31.9982C32.7472 26.1928 33.3543 26.8 33.3543 27.549V49.2973C33.3544 50.0463 32.7472 50.6534 31.9982 50.6534Z" fill="#3A4DE2"/>
<path d="M66.88 85.3983H56.189V60.9376H66.88C67.629 60.9376 68.2361 61.5449 68.2361 62.2939V84.042C68.2363 84.791 67.629 85.3983 66.88 85.3983V85.3983Z" fill="#FF1786"/>
<path d="M66.88 50.6534H56.189V26.1928H66.88C67.629 26.1928 68.2361 26.8 68.2361 27.549V49.2973C68.2363 50.0463 67.629 50.6534 66.88 50.6534Z" fill="#F80000"/>
<path d="M25.9039 40.2593H21.3071V36.5869H25.9039C26.918 36.5869 27.7401 37.409 27.7401 38.4231C27.7401 39.4372 26.918 40.2593 25.9039 40.2593Z" fill="#E0D2CD"/>
<path d="M58.7431 38.4231L60.7253 40.4054C61.4426 41.1225 61.4426 42.2851 60.7253 43.0022C60.0084 43.7193 58.8458 43.7193 58.1285 43.0022L56.1463 41.0199L54.164 43.0022C53.447 43.7191 52.2843 43.7191 51.5672 43.0022C50.85 42.2851 50.85 41.1225 51.5672 40.4054L53.5495 38.4231L51.5672 36.4408C50.85 35.7238 50.85 34.5611 51.5672 33.844C51.9257 33.4854 52.3957 33.3062 52.8656 33.3062C53.3354 33.3062 53.8054 33.4855 54.1639 33.844L56.1462 35.8263L58.1284 33.844C58.4869 33.4855 58.9569 33.3062 59.4268 33.3062C59.8966 33.3062 60.3666 33.4855 60.7251 33.844C61.4423 34.561 61.4423 35.7237 60.7251 36.4408L58.7431 38.4231Z" fill="#F6EFEA"/>
<path d="M60.7252 43.0022C60.0082 43.7193 58.8456 43.7193 58.1284 43.0022L56.189 41.0627V35.7836L58.1284 33.8441C58.4869 33.4857 58.9569 33.3063 59.4268 33.3063C59.8966 33.3063 60.3666 33.4857 60.7251 33.8441C61.4423 34.5611 61.4423 35.7238 60.7251 36.4409L58.7428 38.4231L60.7251 40.4054C61.4423 41.1223 61.4423 42.2851 60.7252 43.0022Z" fill="#E0D2CD"/>
<path d="M25.9371 75.0288H23.1338V77.8322C23.1338 78.8463 22.3117 79.6684 21.2976 79.6684C20.2835 79.6684 19.4614 78.8463 19.4614 77.8322V75.0289H16.658C15.6439 75.0289 14.8218 74.2068 14.8218 73.1927C14.8218 72.1786 15.6439 71.3565 16.658 71.3565H19.4613V68.5531C19.4613 67.539 20.2834 66.7169 21.2975 66.7169C22.3116 66.7169 23.1337 67.539 23.1337 68.5531V71.3565H25.937C26.9511 71.3565 27.7732 72.1786 27.7732 73.1927C27.7733 74.2067 26.9512 75.0288 25.9371 75.0288Z" fill="#F6EFEA"/>
<path d="M25.9375 75.0288H23.1342V77.8322C23.1342 78.8318 22.335 79.6432 21.3408 79.6663V66.719C22.335 66.7419 23.1342 67.5534 23.1342 68.5531V71.3565H25.9375C26.9516 71.3565 27.7737 72.1786 27.7737 73.1927C27.7737 74.2067 26.9516 75.0288 25.9375 75.0288Z" fill="#E0D2CD"/>
<path d="M60.7255 77.7469C60.0085 78.4641 58.8458 78.4641 58.1287 77.7469L51.5672 71.1855C50.85 70.4684 50.85 69.3058 51.5672 68.5887C51.9257 68.2301 52.3957 68.0508 52.8656 68.0508C53.3355 68.0508 53.8054 68.2301 54.1639 68.5887L60.7253 75.1501C61.4426 75.8673 61.4426 77.0298 60.7255 77.7469Z" fill="#F6EFEA"/>
<path d="M52.8655 74.5607C53.9082 74.5607 54.7534 75.4059 54.7534 76.4486C54.7534 77.4913 53.9082 78.3365 52.8655 78.3365C51.8228 78.3365 50.9775 77.4913 50.9775 76.4486C50.9775 75.4059 51.8228 74.5607 52.8655 74.5607Z" fill="#F6EFEA"/>
<path d="M59.4265 67.9992C60.4692 67.9992 61.3145 68.8445 61.3145 69.8872C61.3145 70.9299 60.4692 71.7751 59.4265 71.7751C58.3838 71.7751 57.5386 70.9299 57.5386 69.8872C57.5386 68.8445 58.3838 67.9992 59.4265 67.9992Z" fill="#F6EFEA"/>
<path d="M59.4265 68.051C60.4692 68.051 61.3145 68.8962 61.3145 69.9389C61.3145 70.9816 60.4692 71.8268 59.4265 71.8268C58.3838 71.8268 57.5386 70.9816 57.5386 69.9389C57.5386 68.8962 58.3838 68.051 59.4265 68.051Z" fill="#E0D2CD"/>
<path d="M58.1284 77.7987L56.189 75.8592V70.6656L60.7252 75.2019C61.4424 75.919 61.4424 77.0816 60.7252 77.7987C60.0081 78.5158 58.8454 78.5158 58.1284 77.7987Z" fill="#E0D2CD"/>
<defs>
<linearGradient id="paint0_linear" x1="0.436511" y1="47.4978" x2="74.0002" y2="47.4978" gradientUnits="userSpaceOnUse">
<stop offset="0.0485" stop-color="#D2DEFF"/>
<stop offset="0.9993" stop-color="#DCFDEE"/>
</linearGradient>
</defs>
</svg>
