<svg width="88" height="79" viewBox="0 0 88 79" fill="none" xmlns="http://www.w3.org/2000/svg">
<path d="M81.4289 14.9155C60.8833 -8.34396 40.968 21.5894 18.5178 18.7386C8.5367 17.471 -1.0051 21.4978 0.0852649 34.6722C1.41421 50.7276 16.7931 44.8995 27.0315 48.2617C44.6488 54.047 40.534 89.6372 67.671 74.8843C84.9888 65.4693 95.5699 30.9243 81.4289 14.9155Z" fill="url(#paint0_linear)"/>
<path d="M75.5154 16.7135C75.6605 16.3989 75.836 16.0998 76.0396 15.8192C77.7565 13.4373 81.0424 12.8248 83.5026 14.4283C85.9622 16.0312 86.7293 19.2841 85.244 21.8171C83.7587 24.3501 80.5457 25.2694 77.9452 23.9053C75.3453 22.5412 74.2755 19.3748 75.5154 16.7135Z" fill="#3340D8"/>
<path d="M75.4602 56.2369C74.358 53.7121 75.2932 50.761 77.6497 49.3325C80.0056 47.9045 83.0548 48.4398 84.7833 50.5856C86.5117 52.7314 86.3854 55.8244 84.4887 57.8224C82.5914 59.8209 79.5087 60.1065 77.2767 58.4917C76.4804 57.9158 75.8536 57.1374 75.4602 56.2369Z" fill="#3340D8"/>
<path d="M80 25.2219V48.7166C78.1364 48.7208 76.4003 49.6571 75.3818 51.2079C74.3634 52.7594 74.2004 54.7156 74.9469 56.4123L56.2179 64.9773L56.1608 65C55.3168 62.9051 53.2709 61.5348 51 61.5444V38.4687C52.8829 38.4765 54.64 37.5318 55.6639 35.9619C56.6877 34.3919 56.8375 32.4118 56.0609 30.7073L56.0868 30.6947L74.9782 22C75.8733 23.958 77.8356 25.2171 80 25.2219Z" fill="#41FFC6"/>
<path d="M56.3963 8.02929L75 16.6785C74.3267 18.1335 74.3179 19.8133 74.9757 21.2754L56.3963 29.9689L56.3709 29.9815C55.487 28.0154 53.5453 26.7541 51.4083 26.7583C49.2713 26.7618 47.3344 28.0303 46.4576 30L28.0556 21.3884L28.0243 21.3735C28.7437 19.8563 28.7348 18.0899 28 16.5805L28.0603 16.5512L46.4564 8C47.2492 9.79214 48.9288 11.02 50.861 11.2214C52.7933 11.4229 54.6853 10.5669 55.8236 8.97617C56.0378 8.67668 56.2224 8.35628 56.3738 8.01973L56.3963 8.02929Z" fill="#02FFB3"/>
<path d="M46.2693 64.5094C47.1372 62.3082 49.3071 60.9019 51.6703 61.0091C54.0336 61.1163 56.0674 62.7141 56.7316 64.9846C57.3959 67.2551 56.5437 69.6966 54.6105 71.0607C52.6779 72.4248 50.0918 72.4097 48.1755 71.0233C46.1158 69.5496 45.3286 66.86 46.2693 64.5094Z" fill="#3340D8"/>
<path d="M46.3669 7.7954C45.3268 5.47131 46.0068 2.73709 48.0147 1.17064C50.022 -0.395216 52.8393 -0.389796 54.8406 1.18449C56.8425 2.75877 57.5116 5.4954 56.4625 7.81528C56.3083 8.15434 56.1204 8.47715 55.9024 8.77888C54.7436 10.3815 52.8176 11.2439 50.8507 11.0409C48.8837 10.838 47.1739 9.60095 46.3669 7.7954Z" fill="#3340D8"/>
<path d="M46.3682 29.9601C47.3269 27.8227 49.5264 26.52 51.8613 26.7073C54.1956 26.8946 56.1596 28.5309 56.7654 30.793C57.3713 33.0556 56.4872 35.4544 54.5582 36.783C52.6292 38.1115 50.0732 38.082 48.1755 36.7095C46.0454 35.1749 45.2901 32.3534 46.3682 29.9601Z" fill="#3340D8"/>
<path d="M51 38.3991V61.515C48.7393 61.5258 46.7126 62.9056 45.8824 65L27.1284 56.4075L27.0959 56.3938C27.8551 54.6857 27.6909 52.7105 26.6616 51.1492C25.6317 49.5872 23.8763 48.653 22 48.6667V25.1233C24.2174 25.2233 26.2802 23.9937 27.2379 22L27.2698 22.015L45.9811 30.6428C45.2159 32.3412 45.3651 34.3104 46.3781 35.8754C47.3912 37.4409 49.1297 38.3902 51 38.3991Z" fill="#97FFD2"/>
<path d="M22.25 24.5297C19.7345 24.4148 17.6178 22.6064 17.1125 20.1395C16.6067 17.6727 17.8417 15.1777 20.1093 14.0829C22.3769 12.988 25.0989 13.5735 26.7158 15.504C28.3334 17.4339 28.4327 20.2162 26.9577 22.2568C25.8736 23.7611 24.1028 24.6159 22.25 24.5297Z" fill="#3340D8"/>
<path d="M25.722 50.0426C27.8256 51.5642 28.5793 54.3488 27.5305 56.7234C27.3755 57.076 27.1833 57.4106 26.9576 57.7224C25.1773 60.1838 21.7393 60.7363 19.2777 58.9567C16.8168 57.1771 16.2636 53.7395 18.0428 51.2781C19.8225 48.8167 23.2604 48.2636 25.722 50.0426Z" fill="#3340D8"/>
<defs>
<linearGradient id="paint0_linear" x1="44" y1="6.00004" x2="44" y2="78.4371" gradientUnits="userSpaceOnUse">
<stop stop-color="#C6FFD2"/>
<stop offset="1" stop-color="#DCFDEE"/>
</linearGradient>
</defs>
</svg>
