<svg width="88" height="73" viewBox="0 0 88 73" fill="none" xmlns="http://www.w3.org/2000/svg">
<path d="M81.4289 8.91554C60.8833 -14.344 40.968 15.5894 18.5178 12.7386C8.5367 11.471 -1.0051 15.4978 0.0852649 28.6722C1.41421 44.7276 16.7931 38.8995 27.0315 42.2617C44.6488 48.047 40.534 83.6372 67.671 68.8843C84.9888 59.4693 95.5699 24.9243 81.4289 8.91554Z" fill="url(#paint0_linear)"/>
<path d="M60.5002 65.4883H43.5002C42.2669 65.4883 41.3338 64.3814 41.5346 63.168L43.6596 50.418C43.8203 49.4578 44.6517 48.7539 45.6252 48.7539H58.3752C59.3487 48.7539 60.1802 49.4578 60.3409 50.418L62.4659 63.168C62.6664 64.3796 61.7353 65.4883 60.5002 65.4883Z" fill="#8BB9FF"/>
<path d="M60.5 65.4883H52V48.7539H58.375C59.3485 48.7539 60.1799 49.4578 60.3406 50.418L62.4656 63.168C62.6662 64.3796 61.735 65.4883 60.5 65.4883Z" fill="#6E75E2"/>
<path d="M66.7422 63.4961C66.7422 64.5958 65.8497 65.4883 64.75 65.4883H39.25C38.1503 65.4883 37.2578 64.5958 37.2578 63.4961C37.2578 62.3964 38.1503 61.5039 39.25 61.5039H64.75C65.8497 61.5039 66.7422 62.3964 66.7422 63.4961Z" fill="#6E75E2"/>
<path d="M66.7422 63.4961C66.7422 64.5958 65.8497 65.4883 64.75 65.4883H52V61.5039H64.75C65.8497 61.5039 66.7422 62.3964 66.7422 63.4961Z" fill="#3340D8"/>
<path d="M84.0078 8.11328V46.7617C84.0078 48.9624 82.2241 50.7461 80.0234 50.7461H23.9766C21.7759 50.7461 19.9922 48.9624 19.9922 46.7617V8.11328C19.9922 5.91258 21.7759 4.12891 23.9766 4.12891H80.0234C82.2241 4.12891 84.0078 5.91258 84.0078 8.11328Z" fill="#F6F9F9"/>
<path d="M84.0078 8.11328V46.7617C84.0078 48.9624 82.2241 50.7461 80.0234 50.7461H52V4.12891H80.0234C82.2241 4.12891 84.0078 5.91258 84.0078 8.11328Z" fill="#E2DFF4"/>
<path d="M80.0234 2.13672H23.9766C20.6815 2.13672 18 4.8182 18 8.11328V46.7617C18 50.0568 20.6815 52.7383 23.9766 52.7383H80.0234C83.3185 52.7383 86 50.0568 86 46.7617V8.11328C86 4.8182 83.3185 2.13672 80.0234 2.13672ZM82.0156 46.7617C82.0156 47.8601 81.1218 48.7539 80.0234 48.7539H23.9766C22.8782 48.7539 21.9844 47.8601 21.9844 46.7617V8.11328C21.9844 7.01492 22.8782 6.12109 23.9766 6.12109H80.0234C81.1218 6.12109 82.0156 7.01492 82.0156 8.11328V46.7617Z" fill="#6E75E2"/>
<path d="M86 8.11328V46.7617C86 50.0568 83.3185 52.7383 80.0234 52.7383H52V48.7539H80.0234C81.1218 48.7539 82.0156 47.8601 82.0156 46.7617V8.11328C82.0156 7.01492 81.1218 6.12109 80.0234 6.12109H52V2.13672H80.0234C83.3185 2.13672 86 4.8182 86 8.11328Z" fill="#3340D8"/>
<path d="M53.9922 4.12891V8.37891C53.9922 9.47859 53.0997 10.3711 52 10.3711C50.9003 10.3711 50.0078 9.47859 50.0078 8.37891V4.12891C50.0078 3.02922 50.9003 2.13672 52 2.13672C53.0997 2.13672 53.9922 3.02922 53.9922 4.12891Z" fill="#6E75E2"/>
<path d="M53.9922 4.12891V8.37891C53.9922 9.47859 53.0997 10.3711 52 10.3711V2.13672C53.0997 2.13672 53.9922 3.02922 53.9922 4.12891Z" fill="#3340D8"/>
<path d="M37.125 38.1289C36.0248 38.1289 35.1328 37.2369 35.1328 36.1367V23.2539C35.1328 22.1537 36.0248 21.2617 37.125 21.2617C38.2252 21.2617 39.1172 22.1537 39.1172 23.2539V36.1367C39.1172 37.2369 38.2252 38.1289 37.125 38.1289Z" fill="#FFB454"/>
<path d="M45.625 38.1289C44.5248 38.1289 43.6328 37.2369 43.6328 36.1367V29.6289C43.6328 28.5287 44.5248 27.6367 45.625 27.6367C46.7252 27.6367 47.6172 28.5287 47.6172 29.6289V36.1367C47.6172 37.2369 46.7252 38.1289 45.625 38.1289Z" fill="#E27A4E"/>
<path d="M65.8125 39.0586C72.194 39.0586 77.3672 33.8854 77.3672 27.5039C77.3672 21.1224 72.194 15.9492 65.8125 15.9492C59.431 15.9492 54.2578 21.1224 54.2578 27.5039C54.2578 33.8854 59.431 39.0586 65.8125 39.0586Z" fill="#FFB454"/>
<path d="M77.3674 27.5039C77.3674 33.8749 72.1837 39.0586 65.8127 39.0586C62.7262 39.0586 59.8255 37.8566 57.6421 35.6745L65.8127 27.5039V25.5117H75.3752C76.4749 25.5117 77.3674 26.4042 77.3674 27.5039Z" fill="#00CB75"/>
<path d="M77.3672 27.5039H65.8125V15.9492C72.1835 15.9492 77.3672 21.1329 77.3672 27.5039Z" fill="#6E75E2"/>
<path d="M28.625 38.1289C27.5248 38.1289 26.6328 37.2369 26.6328 36.1367V16.8789C26.6328 15.7787 27.5248 14.8867 28.625 14.8867C29.7252 14.8867 30.6172 15.7787 30.6172 16.8789V36.1367C30.6172 37.2369 29.7252 38.1289 28.625 38.1289Z" fill="#ACE233"/>
<path d="M26.6328 36.1367V38.1289C26.6328 39.2291 27.5248 40.1211 28.625 40.1211H45.625C46.7252 40.1211 47.6172 39.2291 47.6172 38.1289V36.1367C44.9673 36.1367 29.2721 36.1367 26.6328 36.1367Z" fill="#E2DFF4"/>
<defs>
<linearGradient id="paint0_linear" x1="44" y1="4.07899e-05" x2="44" y2="72.4371" gradientUnits="userSpaceOnUse">
<stop stop-color="#FFDBED"/>
<stop offset="1" stop-color="#DCFDEE"/>
</linearGradient>
</defs>
</svg>
