<svg width="88" height="77" viewBox="0 0 88 77" fill="none" xmlns="http://www.w3.org/2000/svg">
<path d="M81.4289 12.642C60.8833 -10.6175 40.968 19.3159 18.5178 16.4651C8.5367 15.1975 -1.0051 19.2243 0.0852649 32.3987C1.41421 48.4541 16.7931 42.626 27.0315 45.9882C44.6488 51.7735 40.534 87.3637 67.671 72.6108C84.9888 63.1958 95.5699 28.6508 81.4289 12.642Z" fill="url(#paint0_linear)"/>
<path d="M76.2643 47.8228L72.6998 62.3728C71.7187 66.3829 68.15 69.1826 64.0218 69.1826H61.9625C57.8139 69.1826 54.24 66.3652 53.2735 62.3295L49.7979 47.8228H76.2643Z" fill="#A260E5"/>
<path d="M76.2643 47.8228L72.6998 62.3728C71.7187 66.3829 68.15 69.1826 64.0218 69.1826H61.9625C57.8139 69.1826 54.24 66.3652 53.2735 62.3295L49.7979 47.8228H76.2643Z" fill="#2682FF"/>
<path d="M76.2648 47.8228L72.7003 62.3728C71.7192 66.3829 68.1506 69.1826 64.0224 69.1826H63.1719V47.8228H76.2648Z" fill="#046EFF"/>
<path d="M38.047 47.8228L34.5713 62.3295C33.6049 66.3652 30.0315 69.1826 25.8824 69.1826H23.823C19.6948 69.1826 16.1262 66.3829 15.1451 62.3728L11.5806 47.8228H38.047Z" fill="#2682FF"/>
<path d="M38.0465 47.8228L34.5708 62.3295C33.6044 66.3652 30.031 69.1826 25.8819 69.1826H24.7974V47.8228H38.0465Z" fill="#046EFF"/>
<path d="M37.126 52.3162H36.9279L36.7836 52.4518C33.8804 55.1803 30.1224 56.6721 26.1034 56.6721C17.49 56.6721 10.4814 49.6636 10.4814 41.0496C10.4814 32.4362 17.49 25.4277 26.1034 25.4277H61.741C70.3544 25.4277 77.3629 32.4362 77.3629 41.0502C77.3629 49.6635 70.3544 56.6721 61.741 56.6721C57.7224 56.6721 53.9639 55.1803 51.0608 52.4518L50.9165 52.3162H50.7184H37.126Z" fill="#02FFB3" stroke="#2626BC"/>
<path d="M75.7092 48.041L75.7091 48.0413C73.1386 53.156 67.8421 56.6716 61.7417 56.6716C57.8779 56.6716 54.2555 55.293 51.402 52.7608L51.3998 52.7588C51.2853 52.6585 51.1727 52.5564 51.0613 52.4516L50.9169 52.3156H50.7186H44.4224V25.4277H61.7417C73.4138 25.4277 80.8476 37.8336 75.7092 48.041Z" fill="#02FFB3" stroke="#2626BC"/>
<path d="M67.0623 46.2989C67.0623 47.7857 65.8566 48.9915 64.3698 48.9915C62.883 48.9915 61.6777 47.7857 61.6777 46.2989C61.6777 44.8121 62.883 43.6069 64.3698 43.6069C65.8566 43.6069 67.0623 44.8121 67.0623 46.2989Z" fill="#DCFDEE"/>
<path d="M51.9869 20.1188H36.0452C33.8186 20.1188 32.0068 21.93 32.0068 24.1571V31.6502C32.0068 33.5058 33.5166 35.0151 35.3723 35.0151H52.6603C54.5154 35.0151 56.0252 33.5058 56.0252 31.6502V24.1571C56.0252 21.93 54.2134 20.1188 51.9869 20.1188Z" fill="#AED0FF"/>
<path d="M56.0248 24.156V31.6497C56.0248 33.5063 54.5145 35.0151 52.6599 35.0151H43.9224V20.1182H51.987C54.213 20.1182 56.0248 21.93 56.0248 24.156Z" fill="#8CBCFF"/>
<path d="M45.1093 17.0877C44.4536 16.4315 43.3915 16.4315 42.7354 17.0877C41.9471 17.876 40.6687 17.8765 39.8798 17.0877C39.0915 16.2993 39.0915 15.021 39.8798 14.2321C42.1142 11.9982 45.7304 11.9977 47.9648 14.2321C48.7537 15.021 48.7537 16.2993 47.9648 17.0877C47.1765 17.8765 45.8981 17.8765 45.1093 17.0877Z" fill="#2626BC"/>
<path d="M48.1372 12.3582C45.813 10.0345 42.0317 10.0345 39.7079 12.3582C38.9191 13.1465 37.6407 13.1465 36.8524 12.3582C36.0635 11.5699 36.0635 10.2915 36.8524 9.50264C38.7409 7.61409 41.2517 6.57394 43.9223 6.57394C46.593 6.57394 49.1042 7.61409 50.9923 9.50264C51.7811 10.2915 51.7811 11.5699 50.9923 12.3582C50.2045 13.1465 48.9256 13.1465 48.1372 12.3582Z" fill="#2626BC"/>
<path d="M53.6655 8.77482C53.1489 8.77482 52.6322 8.57786 52.2383 8.18343C50.0169 5.96209 47.0637 4.7391 43.9224 4.7391C40.7816 4.7391 37.8283 5.96209 35.607 8.18343C34.8186 8.97177 33.5403 8.97177 32.7514 8.18343C31.9631 7.39458 31.9631 6.11621 32.7514 5.32787C38.9113 -0.832009 48.934 -0.832009 55.0938 5.32787C55.8822 6.11621 55.8822 7.39458 55.0938 8.18343C54.6994 8.57734 54.1827 8.77482 53.6655 8.77482Z" fill="#2626BC"/>
<path d="M46.5376 17.679C45.1856 17.679 45.1177 16.5966 43.9224 16.5966V12.5583C45.4489 12.5583 46.885 13.1523 47.9649 14.2331C49.2417 15.5079 48.3196 17.679 46.5376 17.679Z" fill="#2626BC"/>
<path d="M50.9918 12.3582C50.2055 13.1471 48.9272 13.1486 48.1367 12.3582C46.9754 11.1963 45.4489 10.6159 43.9224 10.6159V6.57394C46.593 6.57394 49.1032 7.61461 50.9918 9.50317C51.7806 10.2915 51.7806 11.5693 50.9918 12.3582Z" fill="#2626BC"/>
<path d="M55.0933 8.18351C54.6989 8.57793 54.1822 8.77489 53.6655 8.77489C53.1483 8.77489 52.6327 8.57793 52.2383 8.18351C50.0159 5.96269 47.0642 4.73917 43.9224 4.73917V0.707642C47.9685 0.707642 52.0136 2.24774 55.0933 5.32742C55.8822 6.11628 55.8822 7.39517 55.0933 8.18351Z" fill="#2626BC"/>
<path d="M62.5574 41.0496C62.5574 42.5364 61.3522 43.7422 59.8654 43.7422C58.3786 43.7422 57.1733 42.5364 57.1733 41.0496C57.1733 39.5628 58.3786 38.3576 59.8654 38.3576C61.3522 38.3576 62.5574 39.5628 62.5574 41.0496Z" fill="#DCFDEE"/>
<path d="M67.0623 35.8009C67.0623 37.2877 65.8566 38.4929 64.3698 38.4929C62.883 38.4929 61.6777 37.2877 61.6777 35.8009C61.6777 34.314 62.883 33.1083 64.3698 33.1083C65.8566 33.1083 67.0623 34.314 67.0623 35.8009Z" fill="#DCFDEE"/>
<path d="M23.4752 38.4934C24.961 38.4934 26.1673 37.2871 26.1673 35.8014C26.1673 34.314 24.961 33.1093 23.4752 33.1093C21.9879 33.1093 20.7832 34.314 20.7832 35.8014C20.7832 37.2871 21.9879 38.4934 23.4752 38.4934Z" fill="#DCFDEE"/>
<path d="M23.4752 43.6069C21.9879 43.6069 20.7832 44.8121 20.7832 46.2994C20.7832 47.7852 21.9879 48.9915 23.4752 48.9915C24.961 48.9915 26.1673 47.7852 26.1673 46.2994C26.1673 44.8121 24.961 43.6069 23.4752 43.6069Z" fill="#DCFDEE"/>
<path d="M31.4148 41.0496C31.4148 42.537 30.2101 43.7417 28.7228 43.7417C27.237 43.7417 26.0308 42.537 26.0308 41.0496C26.0308 39.5633 27.237 38.3576 28.7228 38.3576C30.2101 38.3576 31.4148 39.5633 31.4148 41.0496Z" fill="#DCFDEE"/>
<path d="M20.9178 41.0496C20.9178 42.5364 19.7126 43.7422 18.2258 43.7422C16.739 43.7422 15.5332 42.5364 15.5332 41.0496C15.5332 39.5628 16.739 38.3576 18.2258 38.3576C19.7126 38.3576 20.9178 39.5628 20.9178 41.0496Z" fill="#DCFDEE"/>
<path d="M41.114 40.6458H39.379C38.271 40.6458 37.3599 41.5443 37.3599 42.6649C37.3599 43.7861 38.2699 44.6841 39.379 44.6841H41.114C42.2288 44.6841 43.1332 43.7808 43.1332 42.6649C43.1332 41.5506 42.2288 40.6458 41.114 40.6458Z" fill="#DCFDEE"/>
<path d="M48.465 40.6463H46.7306C45.6152 40.6463 44.7114 41.5501 44.7114 42.6655C44.7114 43.7803 45.6152 44.6847 46.7306 44.6847H48.465C49.5804 44.6847 50.4842 43.7803 50.4842 42.6655C50.4842 41.5501 49.5804 40.6463 48.465 40.6463Z" fill="#DCFDEE"/>
<path d="M72.3119 41.0496C72.3119 42.537 71.1056 43.7417 69.6198 43.7417C68.132 43.7417 66.9272 42.537 66.9272 41.0496C66.9272 39.5633 68.132 38.3576 69.6198 38.3576C71.1056 38.3576 72.3119 39.5633 72.3119 41.0496Z" fill="#DCFDEE"/>
<defs>
<linearGradient id="paint0_linear" x1="44" y1="3.72654" x2="44" y2="76.1636" gradientUnits="userSpaceOnUse">
<stop stop-color="#FFDBED"/>
<stop offset="1" stop-color="#DCFDEE"/>
</linearGradient>
</defs>
</svg>
