<svg width="88" height="71" viewBox="0 0 88 71" fill="none" xmlns="http://www.w3.org/2000/svg">
<path d="M86.2593 18.107C82.4167 8.32945 70.5798 2.46595 60.5544 6.34619C49.1106 10.7752 52.9049 28.9774 42.5105 32.6581C36.8955 34.6464 28.595 27.2193 22.9221 26.0805C12.4685 23.9819 3.00512 31.3579 0.674848 41.5722C-1.70252 51.993 2.11052 65.9114 13.5598 68.7397C27.198 72.1088 34.3021 59.8488 45.7431 56.3285C57.4839 52.7159 70.5382 61.2479 80.2579 50.867C87.4388 43.1978 90.0642 27.7891 86.2593 18.107Z" fill="url(#paint0_linear)"/>
<path opacity="0.1" d="M81.9583 22.4056C81.9583 15.6169 76.455 10.1137 69.6663 10.1137C64.407 10.1137 59.9212 13.418 58.1662 18.0629H13.7183C11.8197 18.0629 10.2808 19.6018 10.2808 21.5004V59.5551C10.2808 61.4536 11.8197 62.9926 13.7183 62.9926H74.2825C76.1811 62.9926 77.72 61.4536 77.72 59.5551V31.6874C80.315 29.4336 81.9583 26.1126 81.9583 22.4056Z" fill="#2626BC"/>
<path d="M74.2827 58.6958H13.7183C11.8197 58.6958 10.2808 57.1568 10.2808 55.2583V17.2035C10.2808 15.305 11.8197 13.766 13.7183 13.766H74.2825C76.1811 13.766 77.72 15.305 77.72 17.2035V55.2583C77.7202 57.1568 76.1811 58.6958 74.2827 58.6958Z" fill="#9FB0FE"/>
<path d="M77.7205 17.2044V31.7278C75.5635 33.5995 72.7482 34.7339 69.6665 34.7339C62.8774 34.7339 57.374 29.2304 57.374 22.4431C57.374 19.0572 58.7439 15.9892 60.9593 13.7669H74.283C76.1805 13.7669 77.7205 15.3052 77.7205 17.2044Z" fill="#8399FE"/>
<path d="M77.7199 17.2051V21.538L47.1417 45.0281C46.2445 45.7173 45.1291 46.0954 43.9999 46.0954C42.8706 46.0954 41.7552 45.7173 40.858 45.0281L10.2798 21.538V17.2051C10.2798 15.3058 11.8198 13.7676 13.7173 13.7676H74.2824C76.1799 13.7676 77.7199 15.3058 77.7199 17.2051Z" fill="#8399FE"/>
<path d="M45.0476 30.1603L77.7202 55.2583C77.7202 57.1568 76.1812 58.6958 74.2827 58.6958H13.7183C11.8197 58.6958 10.2808 57.1568 10.2808 55.2583L42.9534 30.1603C43.571 29.6859 44.43 29.6859 45.0476 30.1603Z" fill="#8399FE"/>
<path d="M55.7719 38.3982L47.1421 45.0274C46.2449 45.7166 45.1294 46.0948 44.0002 46.0948C42.871 46.0948 41.7555 45.7166 40.8583 45.0274L32.2285 38.3982L42.9535 30.1603C43.5705 29.6859 44.4299 29.6859 45.0469 30.1603L55.7719 38.3982Z" fill="#6583FE"/>
<path d="M42.9534 42.3017L10.2808 17.2035C10.2808 15.305 11.8197 13.766 13.7183 13.766H74.2825C76.1811 13.766 77.72 15.305 77.72 17.2035L45.0476 42.3017C44.43 42.7759 43.571 42.7759 42.9534 42.3017Z" fill="#B7C5FF"/>
<path d="M63.7574 54.122H58.2344C57.7598 54.122 57.375 53.7372 57.375 53.2626V49.4549C57.375 48.9804 57.7598 48.5956 58.2344 48.5956H63.7574C64.2319 48.5956 64.6168 48.9804 64.6168 49.4549V53.2626C64.6168 53.7373 64.2319 54.122 63.7574 54.122Z" fill="#02FFB3"/>
<path d="M53.6036 50.6188H48.8198C48.3451 50.6188 47.9604 50.234 47.9604 49.7595C47.9604 49.2849 48.3451 48.9001 48.8198 48.9001H53.6036C54.0783 48.9001 54.463 49.2849 54.463 49.7595C54.463 50.234 54.0783 50.6188 53.6036 50.6188Z" fill="white"/>
<path d="M53.6036 54.122H36.7886C36.3139 54.122 35.9292 53.7372 35.9292 53.2626C35.9292 52.7881 36.3139 52.4032 36.7886 52.4032H53.6036C54.0783 52.4032 54.4629 52.7881 54.4629 53.2626C54.4629 53.7372 54.0783 54.122 53.6036 54.122Z" fill="white"/>
<path d="M69.6665 30.4007C76.4551 30.4007 81.9584 24.8974 81.9584 18.1088C81.9584 11.3201 76.4551 5.81682 69.6665 5.81682C62.8778 5.81682 57.3745 11.3201 57.3745 18.1088C57.3745 24.8974 62.8778 30.4007 69.6665 30.4007Z" fill="#FF5BA8"/>
<path d="M69.6663 31.2601C76.9179 31.2601 82.8177 25.3605 82.8177 18.1088C82.8177 10.857 76.9181 4.95744 69.6663 4.95744C62.4146 4.95744 56.515 10.857 56.515 18.1088C56.515 22.3273 58.5137 26.0855 61.6116 28.4936L44.5238 41.62C44.216 41.8568 43.7853 41.857 43.4768 41.62L11.1709 16.8037C11.3636 15.5714 12.4326 14.6254 13.7181 14.6254H53.1403C53.615 14.6254 53.9996 14.2406 53.9996 13.766C53.9996 13.2915 53.615 12.9066 53.1403 12.9066H13.7183C11.349 12.9066 9.42139 14.8342 9.42139 17.2035V55.2583C9.42139 57.6275 11.349 59.5551 13.7183 59.5551H74.2825C76.6518 59.5551 78.5794 57.6275 78.5794 55.2583V32.5467C78.5794 32.0722 78.1947 31.6874 77.72 31.6874C77.2453 31.6874 76.8607 32.0722 76.8607 32.5467V53.5144L54.3609 36.2309L63.1162 29.5054C65.0463 30.6192 67.2823 31.2601 69.6663 31.2601ZM33.6397 36.2309L11.1401 53.5144V18.9473L33.6397 36.2309ZM76.8266 55.6558C76.6345 56.8888 75.5685 57.8364 74.2824 57.8364H13.7183C12.4321 57.8364 11.3661 56.8888 11.174 55.6558L35.0506 37.3145L42.4299 42.983C42.8922 43.3381 43.4464 43.5158 44.0005 43.5158C44.5546 43.5158 45.1086 43.3382 45.5711 42.983L52.9503 37.3144L76.8266 55.6558ZM58.2338 18.1088C58.2338 11.8049 63.3623 6.67619 69.6663 6.67619C75.9704 6.67619 81.0989 11.8048 81.0989 18.1088C81.0989 24.4128 75.9704 29.5413 69.6663 29.5413C63.3623 29.5413 58.2338 24.4126 58.2338 18.1088Z" fill="#2626BC"/>
<path d="M64.3015 13.9169L66.0557 18.1088L64.3015 22.3006C64.0037 23.0125 64.7223 23.7258 65.4318 23.4226L76.0225 18.8991C76.7183 18.6019 76.7183 17.6157 76.0225 17.3185L65.4318 12.7949C64.7223 12.4918 64.0037 13.205 64.3015 13.9169Z" fill="white"/>
<path d="M70.0568 18.9111L64.776 21.1678L66.055 18.1084L64.7744 15.0491L70.0568 17.3058C70.7156 17.5877 70.7156 18.6309 70.0568 18.9111Z" fill="#FFDBED"/>
<path d="M56.8617 5.7472C56.2233 5.7472 55.5852 5.50434 55.0994 5.01845C54.1277 4.04667 54.1277 2.4656 55.0994 1.49399C56.0707 0.52256 57.6521 0.522216 58.6237 1.49399C59.5955 2.46577 59.5955 4.04685 58.6237 5.01845C58.138 5.50434 57.4998 5.7472 56.8617 5.7472ZM56.8617 2.48313C56.6637 2.48313 56.4655 2.55841 56.3146 2.70932C56.0131 3.01079 56.0131 3.50149 56.3146 3.80313C56.6164 4.1046 57.1066 4.10477 57.4084 3.80313C57.7099 3.50166 57.7099 3.01096 57.4084 2.70932C57.2577 2.55858 57.0595 2.48313 56.8617 2.48313Z" fill="#00ECA2"/>
<path d="M37.5614 70.6546C36.9232 70.6546 36.2849 70.4116 35.7991 69.9259C34.8274 68.9541 34.8274 67.373 35.7991 66.4014C36.7706 65.4298 38.3522 65.4298 39.3236 66.4014C40.2954 67.3732 40.2954 68.9542 39.3236 69.9259C38.8379 70.4117 38.1995 70.6546 37.5614 70.6546ZM37.5614 67.3905C37.3634 67.3905 37.1652 67.4658 37.0143 67.6167C36.7128 67.9182 36.7128 68.4089 37.0143 68.7105C37.3161 69.0122 37.8065 69.0122 38.1083 68.7105C38.4097 68.4091 38.4097 67.9184 38.1083 67.6167C37.9575 67.466 37.7594 67.3905 37.5614 67.3905Z" fill="#00ECA2"/>
<path d="M50.6655 7.96027C50.4456 7.96027 50.2255 7.87639 50.0579 7.70864L49.0327 6.68358L48.0074 7.70864C47.6721 8.04414 47.1276 8.04414 46.7923 7.70864C46.4566 7.37297 46.4566 6.82882 46.7923 6.49332L48.4251 4.86051C48.7604 4.52501 49.3049 4.52501 49.6402 4.86051L51.273 6.49332C51.6087 6.82899 51.6087 7.37314 51.273 7.70864C51.1055 7.87622 50.8855 7.96027 50.6655 7.96027Z" fill="#FF7EB8"/>
<path d="M75.582 67.3902C75.3621 67.3902 75.142 67.3063 74.9744 67.1386L73.9492 66.1135L72.9239 67.1386C72.5886 67.4741 72.0441 67.4741 71.7088 67.1386C71.3731 66.8029 71.3731 66.2587 71.7088 65.9232L73.3416 64.2904C73.6769 63.9549 74.2214 63.9549 74.5567 64.2904L76.1896 65.9232C76.5252 66.2589 76.5252 66.8031 76.1896 67.1386C76.022 67.3061 75.8018 67.3902 75.582 67.3902Z" fill="#FF7EB8"/>
<path d="M30.7465 68.2066C30.5267 68.2066 30.3065 68.1227 30.1389 67.955L29.1137 66.9299L28.0885 67.955C27.7532 68.2905 27.2087 68.2905 26.8733 67.955C26.5377 67.6193 26.5377 67.0752 26.8733 66.7397L28.5061 65.1068C28.8415 64.7713 29.386 64.7713 29.7213 65.1068L31.3541 66.7397C31.6898 67.0753 31.6898 67.6195 31.3541 67.955C31.1864 68.1226 30.9664 68.2066 30.7465 68.2066Z" fill="#6583FE"/>
<defs>
<linearGradient id="paint0_linear" x1="74.3073" y1="78.1019" x2="34.0886" y2="24.8208" gradientUnits="userSpaceOnUse">
<stop stop-color="#C6D1FF"/>
<stop offset="0.5834" stop-color="#E6D5F4"/>
<stop offset="0.997" stop-color="#FFD9EC"/>
</linearGradient>
</defs>
</svg>
