<svg width="72" height="91" viewBox="0 0 72 91" fill="none" xmlns="http://www.w3.org/2000/svg">
<path d="M21.0327 0.301249C8.99846 1.08544 -2.69949 11.1096 1.30138 24.1846C4.53097 34.7391 16.2783 39.6969 25.1137 44.6383C33.5882 49.3779 42.548 55.2879 44.9239 65.36C46.5589 72.2911 44.5554 80.3747 48.816 86.0808C56.3009 96.1052 70.7551 88.4916 71.8579 77.7248C72.7732 68.788 66.2864 60.9799 60.2183 54.3555C54.3361 47.934 47.7594 41.7353 42.5379 34.7564C37.7028 28.2937 35.1754 20.26 41.5868 13.8586C43.027 12.4207 44.7427 10.9402 44.2165 8.60111C42.4889 0.928248 26.9206 -0.0822699 21.0327 0.301249Z" fill="url(#paint0_linear)"/>
<path opacity="0.1" d="M63.198 24.7217H56.7754V18.8884C56.7754 16.3309 54.7021 14.2575 52.1446 14.2575H21.1094C18.5526 14.2575 16.4785 16.3299 16.4785 18.8884V24.7217H9.24963C8.27306 24.7217 7.48145 25.5133 7.48145 26.4898V38.7492C7.48145 39.7258 8.27306 40.5174 9.24963 40.5174H16.4785V55.7657C14.3123 57.5483 12.9306 60.25 12.9306 63.2743V85.282C12.9306 86.2585 13.7223 87.0501 14.6988 87.0501H47.9941C48.9707 87.0501 49.7623 86.2585 49.7623 85.282V83.3456H55.1948C56.8999 83.3456 58.2819 81.9634 58.2819 80.2586V78.8693C58.2819 77.7428 57.6765 76.76 56.7752 76.2209V40.5174H63.1978C64.1744 40.5174 64.966 39.7258 64.966 38.7492V26.4898C64.9662 25.5133 64.1746 24.7217 63.198 24.7217Z" fill="#2626BC"/>
<path d="M32.062 73.9567H49.7617V82.8065H32.062V73.9567Z" fill="#FF7EB8"/>
<path d="M56.7754 14.6447V72.9789C56.7754 75.5375 54.7031 77.6098 52.1446 77.6098H21.1094C18.5526 77.6098 16.4785 75.5375 16.4785 72.9789V14.6447C16.4785 12.0862 18.5526 10.0139 21.1094 10.0139H52.1446C54.7031 10.0139 56.7754 12.0862 56.7754 14.6447Z" fill="white"/>
<path d="M23.2772 25.39V37.6488C23.2772 38.6266 22.485 39.417 21.509 39.417H16.4785V23.6218H21.509C22.485 23.6218 23.2772 24.414 23.2772 25.39Z" fill="#D2DEFF"/>
<path d="M56.7754 23.6218V39.417H50.9386C49.9626 39.417 49.1704 38.6266 49.1704 37.6488V25.39C49.1704 24.414 49.9626 23.6218 50.9386 23.6218H56.7754Z" fill="#D2DEFF"/>
<path d="M29.601 39.2865H36.2238C40.5132 39.2865 43.9905 35.8092 43.9905 31.5198C43.9905 27.2303 40.5132 23.753 36.2238 23.753C31.9343 23.753 28.457 27.2303 28.457 31.5198V38.1425C28.457 38.7743 28.9693 39.2865 29.601 39.2865Z" fill="#DCFDEE"/>
<path d="M16.48 43.4331V72.9793C16.48 75.537 18.553 77.61 21.1107 77.61H52.1458C54.7035 77.61 56.7765 75.537 56.7765 72.9793V43.4331H16.48Z" fill="#97FFD2"/>
<path d="M45.1206 13.5546L46.2254 10.0139H26.8535L27.9583 13.5546C28.1595 14.1993 28.7564 14.6385 29.4319 14.6385H43.6472C44.3225 14.6385 44.9196 14.1995 45.1206 13.5546Z" fill="#6583FE"/>
<path d="M12.9307 82.8065V59.0306C12.9307 53.6626 17.2823 49.3109 22.6504 49.3109H32.8344C35.4771 49.3109 37.6195 51.4532 37.6195 54.0959C37.6195 56.7387 35.4771 58.881 32.8344 58.881H24.6019C24.6019 58.881 38.2367 59.9615 38.2367 82.8065" fill="#FFA8CF"/>
<path d="M56.4297 55.3947H48.2927C46.0637 55.3947 44.2568 53.5878 44.2568 51.3588C44.2568 49.1298 46.0637 47.3229 48.2927 47.3229H56.4297C58.1348 47.3229 59.5168 48.7051 59.5168 50.41V52.3076C59.5168 54.0125 58.1346 55.3947 56.4297 55.3947Z" fill="#FFA8CF"/>
<path d="M56.4298 63.4666H46.4407C44.2117 63.4666 42.4048 61.6597 42.4048 59.4307C42.4048 57.2017 44.2117 55.3948 46.4407 55.3948H56.4298C58.1349 55.3948 59.5169 56.777 59.5169 58.4819V60.3795C59.5169 62.0844 58.1347 63.4666 56.4298 63.4666Z" fill="#FFA8CF"/>
<path d="M56.4297 71.5383H48.2927C46.0637 71.5383 44.2568 69.7314 44.2568 67.5025C44.2568 65.2735 46.0637 63.4666 48.2927 63.4666H56.4297C58.1348 63.4666 59.5168 64.8488 59.5168 66.5537V68.4513C59.5168 70.1562 58.1346 71.5383 56.4297 71.5383Z" fill="#FFA8CF"/>
<path d="M55.1953 79.1019H47.8819C45.7933 79.1019 44.1001 77.4087 44.1001 75.3202C44.1001 73.2316 45.7933 71.5384 47.8819 71.5384H55.1953C56.9003 71.5384 58.2824 72.9205 58.2824 74.6254V76.0147C58.2824 77.7198 56.9002 79.1019 55.1953 79.1019Z" fill="#FFA8CF"/>
<path d="M24.3099 14.8592H21.4808C20.9926 14.8592 20.5967 14.4633 20.5967 13.9751V13.0946C20.5967 12.6064 20.9926 12.2105 21.4808 12.2105H24.3099C24.7981 12.2105 25.194 12.6064 25.194 13.0946V13.9751C25.194 14.4633 24.7981 14.8592 24.3099 14.8592Z" fill="#B7C5FF"/>
<path d="M49.1229 14.7282C48.6347 14.7282 48.2388 14.3323 48.2388 13.8441V13.2252C48.2388 12.7371 48.6347 12.3412 49.1229 12.3412C49.6111 12.3412 50.007 12.7371 50.007 13.2252V13.8441C50.007 14.3325 49.6112 14.7282 49.1229 14.7282Z" fill="#B7C5FF"/>
<path d="M51.8196 14.7282C51.3314 14.7282 50.9355 14.3323 50.9355 13.8441V13.2252C50.9355 12.7371 51.3314 12.3412 51.8196 12.3412C52.3078 12.3412 52.7037 12.7371 52.7037 13.2252V13.8441C52.7037 14.3325 52.308 14.7282 51.8196 14.7282Z" fill="#B7C5FF"/>
<path d="M21.509 36.2737H9.24963C8.27306 36.2737 7.48145 35.4821 7.48145 34.5056V22.2462C7.48145 21.2696 8.27306 20.478 9.24963 20.478H21.509C22.4856 20.478 23.2772 21.2696 23.2772 22.2462V34.5056C23.2772 35.4821 22.4854 36.2737 21.509 36.2737Z" fill="#8399FE"/>
<path d="M12.3823 36.2739V28.104C12.3823 26.0115 14.0847 24.3091 16.1772 24.3091H18.6594C19.3918 24.3091 19.9855 24.9029 19.9855 25.6353C19.9855 26.3677 19.3918 26.9614 18.6594 26.9614H16.1772C15.5472 26.9614 15.0346 27.474 15.0346 28.104V36.2739H12.3823Z" fill="white"/>
<path d="M16.7948 28.7885H13.8257V31.4407H16.7948C17.5272 31.4407 18.121 30.847 18.121 30.1146C18.121 29.3822 17.5272 28.7885 16.7948 28.7885Z" fill="white"/>
<path d="M63.1984 36.2737H50.9391C49.9625 36.2737 49.1709 35.4821 49.1709 34.5056V22.2462C49.1709 21.2696 49.9625 20.478 50.9391 20.478H63.1984C64.175 20.478 64.9666 21.2696 64.9666 22.2462V34.5056C64.9666 35.4821 64.175 36.2737 63.1984 36.2737Z" fill="#FF7EB8"/>
<path d="M61.366 24.9115C62.0059 24.9115 62.5245 24.3929 62.5245 23.753C62.5245 23.1132 62.0059 22.5945 61.366 22.5945C60.7262 22.5945 60.2075 23.1132 60.2075 23.753C60.2075 24.3929 60.7262 24.9115 61.366 24.9115Z" fill="white"/>
<path d="M49.1699 29.761V34.5055C49.1699 35.4821 49.9615 36.2737 50.9381 36.2737H63.1975C64.174 36.2737 64.9656 35.4821 64.9656 34.5055V29.761H49.1699Z" fill="#6583FE"/>
<path d="M57.0679 32.2861C59.2274 32.2861 60.978 30.5355 60.978 28.376C60.978 26.2164 59.2274 24.4658 57.0679 24.4658C54.9084 24.4658 53.1577 26.2164 53.1577 28.376C53.1577 30.5355 54.9084 32.2861 57.0679 32.2861Z" fill="white"/>
<path d="M57.0677 29.9969C57.9629 29.9969 58.6886 29.2712 58.6886 28.376C58.6886 27.4808 57.9629 26.7551 57.0677 26.7551C56.1725 26.7551 55.4468 27.4808 55.4468 28.376C55.4468 29.2712 56.1725 29.9969 57.0677 29.9969Z" fill="#02FFB3"/>
<path d="M29.601 36.1427H36.2238C40.5132 36.1427 43.9905 32.6654 43.9905 28.376C43.9905 24.0865 40.5132 20.6092 36.2238 20.6092C31.9343 20.6092 28.457 24.0865 28.457 28.376V34.9987C28.457 35.6305 28.9693 36.1427 29.601 36.1427Z" fill="#02FFB3"/>
<path d="M34.2626 32.1964C33.9742 32.1964 33.6858 32.0865 33.4657 31.8663L32.7144 31.115C32.2743 30.6749 32.2743 29.9613 32.7144 29.5212L37.3504 24.8852C37.7906 24.4453 38.5039 24.4453 38.9442 24.8852L39.7332 25.6741C40.1733 26.1142 40.1733 26.8279 39.7332 27.268C39.2957 27.7054 38.5881 27.7083 38.1473 27.2759L35.1039 30.3195C35.4992 30.7621 35.4844 31.4416 35.0597 31.8665C34.8394 32.0865 34.551 32.1964 34.2626 32.1964Z" fill="white"/>
<path d="M46.8923 43.4331C46.8923 43.6592 46.806 43.8857 46.6334 44.0581L45.6021 45.0897C45.2567 45.435 44.6971 45.435 44.3518 45.0899C44.0064 44.7445 44.0064 44.1849 44.3518 43.8396L44.7581 43.4331L44.3518 43.0266C44.0066 42.6816 44.0064 42.1216 44.3518 41.7763C44.6971 41.4311 45.2567 41.4311 45.6021 41.7765L46.6334 42.808C46.806 42.9806 46.8923 43.2069 46.8923 43.4331Z" fill="#8399FE"/>
<path d="M25.5557 43.4331C25.5557 43.6592 25.642 43.8857 25.8145 44.0581L26.8459 45.0897C27.1912 45.435 27.7509 45.435 28.0962 45.0899C28.4415 44.7445 28.4415 44.1849 28.0962 43.8396L27.6899 43.4331L28.0962 43.0266C28.4413 42.6816 28.4415 42.1216 28.0962 41.7763C27.7509 41.4311 27.1912 41.4311 26.8459 41.7765L25.8145 42.808C25.642 42.9806 25.5557 43.2069 25.5557 43.4331Z" fill="#8399FE"/>
<path d="M7.48144 48.8574C6.99324 48.8574 6.59735 48.4615 6.59735 47.9733C6.59735 47.3882 6.12153 46.9124 5.53644 46.9124C5.04824 46.9124 4.65234 46.5165 4.65234 46.0283C4.65234 45.5401 5.04824 45.1442 5.53644 45.1442C6.12153 45.1442 6.59735 44.6684 6.59735 44.0833C6.59735 43.5951 6.99324 43.1992 7.48144 43.1992C7.96963 43.1992 8.36553 43.5951 8.36553 44.0833C8.36553 44.6684 8.84135 45.1442 9.42644 45.1442C9.91464 45.1442 10.3105 45.5401 10.3105 46.0283C10.3105 46.5165 9.91464 46.9124 9.42644 46.9124C8.84135 46.9124 8.36553 47.3882 8.36553 47.9733C8.36553 48.4615 7.96963 48.8574 7.48144 48.8574Z" fill="#01ECA5"/>
<path d="M62.5249 12.7272C62.0367 12.7272 61.6408 12.3313 61.6408 11.8431C61.6408 11.258 61.165 10.7822 60.5799 10.7822C60.0917 10.7822 59.6958 10.3863 59.6958 9.89806C59.6958 9.40987 60.0917 9.01397 60.5799 9.01397C61.165 9.01397 61.6408 8.53815 61.6408 7.95306C61.6408 7.46487 62.0367 7.06897 62.5249 7.06897C63.0131 7.06897 63.409 7.46487 63.409 7.95306C63.409 8.53815 63.8848 9.01397 64.4699 9.01397C64.9581 9.01397 65.354 9.40987 65.354 9.89806C65.354 10.3863 64.9581 10.7822 64.4699 10.7822C63.8848 10.7822 63.409 11.258 63.409 11.8431C63.409 12.3313 63.0133 12.7272 62.5249 12.7272Z" fill="#FF7EB8"/>
<path d="M69.171 17.6884C68.9447 17.6884 68.7185 17.6021 68.5458 17.4295L66.6008 15.4845C66.2555 15.1392 66.2555 14.5794 66.6008 14.2342L68.5458 12.2892C68.8911 11.944 69.4507 11.944 69.7961 12.2892L71.7411 14.2342C72.0864 14.5795 72.0864 15.1393 71.7411 15.4845L69.7961 17.4295C69.6235 17.6019 69.3973 17.6884 69.171 17.6884ZM68.4763 14.8593L69.171 15.554L69.8657 14.8593L69.171 14.1645L68.4763 14.8593Z" fill="#01ECA5"/>
<path d="M66.4142 76.3125C66.1879 76.3125 65.9617 76.2262 65.789 76.0536L63.844 74.1086C63.4986 73.7633 63.4986 73.2035 63.844 72.8583L65.789 70.9133C66.1343 70.5682 66.6939 70.5682 67.0392 70.9133L68.9842 72.8583C69.3296 73.2036 69.3296 73.7634 68.9842 74.1086L67.0392 76.0536C66.8668 76.2262 66.6405 76.3125 66.4142 76.3125ZM65.7196 73.4834L66.4144 74.1781L67.1091 73.4834L66.4144 72.7886L65.7196 73.4834Z" fill="#6583FE"/>
<path d="M6.28235 58.9949C6.05602 58.9949 5.82987 58.9086 5.65712 58.736L3.71212 56.791C3.36679 56.4457 3.36679 55.8859 3.71212 55.5408L5.65712 53.5957C6.00245 53.2506 6.56208 53.2506 6.9074 53.5957L8.8524 55.5408C9.19773 55.8861 9.19773 56.4459 8.8524 56.791L6.9074 58.736C6.73483 58.9086 6.50868 58.9949 6.28235 58.9949ZM5.58763 56.1658L6.28235 56.8605L6.97707 56.1658L6.28235 55.4711L5.58763 56.1658Z" fill="#6583FE"/>
<path d="M52.1449 9.12979H21.1097C18.0688 9.12979 15.5949 11.6037 15.5949 14.6446V19.5939H9.24944C7.78698 19.5939 6.59717 20.7837 6.59717 22.2462V34.5055C6.59717 35.968 7.78698 37.1578 9.24944 37.1578H21.5088C22.9713 37.1578 24.1611 35.968 24.1611 34.5055V22.2462C24.1611 20.7837 22.9713 19.5939 21.5088 19.5939H17.3631V14.6446C17.3631 12.5786 19.0438 10.898 21.1097 10.898H52.1449C54.2108 10.898 55.8915 12.5786 55.8915 14.6446V19.5939H50.9385C49.476 19.5939 48.2862 20.7837 48.2862 22.2462V34.5055C48.2862 35.968 49.476 37.1578 50.9385 37.1578H55.8915V46.4387H48.2927C45.5798 46.4387 43.3728 48.6457 43.3728 51.3586C43.3728 52.697 43.9105 53.9114 44.7804 54.7993C42.8819 55.4819 41.5204 57.2999 41.5204 59.4306C41.5204 61.5612 42.8819 63.3791 44.7804 64.0618C43.9105 64.9496 43.3728 66.1642 43.3728 67.5025C43.3728 69.1002 44.1389 70.5222 45.3225 71.4215C44.0546 72.2565 43.2156 73.6919 43.2156 75.3204C43.2156 75.8101 43.2919 76.2824 43.4325 76.7264H38.753C38.0613 71.2893 36.2376 65.4958 32.0169 61.6254C31.1751 60.8534 30.3326 60.2448 29.5342 59.7653H32.8344C35.9603 59.7653 38.5035 57.2221 38.5035 54.0961C38.5035 50.9702 35.9603 48.4268 32.8344 48.4268C32.3462 48.4268 31.9503 48.8227 31.9503 49.3109C31.9503 49.7991 32.3462 50.195 32.8344 50.195C34.9854 50.195 36.7353 51.945 36.7353 54.0961C36.7353 56.2471 34.9854 57.9971 32.8344 57.9971H24.6019H20.9488C20.4606 57.9971 20.0647 58.393 20.0647 58.8812C20.0647 59.3694 20.4606 59.7653 20.9488 59.7653H24.5566C24.8669 59.8007 27.9116 60.2141 30.9106 63.0106C35.1251 66.9409 37.3528 73.7861 37.3528 82.8065C37.3528 83.2947 37.7487 83.6906 38.2369 83.6906C38.7251 83.6906 39.121 83.2947 39.121 82.8065C39.121 81.4515 39.069 79.9967 38.9396 78.4944H44.4658C45.3185 79.4111 46.5337 79.9861 47.8813 79.9861H48.878V82.8065C48.878 83.2947 49.2739 83.6906 49.7621 83.6906C50.2503 83.6906 50.6462 83.2947 50.6462 82.8065V79.9861H55.1947C57.3844 79.9861 59.1658 78.2046 59.1658 76.0149V74.6256C59.1658 73.6261 58.7938 72.7125 58.1822 72.0137C59.4952 71.3651 60.4007 70.0123 60.4007 68.4513V66.5539C60.4007 65.3084 59.8238 64.1953 58.9238 63.4668C59.8238 62.7381 60.4007 61.6252 60.4007 60.3797V58.4823C60.4007 57.2368 59.8238 56.1237 58.9238 55.3952C59.8238 54.6666 60.4007 53.5537 60.4007 52.3081V50.4107C60.4007 48.6503 59.2489 47.1546 57.6595 46.6355V37.1587H63.1976C64.6601 37.1587 65.8499 35.9689 65.8499 34.5064V22.2462C65.8499 20.7837 64.6601 19.5939 63.1976 19.5939H57.6595V14.6446C57.6597 11.6037 55.1858 9.12979 52.1449 9.12979ZM22.3931 22.2462V34.5055C22.3931 34.993 21.9965 35.3896 21.509 35.3896H9.24962C8.76213 35.3896 8.36553 34.993 8.36553 34.5055V22.2462C8.36553 21.7587 8.76213 21.3621 9.24962 21.3621H21.509C21.9963 21.3621 22.3931 21.7587 22.3931 22.2462ZM57.3978 76.0147C57.3978 77.2295 56.4096 78.2177 55.1948 78.2177H47.8814C46.2835 78.2177 44.9837 76.9177 44.9837 75.32C44.9837 73.7223 46.2837 72.4223 47.8814 72.4223H48.2929H55.195C56.4098 72.4223 57.398 73.4105 57.398 74.6253V76.0147H57.3978ZM58.6327 66.5537V68.4511C58.6327 69.6659 57.6445 70.6541 56.4297 70.6541H55.1948H48.2927C46.5548 70.6541 45.1409 69.2401 45.1409 67.5023C45.1409 65.7646 46.555 64.3505 48.2927 64.3505H56.4297C57.6445 64.3507 58.6327 65.339 58.6327 66.5537ZM58.6327 58.4819V60.3794C58.6327 61.5941 57.6445 62.5824 56.4297 62.5824H48.2927H46.4404C44.7024 62.5824 43.2886 61.1683 43.2886 59.4306C43.2886 57.6928 44.7024 56.2788 46.4404 56.2788H48.2927H56.4297C57.6445 56.2788 58.6327 57.2672 58.6327 58.4819ZM58.6327 50.41V52.3074C58.6327 53.5222 57.6445 54.5104 56.4297 54.5104H48.2927C46.5548 54.5104 45.1409 53.0964 45.1409 51.3586C45.1409 49.6209 46.555 48.2068 48.2927 48.2068H56.4297C57.6445 48.207 58.6327 49.1953 58.6327 50.41ZM64.0821 22.2462V34.5055C64.0821 34.993 63.6855 35.3896 63.198 35.3896H50.9386C50.4511 35.3896 50.0545 34.993 50.0545 34.5055V22.2462C50.0545 21.7587 50.4511 21.3621 50.9386 21.3621H63.198C63.6853 21.3621 64.0821 21.7587 64.0821 22.2462Z" fill="#2626BC"/>
<path d="M12.0469 59.0306V82.8065C12.0469 83.2947 12.4428 83.6906 12.931 83.6906C13.4192 83.6906 13.8151 83.2947 13.8151 82.8065V59.0306C13.8151 54.1586 17.7788 50.195 22.6507 50.195H26.883C27.3712 50.195 27.7671 49.7991 27.7671 49.3109C27.7671 48.8227 27.3712 48.4268 26.883 48.4268H22.6507C20.726 48.4268 18.9212 48.9449 17.3636 49.8449V42.3328C17.3636 41.8446 16.9677 41.4487 16.4795 41.4487C15.9913 41.4487 15.5954 41.8446 15.5954 42.3328V51.0381C15.5954 51.0649 15.6009 51.0902 15.6034 51.1166C13.4231 53.0602 12.0469 55.8871 12.0469 59.0306Z" fill="#2626BC"/>
<path d="M29.6009 37.0268H36.2236C40.9938 37.0268 44.8744 33.146 44.8744 28.376C44.8744 23.6059 40.9936 19.7251 36.2236 19.7251C31.4536 19.7251 27.5728 23.6059 27.5728 28.376V34.9987C27.5728 36.1169 28.4827 37.0268 29.6009 37.0268ZM29.3409 28.376C29.3409 24.5809 32.4285 21.4933 36.2236 21.4933C40.0187 21.4933 43.1063 24.5809 43.1063 28.376C43.1063 32.171 40.0187 35.2586 36.2236 35.2586H29.6009C29.4575 35.2586 29.3409 35.1419 29.3409 34.9987V28.376Z" fill="#2626BC"/>
<defs>
<linearGradient id="paint0_linear" x1="0.501453" y1="45.4978" x2="71.9448" y2="45.4978" gradientUnits="userSpaceOnUse">
<stop offset="0.0485" stop-color="#D2DEFF"/>
<stop offset="0.9993" stop-color="#DCFDEE"/>
</linearGradient>
</defs>
</svg>
