<svg width="238" height="144" viewBox="0 0 238 144" fill="none" xmlns="http://www.w3.org/2000/svg">
<g filter="url(#filter0_d)">
<path fill-rule="evenodd" clip-rule="evenodd" d="M197.519 49.965V86.0612C197.519 93.1876 191.232 99.0303 183.566 99.0303H53.9536C46.2871 99.0303 40 93.1935 40 86.0612V49.965C40 42.2834 46.2812 36 53.9536 36H183.566C191.241 36 197.519 42.2834 197.519 49.965Z" fill="white"/>
<path fill-rule="evenodd" clip-rule="evenodd" d="M96.0375 61.3507C96.5629 63.3189 96.8447 65.384 96.8447 67.5166C96.8447 80.6708 86.1901 91.337 73.0437 91.337C62.0311 91.337 52.7649 83.8492 50.0499 73.6825L59.548 71.1356C61.1418 77.1017 66.5776 81.4963 73.0437 81.4963C80.7572 81.4963 87.012 75.2393 87.012 67.5166C87.012 66.2652 86.8476 65.052 86.5394 63.8976L96.0375 61.3507Z" fill="#22D2FB"/>
<path fill-rule="evenodd" clip-rule="evenodd" d="M50.0499 73.6824C49.5245 71.7172 49.2427 69.6492 49.2427 67.5166C49.2427 60.9395 51.9078 54.9851 56.2136 50.6728L63.167 57.6318C60.6398 60.161 59.0754 63.6567 59.0754 67.5166C59.0754 68.768 59.2397 69.9812 59.5479 71.1356L50.0499 73.6824Z" fill="#12A3EB"/>
<path fill-rule="evenodd" clip-rule="evenodd" d="M73.0437 43.6963C84.0563 43.6963 93.3225 51.184 96.0375 61.3508L86.5365 63.8976C84.9427 57.9315 79.5068 53.537 73.0437 53.537C69.1869 53.537 65.6941 55.1027 63.167 57.6319L56.2137 50.6729C60.5224 46.3636 66.4719 43.6963 73.0437 43.6963Z" fill="#1C8DF3"/>
<path fill-rule="evenodd" clip-rule="evenodd" d="M101.77 48.7341H186.727C187.578 48.7341 188.274 49.4332 188.274 50.2822V53.7367C188.274 54.5857 187.575 55.2848 186.727 55.2848H101.77C100.922 55.2848 100.223 54.5886 100.223 53.7367V50.2822C100.223 49.4303 100.919 48.7341 101.77 48.7341Z" fill="#86E4FD"/>
<path fill-rule="evenodd" clip-rule="evenodd" d="M101.77 63.5804H186.727C187.578 63.5804 188.274 64.2795 188.274 65.1284V68.58C188.274 69.4289 187.575 70.1281 186.727 70.1281H101.77C100.922 70.1281 100.223 69.4319 100.223 68.58V65.1284C100.223 64.2736 100.919 63.5804 101.77 63.5804Z" fill="#86E4FD"/>
<path fill-rule="evenodd" clip-rule="evenodd" d="M101.77 79.7484H150.69C151.541 79.7484 152.236 80.4476 152.236 81.2965V84.7481C152.236 85.5941 151.535 86.2962 150.69 86.2962H101.773C100.927 86.2962 100.226 85.6 100.226 84.7481V81.2965C100.223 80.4446 100.919 79.7484 101.77 79.7484Z" fill="#86E4FD"/>
</g>
<defs>
<filter id="filter0_d" x="0" y="0" width="237.519" height="143.03" filterUnits="userSpaceOnUse" color-interpolation-filters="sRGB">
<feFlood flood-opacity="0" result="BackgroundImageFix"/>
<feColorMatrix in="SourceAlpha" type="matrix" values="0 0 0 0 0 0 0 0 0 0 0 0 0 0 0 0 0 0 127 0"/>
<feOffset dy="4"/>
<feGaussianBlur stdDeviation="20"/>
<feColorMatrix type="matrix" values="0 0 0 0 0 0 0 0 0 0 0 0 0 0 0 0 0 0 0.12 0"/>
<feBlend mode="normal" in2="BackgroundImageFix" result="effect1_dropShadow"/>
<feBlend mode="normal" in="SourceGraphic" in2="effect1_dropShadow" result="shape"/>
</filter>
</defs>
</svg>
