<svg width="66" height="78" viewBox="0 0 66 78" fill="none" xmlns="http://www.w3.org/2000/svg">
<path d="M17.0339 33.7216L0 65.8141L15.4683 64.3851L22.9549 77.9976L39.9889 45.905L17.0339 33.7216Z" fill="#6D6AFE"/>
<path d="M18.9844 68.6527C19.4624 67.626 18.9624 66.3994 17.9626 65.8678L16.9823 65.3459C16.0019 64.7874 15.6288 63.5462 16.1629 62.5414C16.7043 61.5196 17.9772 61.1295 18.999 61.6708L21.7693 63.1413C22.6253 63.5949 23.6983 63.2657 24.1397 62.4049L24.208 62.2732C24.7152 61.4611 24.4152 60.3881 23.5715 59.9418L15.285 55.545C14.2754 55.0085 13.7803 53.7867 14.251 52.7576C14.7704 51.6627 16.0824 51.231 17.1383 51.7919L24.8249 55.8718C25.6809 56.3253 26.7539 55.9961 27.2075 55.1402L27.2514 55.028L27.2636 55.0036C27.7537 54.1062 27.4099 52.9795 26.5052 52.4991L22.1936 50.2117C21.184 49.6752 20.689 48.4534 21.167 47.4121C21.6815 46.3293 22.9984 45.8855 24.0543 46.4464L28.817 48.9753C29.7071 49.4484 30.7703 49.0533 31.2312 48.1559C31.2386 48.1437 31.2386 48.1437 31.2434 48.1315C31.2508 48.1193 31.2508 48.1193 31.2556 48.1071C31.7409 47.2219 31.4727 46.1196 30.5801 45.649L25.4419 42.9226C24.4445 42.3934 23.9495 41.1716 24.4201 40.1425C24.9395 39.0476 26.2515 38.6159 27.3075 39.1768L39.9835 45.905L22.9496 77.9976L18.2552 69.4648C18.5576 69.2599 18.821 69.0063 18.9844 68.6527Z" fill="#6D6AFE"/>
<path d="M48.8968 33.7216L65.9308 65.8141L50.4625 64.3851L42.9758 77.9976L25.9419 45.905L48.8968 33.7216Z" fill="#6D6AFE"/>
<path d="M46.9464 68.6527C46.4684 67.626 46.9684 66.3994 47.9682 65.8678L48.9485 65.3459C49.9289 64.7874 50.302 63.5462 49.7679 62.5415C49.2265 61.5197 47.9536 61.1295 46.9318 61.6709L44.1615 63.1414C43.3055 63.595 42.2325 63.2657 41.7911 62.4049L41.7228 62.2732C41.2156 61.4611 41.5156 60.3881 42.3593 59.9419L50.6483 55.5426C51.6579 55.0061 52.1529 53.7843 51.6823 52.7552C51.1628 51.6602 49.8508 51.2286 48.7949 51.7895L41.1083 55.8693C40.2523 56.3229 39.1793 55.9937 38.7258 55.1377L38.6819 55.0256L38.6697 55.0012C38.1795 54.1038 38.5233 52.9771 39.4281 52.4967L43.7396 50.2092C44.7492 49.6727 45.2442 48.451 44.7663 47.4097C44.2517 46.3269 42.9348 45.8831 41.8789 46.444L37.1114 48.9777C36.2213 49.4508 35.158 49.0558 34.6971 48.1583C34.6898 48.1461 34.6898 48.1462 34.6849 48.134C34.6776 48.1218 34.6776 48.1218 34.6727 48.1096C34.1874 47.2243 34.4557 46.1221 35.3482 45.6514L40.4865 42.925C41.4839 42.3958 41.9789 41.1741 41.5082 40.145C40.9888 39.05 39.6768 38.6184 38.6209 39.1793L25.9448 45.9075L42.9787 78L47.6731 69.4672C47.3732 69.2599 47.1098 69.0063 46.9464 68.6527Z" fill="#6D6AFE" fill-opacity="0.6"/>
<path d="M32.9653 56.9228C48.6841 56.9228 61.4267 44.1802 61.4267 28.4614C61.4267 12.7426 48.6841 0 32.9653 0C17.2465 0 4.50391 12.7426 4.50391 28.4614C4.50391 44.1802 17.2465 56.9228 32.9653 56.9228Z" fill="#AFD7FD"/>
<path d="M36.8258 25.196H18.7896C17.3874 25.196 16.2363 24.045 16.2363 22.6428L16.2558 22.4672V22.4282C16.2363 20.9479 17.4434 19.7384 18.9261 19.7384H31.4266C33.0825 19.7384 34.5456 18.5117 34.6432 16.8534C34.7212 15.1196 33.3385 13.6564 31.6022 13.6564H18.3604C16.8996 13.6564 15.8071 12.4297 15.8266 10.9666C15.8266 10.9471 15.8266 10.9471 15.8266 10.9275C15.8266 10.908 15.8266 10.908 15.8266 10.8885C15.8071 9.42778 16.8972 8.1987 18.3604 8.1987H32.2167C33.8531 8.1987 35.3163 6.97206 35.4138 5.33329C35.4918 3.57991 34.1091 2.13623 32.3728 2.13623H22.2256C11.8785 6.40142 4.58691 16.5754 4.58691 28.4614C4.58691 40.3473 11.8785 50.5189 22.2281 54.7792H35.1114C36.7477 54.7792 38.2109 53.5526 38.3085 51.9138C38.3865 50.1604 37.0038 48.7192 35.2675 48.7192L20.6112 48.7168C18.8822 48.7168 17.4898 47.2706 17.5824 45.5197C17.6678 43.8809 19.1407 42.6494 20.7819 42.6494H26.464C28.0979 42.6031 29.4172 41.2643 29.4172 39.6182C29.4172 37.9428 28.054 36.5772 26.3762 36.5772H17.7629C16.3607 36.5772 15.2096 35.4286 15.2292 34.0239V33.8093C15.1316 32.4266 16.2436 31.2561 17.6263 31.2561H36.6502C38.306 31.2561 39.7692 30.0294 39.8668 28.3907C39.9448 26.6397 38.5597 25.196 36.8258 25.196Z" fill="#AFD7FD"/>
<path d="M32.9653 48.7753C21.7621 48.7753 12.6489 39.6597 12.6489 28.459C12.6489 17.2583 21.7621 8.14508 32.9653 8.14508C44.1684 8.14508 53.2816 17.2607 53.2816 28.4614C53.2816 39.6621 44.1684 48.7753 32.9653 48.7753Z" fill="#72BAFD"/>
<path d="M23.1767 36.504C22.8572 36.7942 22.6694 37.1405 22.5207 37.5063C22.3792 37.8745 22.2768 38.2623 22.3036 38.6964C22.3329 39.1329 22.5109 39.6133 22.5353 40.0449C22.5402 40.101 22.5255 40.1547 22.528 40.2083C21.7086 39.1256 21.0087 37.977 20.4308 36.782C20.4454 36.5406 20.482 36.3114 20.5698 36.109C20.7112 35.7578 21.0111 35.4944 21.2014 35.175C21.3891 34.8555 21.4818 34.4897 21.5623 34.1166C21.6354 33.7386 21.694 33.3557 21.6574 32.907C21.6232 32.8851 21.5867 32.8631 21.5525 32.8387C21.1892 33.0314 20.938 33.3021 20.7185 33.5996C20.5088 33.902 20.3283 34.2288 20.26 34.6287C20.1966 35.0311 20.26 35.5066 20.1893 35.8992C20.1771 35.9748 20.143 36.0407 20.1235 36.1138C19.5967 34.9189 19.187 33.6825 18.8968 32.4217C18.9627 32.1486 19.0529 31.895 19.2017 31.695C19.4065 31.4097 19.7479 31.2414 19.9918 30.9976C20.2332 30.7488 20.3917 30.4367 20.5381 30.1099C20.6795 29.7758 20.8063 29.4344 20.8502 29.0052C20.8209 28.9759 20.7917 28.9467 20.7624 28.9174C20.382 29.0076 20.0918 29.2003 19.8284 29.4222C19.5699 29.649 19.3382 29.9124 19.1944 30.2611C19.0554 30.6147 19.0237 31.0683 18.8773 31.4097C18.8408 31.5024 18.7822 31.5731 18.7335 31.656C18.4945 30.4074 18.3701 29.1393 18.3628 27.8688C18.492 27.5688 18.6432 27.2957 18.8627 27.1152C19.1114 26.9006 19.4626 26.8324 19.7382 26.6641C20.0113 26.4934 20.2186 26.2349 20.4161 25.9642C20.6088 25.6838 20.7892 25.3887 20.9087 24.9887C20.8868 24.9522 20.8648 24.918 20.8429 24.8814C20.4673 24.8717 20.1625 24.9863 19.8747 25.1302C19.5919 25.2838 19.3236 25.4692 19.1261 25.7667C18.9285 26.0666 18.8164 26.4836 18.614 26.7665C18.5457 26.8665 18.4603 26.9397 18.3774 27.0177C18.4213 25.7764 18.5749 24.5376 18.8383 23.3134C18.8505 23.2939 18.8627 23.2768 18.8749 23.2573C19.0724 22.9574 19.2919 22.6915 19.5675 22.5574C19.8382 22.416 20.1747 22.4428 20.4625 22.3501C20.7478 22.255 20.9868 22.0599 21.2209 21.8429C21.4501 21.6185 21.672 21.3771 21.8598 21.0138C21.8452 20.9747 21.833 20.9333 21.8183 20.8918C21.4745 20.7918 21.1721 20.8284 20.8795 20.8967C20.5893 20.9747 20.3064 21.0894 20.0674 21.3259C19.8284 21.5673 19.6431 21.9404 19.4016 22.155C19.2968 22.255 19.1822 22.3209 19.0627 22.3843C19.3846 21.1698 19.8211 19.9749 20.3673 18.8165C20.3771 18.8312 20.3893 18.8434 20.399 18.858C20.4454 18.8092 20.4942 18.7629 20.5405 18.7141C20.7844 18.4727 21.038 18.2703 21.3135 18.2093C21.5891 18.1386 21.8891 18.2483 22.1671 18.2264C22.4451 18.202 22.7036 18.0679 22.9621 17.9094C23.2181 17.7411 23.4717 17.5533 23.7205 17.2363C23.718 17.1924 23.7132 17.1485 23.7107 17.1071C23.4205 16.929 23.1401 16.8925 22.8572 16.8925C22.5768 16.8998 22.2963 16.9461 22.0281 17.1217C21.7598 17.3021 21.5111 17.6216 21.2477 17.7728C21.1184 17.8533 20.9819 17.8996 20.8453 17.9289C20.8502 17.902 20.8502 17.8777 20.8551 17.8508C21.7427 16.2023 22.8718 14.644 24.2448 13.2247C22.945 14.4806 21.8403 15.8658 20.9282 17.3412C20.9307 17.2973 20.9502 17.2461 20.9502 17.2022C20.9721 16.8851 20.9868 16.5705 20.9575 16.273C20.8624 15.6902 20.7039 15.1269 20.2722 14.6513C20.2259 14.6684 20.1796 14.6855 20.1332 14.7025C19.6748 15.5097 19.5553 16.2145 19.5528 16.8583C19.5723 17.1729 19.6431 17.4607 19.7382 17.7362C19.8162 18.0215 19.9577 18.2727 20.1332 18.5044C20.1576 18.5385 20.182 18.5702 20.2088 18.6044C19.687 19.5969 19.248 20.626 18.8944 21.6771C18.892 21.6673 18.8944 21.6551 18.892 21.6429C18.8212 21.3186 18.753 20.9894 18.6481 20.6845C18.4042 20.0968 18.1067 19.5384 17.5653 19.1214C17.5239 19.1482 17.4849 19.175 17.4434 19.2018C17.1971 20.1285 17.2556 20.8869 17.4215 21.5551C17.519 21.877 17.6678 22.1624 17.8336 22.4306C17.9848 22.7111 18.1921 22.9452 18.4262 23.1524C18.4335 23.1573 18.4408 23.1646 18.4457 23.1695C18.1774 24.2133 17.9872 25.2741 17.8799 26.3446C17.7361 26.03 17.5897 25.7179 17.4142 25.4375C17.0191 24.8766 16.5826 24.3523 15.9388 24.0157C15.9046 24.0499 15.8705 24.084 15.8363 24.1206C15.8217 25.1253 16.0729 25.8959 16.4094 26.5544C16.5923 26.8689 16.8142 27.1347 17.0508 27.3786C17.2581 27.6176 17.5093 27.7981 17.7751 27.959C17.7482 29.0149 17.797 30.0758 17.9263 31.1292C17.7117 30.8561 17.4995 30.5805 17.2654 30.344C16.7216 29.8465 16.1461 29.3881 15.4145 29.1515C15.3876 29.193 15.3633 29.2344 15.3364 29.2759C15.5705 30.3074 16.0241 31.0512 16.5362 31.6584C16.802 31.9462 17.0971 32.1754 17.402 32.3778C17.6458 32.5607 17.9189 32.6778 18.197 32.7826C18.4042 33.8118 18.6896 34.8287 19.0505 35.8285C18.7749 35.609 18.5042 35.3847 18.2189 35.1969C17.5312 34.7945 16.8264 34.4336 16.0168 34.3263C15.9997 34.3726 15.9851 34.419 15.968 34.4653C16.468 35.4725 17.1215 36.1431 17.8068 36.6601C18.1555 36.9015 18.5189 37.0747 18.8871 37.221C19.1553 37.3429 19.4358 37.3966 19.7138 37.4478C20.1527 38.4086 20.6697 39.345 21.2599 40.2473C20.9331 40.0913 20.6088 39.9254 20.282 39.8035C19.4626 39.5352 18.6383 39.3036 17.7726 39.3402C17.7678 39.3914 17.7629 39.4401 17.758 39.4914C18.531 40.418 19.387 40.9667 20.2357 41.352C20.6624 41.5252 21.0892 41.6276 21.5135 41.7008C21.7915 41.7617 22.0646 41.752 22.3402 41.7544C22.7987 42.3397 23.2937 42.9055 23.8205 43.4517C24.0985 43.1737 24.3789 42.8933 24.6569 42.6153C24.0497 42.03 23.4864 41.413 22.9645 40.7741C22.9377 40.5644 22.9279 40.3619 22.9572 40.1693C23.0084 39.762 23.2401 39.4109 23.3522 39.0304C23.4595 38.6476 23.4669 38.2428 23.462 37.8331C23.4498 37.4209 23.423 37.0088 23.2913 36.5528C23.2547 36.5333 23.2157 36.5186 23.1767 36.504Z" fill="white"/>
<path d="M42.7542 36.504C43.0736 36.7942 43.2614 37.1405 43.4102 37.5063C43.5516 37.8745 43.654 38.2623 43.6272 38.6964C43.598 39.1329 43.4199 39.6133 43.3956 40.0449C43.3907 40.101 43.4053 40.1547 43.4029 40.2083C44.2222 39.1256 44.9221 37.977 45.5001 36.782C45.4855 36.5406 45.4489 36.3114 45.3611 36.109C45.2197 35.7578 44.9197 35.4944 44.7295 35.175C44.5417 34.8555 44.449 34.4897 44.3686 34.1166C44.2954 33.7386 44.2369 33.3557 44.2735 32.907C44.3076 32.8851 44.3442 32.8631 44.3783 32.8387C44.7417 33.0314 44.9929 33.3021 45.2123 33.5996C45.4221 33.902 45.6025 34.2288 45.6708 34.6287C45.7342 35.0311 45.6708 35.5066 45.7415 35.8992C45.7537 35.9748 45.7879 36.0407 45.8074 36.1138C46.3341 34.9189 46.7438 33.6825 47.034 32.4217C46.9682 32.1486 46.8779 31.895 46.7292 31.695C46.5243 31.4097 46.1829 31.2414 45.9391 30.9976C45.6976 30.7488 45.5391 30.4367 45.3928 30.1099C45.2514 29.7758 45.1245 29.4344 45.0807 29.0052C45.1099 28.9759 45.1392 28.9467 45.1684 28.9174C45.5489 29.0076 45.8391 29.2003 46.1024 29.4222C46.3609 29.649 46.5926 29.9124 46.7365 30.2611C46.8755 30.6147 46.9072 31.0683 47.0535 31.4097C47.0901 31.5024 47.1486 31.5731 47.1974 31.656C47.4364 30.4074 47.5608 29.1393 47.5681 27.8688C47.4388 27.5688 47.2876 27.2957 47.0681 27.1152C46.8194 26.9006 46.4682 26.8324 46.1927 26.6641C45.9195 26.4934 45.7123 26.2349 45.5147 25.9642C45.3221 25.6838 45.1416 25.3887 45.0221 24.9887C45.0441 24.9522 45.066 24.918 45.088 24.8814C45.4635 24.8717 45.7684 24.9863 46.0561 25.1302C46.339 25.2838 46.6072 25.4692 46.8048 25.7667C47.0023 26.0666 47.1145 26.4836 47.3169 26.7665C47.3852 26.8665 47.4705 26.9397 47.5534 27.0177C47.5095 25.7764 47.3559 24.5376 47.0925 23.3134C47.0803 23.2939 47.0681 23.2768 47.056 23.2573C46.8584 22.9574 46.6389 22.6915 46.3634 22.5574C46.0927 22.416 45.7562 22.4428 45.4684 22.3501C45.1831 22.255 44.9441 22.0599 44.71 21.8429C44.4807 21.6185 44.2588 21.3771 44.0711 21.0138C44.0857 20.9747 44.0979 20.9333 44.1125 20.8918C44.4564 20.7918 44.7588 20.8284 45.0514 20.8967C45.3416 20.9747 45.6245 21.0894 45.8635 21.3259C46.1024 21.5673 46.2878 21.9404 46.5292 22.155C46.6341 22.255 46.7487 22.3209 46.8682 22.3843C46.5512 21.1723 46.1171 19.9773 45.5684 18.819C45.5586 18.8336 45.5464 18.8458 45.5367 18.8604C45.4903 18.8117 45.4416 18.7653 45.3952 18.7166C45.1514 18.4751 44.8978 18.2727 44.6222 18.2118C44.3466 18.141 44.0467 18.2508 43.7687 18.2288C43.4907 18.2044 43.2322 18.0703 42.9737 17.9118C42.7176 17.7435 42.464 17.5558 42.2152 17.2387C42.2177 17.1948 42.2226 17.151 42.225 17.1095C42.5152 16.9315 42.7956 16.8949 43.0785 16.8949C43.359 16.9022 43.6394 16.9485 43.9077 17.1241C44.1759 17.3046 44.4247 17.624 44.688 17.7752C44.8173 17.8557 44.9538 17.9021 45.0904 17.9313C45.0855 17.9069 45.0831 17.8801 45.0807 17.8557C44.193 16.2072 43.0639 14.6489 41.6909 13.2296C42.9907 14.4855 44.0954 15.8707 45.0075 17.346C45.0051 17.3021 44.9855 17.2509 44.9855 17.207C44.9636 16.89 44.949 16.5754 44.9782 16.2779C45.0733 15.6951 45.2318 15.1318 45.6635 14.6562C45.7098 14.6733 45.7562 14.6904 45.8025 14.7074C46.261 15.5146 46.3804 16.2194 46.3829 16.8632C46.3634 17.1778 46.2927 17.4655 46.1976 17.7411C46.1195 18.0264 45.9781 18.2776 45.8025 18.5093C45.7781 18.5434 45.7537 18.5751 45.7269 18.6093C46.2488 19.6018 46.6877 20.6309 47.0413 21.6819C47.0438 21.6722 47.0413 21.66 47.0438 21.6478C47.1096 21.3186 47.1779 20.9894 47.2827 20.6845C47.5266 20.0968 47.8241 19.5384 48.3655 19.1214C48.407 19.1482 48.4484 19.1726 48.4899 19.1994C48.7362 20.1261 48.6777 20.8845 48.5143 21.5527C48.4167 21.8746 48.268 22.1599 48.1021 22.4282C47.9509 22.7086 47.7436 22.9427 47.5095 23.15C47.5022 23.1549 47.4949 23.1622 47.49 23.1671C47.7583 24.2108 47.9485 25.2716 48.0558 26.3422C48.1997 26.0276 48.346 25.7155 48.5216 25.435C48.9166 24.8741 49.3532 24.3498 49.997 24.0133C50.0311 24.0474 50.0652 24.0816 50.0994 24.1157C50.114 25.1204 49.8628 25.891 49.5263 26.5495C49.3434 26.8641 49.1215 27.1299 48.8849 27.3737C48.6777 27.6127 48.4265 27.7932 48.1607 27.9541C48.1875 29.0101 48.1387 30.0709 48.0095 31.1244C48.2241 30.8512 48.4362 30.5757 48.6703 30.3391C49.2142 29.8417 49.7897 29.3832 50.5213 29.1466C50.5481 29.1881 50.5725 29.2296 50.5993 29.271C50.3652 30.3026 49.9116 31.0463 49.3995 31.6536C49.1337 31.9413 48.8386 32.1706 48.5338 32.373C48.2899 32.5559 48.0168 32.6729 47.7388 32.7778C47.5315 33.8069 47.2462 34.8238 46.8852 35.8236C47.1608 35.6042 47.4315 35.3798 47.7168 35.192C48.4045 34.7897 49.1093 34.4287 49.9189 34.3214C49.936 34.3678 49.9506 34.4141 49.9677 34.4604C49.4678 35.4676 48.8142 36.1382 48.129 36.6552C47.7802 36.8966 47.4169 37.0698 47.0486 37.2161C46.7804 37.338 46.4999 37.3917 46.2219 37.4429C45.783 38.4037 45.266 39.3402 44.6758 40.2425C45.0026 40.0864 45.327 39.9206 45.6537 39.7986C46.4731 39.5304 47.2974 39.2987 48.1631 39.3353C48.168 39.3865 48.1729 39.4353 48.1777 39.4865C47.4047 40.4132 46.5487 40.9619 45.7001 41.3472C45.2733 41.5203 44.8465 41.6227 44.4222 41.6959C44.1442 41.7569 43.8711 41.7471 43.5955 41.7495C43.1371 42.3348 42.642 42.9006 42.1153 43.4468C41.8373 43.1688 41.5568 42.8884 41.2788 42.6104C41.886 42.0251 42.4494 41.4081 42.9712 40.7692C42.9981 40.5595 43.0078 40.3571 42.9785 40.1644C42.9273 39.7572 42.6957 39.406 42.5835 39.0256C42.4762 38.6427 42.4689 38.2379 42.4737 37.8282C42.4859 37.4161 42.5128 37.0039 42.6444 36.5479C42.6761 36.5333 42.7152 36.5187 42.7542 36.504Z" fill="white"/>
<path d="M32.5631 15.0074C31.9778 16.6413 30.8999 18.0679 29.327 19.2945C28.5247 19.9212 27.7687 20.3821 27.0298 20.7894V25.4838C28.7027 24.7132 30.2659 23.7962 31.5925 22.555V41.9105H36.7283V15.0074H32.5631Z" fill="white"/>
</svg>
