<svg width="29" height="46" viewBox="0 0 29 46" fill="none" xmlns="http://www.w3.org/2000/svg">
<path d="M24.3961 45.5775C24.3807 45.5775 24.3653 45.5769 24.3498 45.5759C23.9854 45.5506 23.7104 45.2348 23.7355 44.8703L24.0102 40.8988C22.6333 40.8186 21.4121 40.5004 20.3647 39.9547C20.3213 39.9693 20.2756 39.9794 20.2284 39.9848C19.8898 40.0229 11.8927 40.9168 8.10207 40.9168C7.19016 40.9168 6.3831 40.8682 5.68091 40.7934L5.96268 44.8704C5.98782 45.2349 5.71283 45.5507 5.34842 45.576C4.98392 45.5996 4.66801 45.3261 4.64288 44.9617L4.34161 40.6018C2.92382 40.3428 2.19225 40.0151 2.14278 39.9925C1.95052 39.9044 1.81197 39.7297 1.76999 39.5224C0.768818 34.5756 0.637146 28.1404 0.849691 26.7482C1.12344 24.9554 2.42844 23.4798 4.17448 22.9892C4.18268 22.987 4.19088 22.9848 4.19909 22.9828L9.78285 21.6431L9.70974 21.4947C9.42523 20.9173 9.44172 20.2649 9.71274 19.7258C8.61985 18.5565 8.02517 17.3245 7.94077 16.0543C7.21838 15.864 6.57518 15.3544 6.09753 14.584C5.64369 13.8519 5.37267 12.9363 5.37267 12.1348C5.37267 11.195 5.77413 10.3703 6.4466 9.92859C6.88245 9.64231 7.39229 9.53225 7.93027 9.60042V5.39749C7.93027 3.96718 8.88673 2.58466 10.5542 1.60448C10.8692 1.41954 11.2744 1.52458 11.4597 1.83952C11.6448 2.15445 11.5395 2.55979 11.2246 2.745C9.97176 3.4815 9.25317 4.44827 9.25317 5.39749V7.76724C10.2196 6.84862 10.3777 5.59143 10.3853 5.5259C10.407 5.33884 10.5076 5.16845 10.6615 5.06006C10.8154 4.95159 11.0085 4.91216 11.1919 4.95485C11.9134 5.12189 13.977 5.55518 14.8492 5.55518C15.7187 5.55518 17.6723 5.1233 18.3516 4.95688C18.5368 4.91146 18.7327 4.94823 18.889 5.05795C19.0452 5.16748 19.1463 5.33911 19.1666 5.5289C19.1744 5.59619 19.3479 6.97412 20.4451 7.89873V5.39749C20.4451 4.52314 19.8169 3.61229 18.7216 2.89836C17.6139 2.1765 16.1663 1.7455 14.8491 1.7455C14.3375 1.7455 13.8072 1.809 13.2727 1.93415C12.9168 2.01714 12.561 1.79657 12.4778 1.44088C12.3945 1.0852 12.6154 0.729343 12.971 0.646C13.6043 0.497836 14.2362 0.422607 14.8491 0.422607C18.1151 0.422607 21.7679 2.55018 21.7679 5.39749V9.60042C22.3061 9.53225 22.8157 9.64231 23.2516 9.92859C23.9241 10.3703 24.3255 11.195 24.3255 12.1348C24.3255 13.5874 23.4356 15.6248 21.7561 16.0562C21.6914 16.9404 21.3331 18.236 20.0666 19.639V21.6794L21.3966 21.9985C21.7518 22.0838 21.9708 22.4408 21.8855 22.796C21.8003 23.1512 21.4437 23.3705 21.088 23.2849L19.2508 22.8441C18.9534 22.7727 18.7437 22.5068 18.7437 22.2009V20.8613C18.3879 21.1402 17.9913 21.4201 17.5497 21.6983V23.823L23.9091 25.3847C23.9161 25.3864 23.9232 25.3882 23.9302 25.3902C25.0487 25.7045 25.8847 26.6496 26.0599 27.7982C26.2153 28.8157 26.1522 30.9661 25.9046 33.2082L27.0748 34.2092C27.6673 31.6435 27.8292 28.8167 27.5374 26.9264C27.3422 25.6623 26.4165 24.6194 25.1775 24.2663L23.5903 23.8856C23.2351 23.8004 23.0161 23.4433 23.1014 23.088C23.1866 22.7329 23.5433 22.5136 23.8989 22.5992L25.499 22.9831C25.5072 22.985 25.5155 22.9872 25.5236 22.9895C27.2665 23.4793 28.5701 24.9454 28.8447 26.7246C29.1557 28.7396 28.9926 31.6197 28.419 34.2409C28.0395 35.9748 27.1464 39.0367 25.3575 40.5897L25.0552 44.962C25.0312 45.3106 24.7406 45.5775 24.3961 45.5775ZM2.99649 38.9028C3.64982 39.1244 5.35847 39.5939 8.10216 39.5939C10.9124 39.5939 16.2735 39.0711 18.7574 38.8121C18.3375 38.4146 17.9629 37.9621 17.6364 37.4564H12.6421C12.2767 37.4564 11.9806 37.1603 11.9806 36.7949C11.9806 36.4295 12.2767 36.1335 12.6421 36.1335H16.9241L16.1775 34.6184H4.55698C4.4492 34.6184 4.34461 34.5944 4.25262 34.548C4.25218 34.5478 4.25191 34.5477 4.25147 34.5475C4.20773 34.5254 4.16681 34.4986 4.12924 34.4676C4.00012 34.3614 3.91105 34.2066 3.892 34.0273C3.89191 34.0266 3.89182 34.0259 3.89174 34.0254C3.87577 33.8718 3.57362 30.9362 3.5738 28.9968C3.5738 28.5172 3.59232 28.0986 3.63818 27.798C3.81342 26.6496 4.64949 25.7044 5.76795 25.3901C5.77598 25.3879 5.78409 25.3857 5.79212 25.3838L11.0081 24.1293L10.3824 22.8596L4.52064 24.266C3.27932 24.6198 2.35224 25.6712 2.15733 26.9478C2.00229 27.9634 2.06287 32.1083 2.56637 36.1334H9.99619C10.3616 36.1334 10.6576 36.4295 10.6576 36.7948C10.6576 37.1602 10.3616 37.4563 9.99619 37.4563H2.74937C2.82451 37.948 2.90662 38.4321 2.99649 38.9028ZM15.7248 30.7073L18.3535 36.0414C19.4866 38.3404 21.5496 39.5348 24.487 39.5938C24.9222 39.2195 25.3141 38.7055 25.6619 38.0926L16.5257 30.277L15.7248 30.7073ZM17.7759 29.6054L26.2541 36.8582C26.414 36.4664 26.5607 36.053 26.694 35.6241L18.9322 28.9843L17.7759 29.6054ZM8.09343 33.2955H15.5255L11.6077 25.3457L6.11482 26.6667C5.50073 26.844 5.04257 27.3651 4.94599 27.9976C4.90992 28.2338 4.89493 28.5765 4.89484 28.9821C4.89475 30.2499 5.04124 32.1316 5.14963 33.2954H6.77062V28.059C6.77062 27.6936 7.06668 27.3975 7.43207 27.3975C7.79745 27.3975 8.09352 27.6936 8.09352 28.059V33.2955H8.09343ZM22.9278 30.6614L24.6797 32.1601C24.8509 30.229 24.8535 28.6603 24.7523 27.9977C24.6557 27.3648 24.197 26.8434 23.5822 26.6665L17.5497 25.185V26.0608L21.6048 29.5298V28.0591C21.6048 27.6937 21.9008 27.3976 22.2662 27.3976C22.6316 27.3976 22.9277 27.6937 22.9277 28.0591V30.6614H22.9278ZM14.5821 28.3889L15.1396 29.52L17.8538 28.0619L16.8059 27.1656L14.5821 28.3889ZM12.5663 24.2986L13.9968 27.201L16.2268 25.9743V24.3562C16.2266 24.3468 16.2266 24.3374 16.2268 24.328V20.8533C16.2268 20.6671 16.1494 20.4901 16.0145 20.3675C15.6196 20.0087 14.6303 19.4017 13.4255 19.4017C12.519 19.4017 11.5668 19.7462 11.0948 20.0866C10.8365 20.2728 10.7531 20.6191 10.8964 20.9099L11.1187 21.3612C11.7541 20.9425 12.448 20.7246 13.1608 20.7246C13.4168 20.7246 13.6734 20.7527 13.9231 20.8082C14.2797 20.8874 14.5045 21.2407 14.4252 21.5973C14.3461 21.9539 13.9924 22.1788 13.6361 22.0995C13.4804 22.0649 13.3206 22.0474 13.1608 22.0474C12.6556 22.0474 12.1691 22.2196 11.7097 22.5603L12.554 24.2735C12.5584 24.2817 12.5624 24.2901 12.5663 24.2986ZM13.4255 18.0787C14.9294 18.0787 16.2393 18.7841 16.9041 19.3883C17.1452 19.6072 17.3258 19.8821 17.4339 20.1846C18.8064 19.2132 20.4451 17.6524 20.4451 15.7386V14.9268C19.9466 15.1951 19.3104 15.3261 18.5126 15.3261C17.5486 15.3261 16.8204 15.1347 16.286 14.7409C15.7495 14.3456 15.4208 13.7615 15.3047 12.9998H14.3937C14.2776 13.7615 13.9489 14.3456 13.4124 14.7409C12.878 15.1347 12.1498 15.3261 11.1857 15.3261C10.388 15.3261 9.75181 15.1951 9.25326 14.9268V15.7386C9.25326 16.7657 9.72544 17.7937 10.6581 18.7997C11.3405 18.4145 12.369 18.0787 13.4255 18.0787ZM21.7679 10.9452V14.6048C22.3856 14.2162 23.0026 13.3139 23.0026 12.1348C23.0026 11.642 22.8243 11.2307 22.5254 11.0343C22.2857 10.8768 22.0091 10.8837 21.7679 10.9452ZM6.69557 12.1348C6.69557 13.3139 7.31257 14.2162 7.93027 14.6048V10.9452C7.68933 10.8839 7.41258 10.877 7.17278 11.0344C6.87398 11.2307 6.69557 11.642 6.69557 12.1348ZM16.6009 12.7322C16.7089 13.6622 17.2502 14.0032 18.5126 14.0032C19.775 14.0032 20.3164 13.6622 20.4244 12.7322C19.5801 12.5779 17.4451 12.5779 16.6009 12.7322ZM9.27389 12.7322C9.38193 13.6622 9.92326 14.0032 11.1857 14.0032C12.448 14.0032 12.9894 13.6622 13.0974 12.7322C12.2532 12.5779 10.1182 12.5779 9.27389 12.7322ZM14.3501 11.6769H15.3481C15.2708 11.3802 15.409 11.0598 15.6946 10.9182L18.2943 9.62908C18.6215 9.46672 19.0184 9.60042 19.1808 9.92779C19.3431 10.2551 19.2093 10.6519 18.882 10.8142L17.8964 11.303C18.0958 11.2968 18.3023 11.2937 18.5126 11.2937C19.22 11.2937 19.884 11.3297 20.382 11.3951C20.4021 11.3977 20.4232 11.4005 20.445 11.4034V9.47915C18.8909 8.67739 18.2567 7.25686 18.0061 6.39425C17.1546 6.5828 15.6876 6.8779 14.8491 6.8779C14.0009 6.8779 12.4345 6.57469 11.5473 6.38719C11.3059 7.22123 10.7043 8.58382 9.25308 9.39996V11.4033C9.27495 11.4004 9.29603 11.3977 9.31614 11.3951C9.81416 11.3296 10.4782 11.2936 11.1856 11.2936C11.3959 11.2936 11.6025 11.2967 11.8018 11.3029L10.8161 10.8141C10.4888 10.6519 10.3551 10.255 10.5173 9.9277C10.6797 9.60042 11.0762 9.46654 11.4038 9.62899L14.0035 10.9181C14.2893 11.0598 14.4275 11.3802 14.3501 11.6769Z" fill="white"/>
</svg>
