<svg width="30" height="30" viewBox="0 0 30 30" fill="none" xmlns="http://www.w3.org/2000/svg">
<path d="M29.1211 14.1211H28.5878V14.0586C28.5878 11.8639 27.3544 10.1006 25.7474 9.19624C26.6219 8.43063 27.1758 7.30751 27.1758 6.05667C27.1758 3.75526 25.3033 1.88278 23.0019 1.88278C20.7005 1.88278 18.828 3.75526 18.828 6.05667C18.828 7.30751 19.3819 8.43063 20.2563 9.19624C18.6456 10.1022 17.4161 11.8698 17.4161 14.0586V14.1211H9.63936C8.83209 13.5299 7.83783 13.1797 6.76277 13.1797C4.07204 13.1797 1.88278 15.3687 1.88278 18.0597C1.88278 19.6447 2.6429 21.0553 3.81752 21.9473C1.55319 23.1072 0 25.4656 0 28.1797V29.1211C0 29.6066 0.393448 30 0.878906 30H13.1172C13.6027 30 13.9961 29.6066 13.9961 29.1211V28.1797C13.9961 27.505 13.8998 26.8522 13.7208 26.2344H28.2422V27.2383C28.2422 27.7235 28.6356 28.1172 29.1211 28.1172C29.6066 28.1172 30 27.7235 30 27.2383V15C30 14.5145 29.6066 14.1211 29.1211 14.1211ZM20.5859 6.05667C20.5859 4.72458 21.6696 3.64059 23.0019 3.64059C24.334 3.64059 25.418 4.72458 25.418 6.05667C25.418 7.38876 24.3343 8.47275 23.0019 8.47275C21.6698 8.47275 20.5859 7.38876 20.5859 6.05667ZM19.1739 14.0586C19.1739 11.911 20.9223 10.2306 23.0019 10.2306C25.0756 10.2306 26.83 11.9048 26.83 14.0586V14.1211H19.1739V14.0586ZM6.76277 14.9375C8.48419 14.9375 9.88472 16.338 9.88472 18.0597C9.88472 19.7811 8.48419 21.1816 6.76277 21.1816C5.04112 21.1816 3.64059 19.7811 3.64059 18.0597C3.64059 16.338 5.04112 14.9375 6.76277 14.9375ZM12.2383 28.2422H1.75781V28.1797C1.75781 25.2903 4.10866 22.9395 6.99806 22.9395C9.88747 22.9395 12.2383 25.2903 12.2383 28.1797V28.2422ZM9.88586 21.8056C10.9586 20.9097 11.6425 19.5632 11.6425 18.0597C11.6425 17.276 11.456 16.5358 11.1264 15.8789H28.2422V24.4766H12.9334C12.2049 23.3134 11.1447 22.3782 9.88586 21.8056Z" fill="#6D6AFE"/>
<path d="M3.2325 11.6425H15.9414C16.6418 11.6425 17.0618 10.8598 16.6727 10.2761L14.9375 7.67349V3.2325C14.9375 1.46072 13.5081 0 11.705 0H3.2325C1.43898 0 0 1.4518 0 3.2325V8.41026C0 10.1868 1.43372 11.6425 3.2325 11.6425ZM1.75781 3.2325C1.75781 2.42798 2.40509 1.75781 3.2325 1.75781H11.705C12.5242 1.75781 13.1797 2.41699 13.1797 3.2325V7.93945C13.1797 8.11295 13.231 8.28255 13.3273 8.42697L14.2992 9.88472H3.2325C2.41333 9.88472 1.75781 9.22554 1.75781 8.41003V3.2325Z" fill="#6D6AFE"/>
<path d="M4.64447 5.0528H10.293C10.7783 5.0528 11.172 4.65912 11.172 4.17389C11.172 3.68843 10.7783 3.29498 10.293 3.29498H4.64447C4.15924 3.29498 3.76556 3.68843 3.76556 4.17389C3.76556 4.65912 4.15901 5.0528 4.64447 5.0528Z" fill="#6D6AFE"/>
<path d="M4.64447 8.34778H7.46887C7.9541 8.34778 8.34778 7.9541 8.34778 7.46887C8.34778 6.98341 7.9541 6.58997 7.46887 6.58997H4.64447C4.15924 6.58997 3.76556 6.98341 3.76556 7.46887C3.76556 7.9541 4.15901 8.34778 4.64447 8.34778Z" fill="#6D6AFE"/>
</svg>
