<svg width="503" height="510" viewBox="0 0 503 510" fill="none" xmlns="http://www.w3.org/2000/svg">
<g filter="url(#filter0_d)">
<path fill-rule="evenodd" clip-rule="evenodd" d="M281.751 53.1198H346.887C349.12 53.1198 350.731 54.9464 350.468 57.1811L344.069 111.527C343.805 113.762 341.764 115.589 339.531 115.589H274.395C272.162 115.589 270.55 113.762 270.814 111.527L277.213 57.1811C277.476 54.9492 279.518 53.1198 281.751 53.1198Z" fill="#783FD3"/>
<path fill-rule="evenodd" clip-rule="evenodd" d="M340.932 52.1536V93.905C340.932 102.15 333.662 108.909 324.791 108.909H202.111C193.24 108.909 185.97 102.158 185.97 93.905V52.1536H340.932Z" fill="white"/>
<path fill-rule="evenodd" clip-rule="evenodd" d="M202.111 36H324.791C333.67 36 340.932 43.2704 340.932 52.1537V57.4115H185.97V52.1537C185.97 43.2704 193.235 36 202.111 36Z" fill="url(#paint0_linear)"/>
<path fill-rule="evenodd" clip-rule="evenodd" d="M201.254 43.8228C203.65 43.8228 205.592 45.7661 205.592 48.1645C205.592 50.563 203.65 52.5062 201.254 52.5062C198.857 52.5062 196.913 50.563 196.913 48.1645C196.913 45.7661 198.857 43.8228 201.254 43.8228Z" fill="white"/>
<path d="M219.267 51.2357C220.961 49.5401 220.961 46.7912 219.267 45.0956C217.573 43.4001 214.826 43.4001 213.132 45.0956C211.438 46.7912 211.438 49.5401 213.132 51.2357C214.826 52.9312 217.573 52.9312 219.267 51.2357Z" fill="white"/>
<path d="M235.379 49.176C235.93 46.8424 234.486 44.504 232.154 43.9529C229.823 43.4019 227.486 44.847 226.936 47.1806C226.385 49.5141 227.829 51.8526 230.161 52.4036C232.492 52.9546 234.829 51.5096 235.379 49.176Z" fill="white"/>
<path opacity="0.2" fill-rule="evenodd" clip-rule="evenodd" d="M241.395 70.9501H309.352C311.049 70.9501 312.439 72.1633 312.439 73.6373V79.6335C312.439 81.1076 311.046 82.3207 309.352 82.3207H241.395C239.703 82.3207 238.307 81.1131 238.307 79.6335V73.6373C238.307 72.1577 239.694 70.9501 241.395 70.9501Z" fill="#5988FA"/>
<path opacity="0.2" fill-rule="evenodd" clip-rule="evenodd" d="M239.767 87.9338H333.501C334.305 87.9338 334.965 88.5917 334.965 89.3995V92.6669C334.965 93.472 334.308 94.1327 333.501 94.1327H239.767C238.963 94.1327 238.303 93.4747 238.303 92.6669V89.3995C238.305 88.5917 238.963 87.9338 239.767 87.9338Z" fill="#5988FA"/>
<path opacity="0.2" fill-rule="evenodd" clip-rule="evenodd" d="M213.269 61.1785C225.058 61.1785 234.613 70.7419 234.613 82.54C234.613 94.3381 225.058 103.902 213.269 103.902C201.481 103.902 191.925 94.3381 191.925 82.54C191.925 70.7419 201.481 61.1785 213.269 61.1785ZM213.269 72.5769C207.772 72.5769 203.317 77.0379 203.317 82.5372C203.317 88.0393 207.775 92.4976 213.269 92.4976C218.767 92.4976 223.224 88.0365 223.224 82.5372C223.224 77.0379 218.767 72.5769 213.269 72.5769Z" fill="url(#paint1_linear)"/>
<path fill-rule="evenodd" clip-rule="evenodd" d="M213.269 69.179C220.642 69.179 226.62 75.1613 226.62 82.54C226.62 89.9187 220.642 95.901 213.269 95.901C205.897 95.901 199.919 89.9187 199.919 82.54C199.919 75.1613 205.897 69.179 213.269 69.179ZM213.269 74.9143C209.062 74.9143 205.65 78.3288 205.65 82.54C205.65 86.7512 209.062 90.1657 213.269 90.1657C217.477 90.1657 220.889 86.7512 220.889 82.54C220.889 78.3288 217.477 74.9143 213.269 74.9143Z" fill="url(#paint2_linear)"/>
<path fill-rule="evenodd" clip-rule="evenodd" d="M319.133 59.5796H339.95C341.952 59.5796 343.589 61.2174 343.589 63.2217V111.946C343.589 113.951 341.952 115.589 339.95 115.589H273.973C271.971 115.589 270.334 113.951 270.334 111.946V101.145V63.2245V56.5204C270.334 53.389 272.894 50.8295 276.023 50.8295H303.508C306.637 50.8295 308.052 51.9677 309.763 54.5855C312.687 59.0577 313.333 59.5796 319.133 59.5796Z" fill="url(#paint3_linear)"/>
<path opacity="0.2" fill-rule="evenodd" clip-rule="evenodd" d="M224.159 104.707V108.909H202.111C193.24 108.909 185.97 102.158 185.97 93.9078V87.8145H207.281C216.565 87.8145 224.159 95.4152 224.159 104.707Z" fill="#5988FA"/>
<path fill-rule="evenodd" clip-rule="evenodd" d="M72.7202 117.79H360.49C374.98 117.79 386.835 130.329 386.835 145.547V306.587C386.835 321.805 374.932 334.345 360.49 334.345H72.7202C58.2773 334.345 46.3751 321.855 46.3751 306.587V145.547C46.3751 130.282 58.2329 117.79 72.7202 117.79Z" fill="url(#paint4_linear)"/>
<path fill-rule="evenodd" clip-rule="evenodd" d="M63.27 216.128C59.8722 216.128 57.1151 218.887 57.1151 222.288C57.1151 225.688 59.8722 228.448 63.27 228.448C66.6707 228.448 69.425 225.688 69.425 222.288C69.425 218.884 66.6679 216.128 63.27 216.128ZM67.6526 333.82C67.5694 280.082 67.3003 237.756 67.2975 237.45C67.2864 235.121 65.3947 233.239 63.0675 233.25C60.7404 233.259 58.8597 235.155 58.8681 237.484C58.8708 237.784 59.1343 278.466 59.2398 330.394C61.8027 332.016 64.6375 333.193 67.6526 333.82ZM93.9367 196.196C90.5361 196.196 87.7817 198.953 87.7817 202.356C87.7817 205.759 90.5361 208.516 93.9367 208.516C97.3373 208.516 100.092 205.759 100.092 202.356C100.092 198.955 97.3346 196.196 93.9367 196.196ZM98.3414 334.345C98.3082 276.295 97.967 217.866 97.9642 217.521C97.9559 215.192 96.0614 213.313 93.7342 213.321C91.407 213.332 89.5292 215.228 89.5375 217.555C89.5403 217.899 89.8926 276.592 89.9481 334.345H98.3414ZM124.606 176.264C121.208 176.264 118.451 179.023 118.451 182.424C118.451 185.828 121.208 188.584 124.606 188.584C128.007 188.584 130.761 185.825 130.761 182.424C130.761 179.023 128.004 176.264 124.606 176.264ZM129.008 334.345C129.064 275.468 128.636 197.978 128.634 197.59C128.623 195.26 126.728 193.381 124.404 193.389C122.077 193.398 120.199 195.297 120.207 197.623C120.21 198.009 120.654 275.973 120.623 334.342H129.008V334.345ZM155.273 156.335C151.872 156.335 149.118 159.092 149.118 162.495C149.118 165.896 151.872 168.655 155.273 168.655C158.673 168.655 161.428 165.896 161.428 162.495C161.425 159.094 158.671 156.335 155.273 156.335ZM159.63 334.345C159.847 280.271 159.303 178.094 159.3 177.66C159.292 175.331 157.398 173.452 155.07 173.46C152.743 173.469 150.865 175.367 150.874 177.694C150.876 178.13 151.437 281.259 151.254 334.345H159.63ZM185.94 136.403C182.542 136.403 179.785 139.163 179.785 142.563C179.785 145.967 182.542 148.726 185.94 148.726C189.34 148.726 192.095 145.964 192.095 142.563C192.095 139.163 189.34 136.403 185.94 136.403ZM190.133 334.345C190.697 300.599 189.97 158.228 189.967 157.726C189.959 155.397 188.061 153.517 185.737 153.526C183.41 153.534 181.532 155.43 181.543 157.759C181.543 158.267 182.306 304.069 181.765 334.342H190.133V334.345ZM216.606 136.403C213.206 136.403 210.451 139.163 210.451 142.563C210.451 145.967 213.208 148.723 216.606 148.723C220.007 148.723 222.761 145.964 222.761 142.563C222.761 139.163 220.007 136.403 216.606 136.403ZM220.803 334.345C221.366 300.599 220.637 158.231 220.637 157.729C220.628 155.397 218.736 153.52 216.407 153.528C214.079 153.537 212.202 155.433 212.21 157.762C212.213 158.273 212.975 304.064 212.432 334.345H220.803ZM247.273 156.335C243.872 156.335 241.118 159.092 241.118 162.495C241.118 165.896 243.872 168.655 247.273 168.655C250.674 168.655 253.428 165.896 253.428 162.495C253.431 159.094 250.674 156.335 247.273 156.335ZM251.63 334.345C251.847 280.271 251.303 178.094 251.3 177.66C251.292 175.331 249.395 173.449 247.07 173.46C244.743 173.469 242.865 175.367 242.874 177.694C242.874 178.13 243.437 281.259 243.254 334.345H251.63ZM277.94 176.264C274.539 176.264 271.785 179.023 271.785 182.424C271.785 185.828 274.542 188.584 277.94 188.584C281.34 188.584 284.097 185.825 284.097 182.424C284.097 179.023 281.34 176.264 277.94 176.264ZM282.347 334.345C282.403 275.468 281.973 197.978 281.973 197.59C281.962 195.26 280.07 193.381 277.74 193.389C275.413 193.398 273.535 195.297 273.543 197.623C273.546 198.009 273.99 275.973 273.959 334.342H282.347V334.345ZM308.609 216.128C305.208 216.128 302.454 218.887 302.454 222.288C302.454 225.688 305.208 228.448 308.609 228.448C312.01 228.448 314.764 225.688 314.764 222.288C314.764 218.884 312.007 216.128 308.609 216.128ZM312.992 334.345C312.908 280.357 312.639 237.759 312.637 237.453C312.628 235.124 310.734 233.245 308.407 233.253C306.082 233.261 304.202 235.157 304.21 237.487C304.213 237.795 304.493 280.543 304.593 334.345H312.992ZM339.276 236.06C335.875 236.06 333.121 238.816 333.121 242.22C333.121 245.62 335.875 248.38 339.276 248.38C342.674 248.38 345.433 245.62 345.433 242.22C345.431 238.816 342.674 236.06 339.276 236.06ZM343.622 334.345C343.514 286.622 343.306 257.652 343.306 257.382C343.295 255.053 341.4 253.174 339.073 253.182C336.746 253.19 334.868 255.086 334.877 257.416C334.877 257.685 335.093 286.736 335.212 334.345H343.622ZM369.945 255.986C366.545 255.986 363.79 258.745 363.79 262.146C363.79 265.547 366.547 268.309 369.945 268.309C373.346 268.309 376.1 265.549 376.1 262.146C376.097 258.745 373.343 255.986 369.945 255.986ZM374.228 330.22C374.12 293.36 373.973 277.533 373.973 277.311C373.964 274.982 372.07 273.103 369.743 273.111C367.416 273.12 365.538 275.016 365.546 277.345C365.546 277.575 365.704 294.442 365.826 333.765C368.841 333.098 371.676 331.882 374.228 330.22Z" fill="#6D6AFD"/>
<path opacity="0.5" fill-rule="evenodd" clip-rule="evenodd" d="M46.3751 258.917C68.1962 251.758 127.818 235.443 145.126 221.488C168.69 202.489 190.577 182.255 221.471 183.715C248.188 184.978 266.814 203.414 287.412 217.388C307.347 230.91 329.263 239.974 353.613 239.838C366.645 239.766 377.376 237.106 386.837 232.767V244.44C377.531 248.305 366.819 250.628 353.666 250.703C325.798 250.856 304.365 237.442 283.426 223.218C263.78 209.871 244.563 196.526 220.875 195.408C194.838 194.178 174.115 211.989 152.477 229.436C139.404 239.977 93.8535 269.414 46.3806 262.993V258.917H46.3751Z" fill="#6566E3"/>
<path fill-rule="evenodd" clip-rule="evenodd" d="M46.3751 251.775C63.9912 254.023 84.7167 248.332 103.135 240.351C144.635 222.371 181.884 174.701 221.469 176.572C248.185 177.835 266.811 196.271 287.409 210.245C307.344 223.767 329.26 232.831 353.611 232.695C366.642 232.623 377.373 229.963 386.835 225.625V238.655C377.529 242.844 366.816 245.42 353.663 245.493C325.795 245.648 304.362 230.297 283.423 216.075C263.777 202.728 244.56 190.488 220.872 189.37C184.555 187.654 146.033 232.523 106.028 248.116C88.1534 255.084 67.1561 260.008 46.3778 257.604V251.775H46.3751Z" fill="#00FFFF"/>
<path opacity="0.5" fill-rule="evenodd" clip-rule="evenodd" d="M216.606 196.421C232.966 196.421 246.227 209.693 246.227 226.066C246.227 242.439 232.966 255.714 216.606 255.714C200.246 255.714 186.985 242.442 186.985 226.066C186.985 209.693 200.246 196.421 216.606 196.421ZM205.899 214.035V238.322L234 226.177L205.899 214.035ZM216.606 203.613C204.216 203.613 194.169 213.665 194.169 226.069C194.169 238.469 204.216 248.524 216.606 248.524C228.996 248.524 239.043 238.472 239.043 226.069C239.043 213.665 228.996 203.613 216.606 203.613Z" fill="white"/>
<path opacity="0.5" fill-rule="evenodd" clip-rule="evenodd" d="M75.9322 296.968H357.283C359.044 296.968 360.487 298.412 360.487 300.172V307.326C360.487 309.088 359.047 310.532 357.283 310.532H75.9322C74.1709 310.532 72.7285 309.091 72.7285 307.326V300.172C72.7285 298.409 74.1681 296.968 75.9322 296.968Z" fill="white"/>
<path fill-rule="evenodd" clip-rule="evenodd" d="M77.5936 297.493H201.639C203.625 297.493 205.25 298.831 205.25 300.452V307.051C205.25 308.669 203.617 310.007 201.639 310.007H77.5936C75.616 310.007 73.985 308.678 73.985 307.051V300.452C73.985 298.823 75.6076 297.493 77.5936 297.493Z" fill="white"/>
<path opacity="0.5" fill-rule="evenodd" clip-rule="evenodd" d="M223.921 117.79V154.769C223.921 162.265 217.308 168.414 209.242 168.414H72.9062C64.8401 168.414 58.2274 162.276 58.2274 154.769V117.79H223.921Z" fill="url(#paint5_linear)"/>
<path opacity="0.5" fill-rule="evenodd" clip-rule="evenodd" d="M386.837 196.249H273.937C266.692 196.249 260.751 190.733 260.751 183.99V149.881C260.751 142.622 266.686 136.684 273.937 136.684H387.273C386.99 139.474 386.837 142.455 386.837 145.55V196.249Z" fill="url(#paint6_linear)"/>
<path opacity="0.5" fill-rule="evenodd" clip-rule="evenodd" d="M373.26 236.89V277.359C373.26 285.348 366.453 291.899 358.157 291.899H241.248C232.952 291.899 226.145 285.356 226.145 277.359V236.89C226.145 228.278 232.941 221.233 241.248 221.233H358.157C366.464 221.233 373.26 228.276 373.26 236.89Z" fill="url(#paint7_linear)"/>
<path fill-rule="evenodd" clip-rule="evenodd" d="M216.351 109.229V147.196C216.351 154.694 209.738 160.841 201.672 160.841H65.3393C57.2759 160.841 50.6605 154.703 50.6605 147.196V109.229C50.6605 101.148 57.2676 94.538 65.3393 94.538H201.672C209.747 94.538 216.351 101.148 216.351 109.229Z" fill="white"/>
<path fill-rule="evenodd" clip-rule="evenodd" d="M110.21 113.623H203.178C205.786 113.623 207.916 115.225 207.916 117.168V125.083C207.916 127.026 205.777 128.628 203.178 128.628H110.21C107.611 128.628 105.473 127.031 105.473 125.083V117.168C105.473 115.219 107.603 113.623 110.21 113.623Z" fill="#86E4FD"/>
<path fill-rule="evenodd" clip-rule="evenodd" d="M107.098 134.865H171.191C172.087 134.865 172.817 135.598 172.817 136.492V140.123C172.817 141.017 172.085 141.75 171.191 141.75H107.098C106.205 141.75 105.473 141.017 105.473 140.123V136.492C105.473 135.598 106.205 134.865 107.098 134.865Z" fill="#86E4FD"/>
<path opacity="0.2" d="M101.745 128.935C102.435 117.158 93.4537 107.051 81.6858 106.361C69.9178 105.67 59.819 114.658 59.1294 126.436C58.4398 138.214 67.4206 148.321 79.1885 149.011C90.9565 149.701 101.055 140.713 101.745 128.935Z" fill="#6D6AFD"/>
<path fill-rule="evenodd" clip-rule="evenodd" d="M93.5124 115.008C96.7549 118.254 98.7603 122.737 98.7603 127.686C98.7603 132.639 96.7549 137.119 93.5124 140.365L80.8446 127.686L93.5124 115.008Z" fill="url(#paint8_linear)"/>
<path fill-rule="evenodd" clip-rule="evenodd" d="M92.6996 140.909C89.4571 144.154 84.9775 146.161 80.0319 146.161C70.1379 146.161 62.1161 138.133 62.1161 128.231C62.1161 126.626 62.3297 125.069 62.7236 123.589L80.0319 128.231L92.6996 140.909Z" fill="url(#paint9_linear)"/>
<path fill-rule="evenodd" clip-rule="evenodd" d="M80.0318 109.218C84.9802 109.218 89.4571 111.225 92.6996 114.47L80.0318 127.148L62.7236 122.506C64.7678 114.853 71.7411 109.218 80.0318 109.218Z" fill="url(#paint10_linear)"/>
<path fill-rule="evenodd" clip-rule="evenodd" d="M417.18 142.305V176.417C417.18 183.151 411.238 188.673 403.993 188.673H281.507C274.262 188.673 268.32 183.157 268.32 176.417V142.305C268.32 135.046 274.256 129.108 281.507 129.108H403.993C411.246 129.108 417.18 135.046 417.18 142.305Z" fill="white"/>
<path fill-rule="evenodd" clip-rule="evenodd" d="M321.277 153.065C321.773 154.925 322.04 156.876 322.04 158.892C322.04 171.323 311.971 181.402 299.547 181.402C289.14 181.402 280.383 174.326 277.818 164.719L286.794 162.312C288.3 167.95 293.437 172.103 299.547 172.103C306.837 172.103 312.748 166.19 312.748 158.892C312.748 157.709 312.592 156.563 312.301 155.472L321.277 153.065Z" fill="#22D2FB"/>
<path fill-rule="evenodd" clip-rule="evenodd" d="M277.818 164.719C277.321 162.861 277.055 160.907 277.055 158.892C277.055 152.676 279.573 147.049 283.642 142.974L290.213 149.55C287.825 151.94 286.347 155.244 286.347 158.892C286.347 160.074 286.502 161.221 286.793 162.312L277.818 164.719Z" fill="#12A3EB"/>
<path fill-rule="evenodd" clip-rule="evenodd" d="M299.547 136.381C309.954 136.381 318.711 143.457 321.277 153.065L312.298 155.472C310.792 149.834 305.655 145.681 299.547 145.681C295.902 145.681 292.602 147.16 290.214 149.55L283.642 142.974C287.714 138.902 293.337 136.381 299.547 136.381Z" fill="#1C8DF3"/>
<path fill-rule="evenodd" clip-rule="evenodd" d="M326.694 141.142H406.981C407.785 141.142 408.442 141.802 408.442 142.605V145.869C408.442 146.672 407.782 147.332 406.981 147.332H326.694C325.892 147.332 325.232 146.674 325.232 145.869V142.605C325.232 141.8 325.89 141.142 326.694 141.142Z" fill="#86E4FD"/>
<path fill-rule="evenodd" clip-rule="evenodd" d="M326.694 155.172H406.981C407.785 155.172 408.442 155.833 408.442 156.635V159.897C408.442 160.699 407.782 161.36 406.981 161.36H326.694C325.892 161.36 325.232 160.702 325.232 159.897V156.635C325.232 155.827 325.89 155.172 326.694 155.172Z" fill="#86E4FD"/>
<path fill-rule="evenodd" clip-rule="evenodd" d="M326.694 170.451H372.924C373.729 170.451 374.386 171.112 374.386 171.914V175.176C374.386 175.975 373.723 176.639 372.924 176.639H326.697C325.898 176.639 325.235 175.981 325.235 175.176V171.914C325.232 171.109 325.89 170.451 326.694 170.451Z" fill="#86E4FD"/>
<path fill-rule="evenodd" clip-rule="evenodd" d="M380.829 227.421V267.887C380.829 275.876 374.023 282.427 365.726 282.427H248.815C240.519 282.427 233.712 275.884 233.712 267.887V227.421C233.712 218.809 240.508 211.764 248.815 211.764H365.723C374.034 211.764 380.829 218.809 380.829 227.421Z" fill="white"/>
<path fill-rule="evenodd" clip-rule="evenodd" d="M303.871 230.644V264.483C303.871 271.162 297.974 276.642 290.79 276.642H254.421C247.237 276.642 241.34 271.171 241.34 264.483V230.644C241.34 223.443 247.226 217.552 254.421 217.552H290.79C297.986 217.552 303.871 223.443 303.871 230.644Z" fill="#E5EFFF"/>
<path fill-rule="evenodd" clip-rule="evenodd" d="M373.204 230.644V264.483C373.204 271.162 367.307 276.642 360.123 276.642H323.754C316.57 276.642 310.673 271.171 310.673 264.483V230.644C310.673 223.443 316.559 217.552 323.754 217.552H360.123C367.318 217.552 373.204 223.443 373.204 230.644Z" fill="#E5EFFF"/>
<path fill-rule="evenodd" clip-rule="evenodd" d="M385.451 381.015C375.271 383.08 360.47 384.621 351.111 382.742C370.123 361.511 396.801 369.975 400.251 373.598C401.103 376.54 396.643 378.742 385.451 381.015Z" fill="#0A72CB"/>
<path fill-rule="evenodd" clip-rule="evenodd" d="M398.021 442.868C399.522 447.068 400.429 452.134 400.409 456.057C400.401 458.019 400.016 459.46 397.81 459.785C396.931 459.915 396.152 460.296 395.933 460.687C395.381 461.675 396.171 463.557 398.091 463.771C401.999 464.21 409.041 463.763 411.982 463.374C415.066 462.966 412.625 460.357 411.377 453.511C411.094 451.951 410.878 450.543 411.36 449.569C412.312 447.665 412.323 445.821 410.941 443.312C409.801 441.244 408.035 440.411 406.165 438.723C402.265 435.197 396.604 438.901 398.021 442.868Z" fill="url(#paint11_linear)"/>
<path fill-rule="evenodd" clip-rule="evenodd" d="M362.008 304.713C369.009 311.792 372.748 318.921 375.169 325.089C377.555 331.166 379.94 337.268 382.661 347.636C390.572 377.795 397.892 409.497 406.221 439.134C406.291 441.735 400.563 443.956 398.178 442.382C382.536 409.364 364.313 375.308 350.702 341.515C345.812 329.376 344.414 321.575 341.89 306.31L355.159 305.11L362.008 304.713Z" fill="url(#paint12_linear)"/>
<path fill-rule="evenodd" clip-rule="evenodd" d="M398.149 442.343C382.508 409.325 364.312 375.308 350.698 341.515C345.808 329.373 344.41 321.575 341.886 306.31L349.214 305.646L357.558 317.897C361.496 330.544 363.962 341.793 367.532 353.21C369.779 360.4 378.411 366.18 385.176 369.486L388.543 371.132L389.689 375.757C387.6 378.431 380.619 380.679 377.235 381.551C383.539 397.985 394.241 425.207 399.311 442.809C398.9 442.732 398.432 442.582 398.149 442.343Z" fill="url(#paint13_linear)"/>
<path fill-rule="evenodd" clip-rule="evenodd" d="M357.738 451.732C358.653 453.827 359.877 455.579 360.237 457.281C361.033 461.048 359.35 464.832 355.206 464.87L328.092 465.129C328.597 455.951 341.839 459.926 346.876 451.948C348.859 448.803 356.384 448.631 357.738 451.732Z" fill="url(#paint14_linear)"/>
<path fill-rule="evenodd" clip-rule="evenodd" d="M322.819 305.216C320.844 312.941 319 321.98 320.919 333.068C323.391 347.342 325.956 363.162 329.925 378.933C336.494 405.033 341.242 425.309 347.239 452.176C347.813 454.705 355.952 455.313 357.277 451.676C354.745 417.026 351.835 374.275 354.798 340.782C362.423 329.653 361.324 321.092 351.389 306.015L332.86 304.216L322.819 305.216Z" fill="url(#paint15_linear)"/>
<path fill-rule="evenodd" clip-rule="evenodd" d="M322.819 305.217C320.844 312.942 319 321.981 320.919 333.069C323.391 347.343 325.956 363.163 329.925 378.934C336.494 405.034 341.242 425.31 347.239 452.177C347.273 452.321 347.331 452.457 347.408 452.588C345.739 431.24 343.814 410.248 338.41 387.431C344.97 388.023 348.429 387.973 353.722 387.071C353.342 370.859 353.541 354.988 354.798 340.786C362.423 329.657 361.324 321.096 351.389 306.019L332.86 304.22L322.819 305.217Z" fill="url(#paint16_linear)"/>
<path fill-rule="evenodd" clip-rule="evenodd" d="M277.895 256.78C275.066 254.054 274.084 253.71 272.553 250.103C271.158 246.811 268.661 245.096 266.173 243.255C263.638 241.378 262.665 239.496 260.529 237.45C257.688 234.73 256.679 237.248 258.662 239.968L262.151 244.76C260.077 249.562 257.644 249.718 259.383 252.724C260.454 254.578 262.914 256.974 264.479 257.879C268.509 260.214 267.38 257.274 272.864 262.385C275.954 260.278 276.184 260.097 277.895 256.78Z" fill="url(#paint17_linear)"/>
<path fill-rule="evenodd" clip-rule="evenodd" d="M417.476 248.679L413.599 252.669C417.837 252.208 420.53 248.219 423.945 244.815C426.48 242.289 429.401 243.319 432.704 243.61C430.768 248.804 429.004 251.622 426.463 254.429C419.987 261.582 417.288 259.522 413.03 262.646C411.851 263.509 410.12 265.43 408.293 267.737L401.885 261.652C403.461 260.233 404.789 258.579 406.101 257.055C412.17 250.004 411.319 249.246 415.748 246.711C420.175 244.182 420.988 245.068 417.476 248.679Z" fill="url(#paint18_linear)"/>
<path fill-rule="evenodd" clip-rule="evenodd" d="M319.43 263.712C325.168 301.143 313.607 331.813 324.883 380.038C355.236 393.03 381.104 363.518 400.249 373.595C392.915 362.466 370.45 303.808 366.265 288.118C378.156 298.154 388.183 292.307 397.336 282.436C400.986 278.497 409.211 267.687 412.129 264.544C412.378 262.176 407.108 256.738 404.162 257.743C396.826 266.265 386.541 275.618 380.297 275.049C374.034 274.477 372.996 267.914 371.013 263.334C361.08 240.41 354.651 241.52 341.764 238.394C324.93 234.305 317.363 250.242 319.43 263.712Z" fill="url(#paint19_linear)"/>
<path opacity="0.5" fill-rule="evenodd" clip-rule="evenodd" d="M363.482 274.735L366.267 288.118C378.158 298.154 388.186 292.307 397.339 282.436C400.989 278.499 409.213 267.687 412.131 264.544C397.173 278.302 387.206 286.394 379.251 286.411C373.36 286.419 367.624 282.089 363.482 274.735Z" fill="url(#paint20_linear)"/>
<path fill-rule="evenodd" clip-rule="evenodd" d="M332.411 268.081C326.27 281.584 315.28 289.837 306.937 291.105C291.44 293.462 278.727 270.929 269.507 260.999C268.423 257.585 272.75 252.099 275.904 253.524C283.24 262.046 295.611 272.059 301.858 271.49C308.121 270.918 310.32 265.855 312.307 261.274C322.239 238.35 328.17 239.46 341.057 236.334C346.543 239.241 337.617 256.635 332.411 268.081Z" fill="url(#paint21_linear)"/>
<path opacity="0.5" fill-rule="evenodd" clip-rule="evenodd" d="M322.65 272.714C322.065 276.095 321.479 280.759 320.983 283.76C316.284 287.918 311.258 290.447 306.939 291.105C291.442 293.462 278.73 270.929 269.51 260.999C282.541 274.141 293.484 282.913 302.945 284.004C310.642 284.89 317.488 280.182 322.65 272.714Z" fill="url(#paint22_linear)"/>
<path opacity="0.5" fill-rule="evenodd" clip-rule="evenodd" d="M377.523 277.136C365.834 246.658 354.468 232.562 340.394 236.309L335.839 237.523C339.209 242.7 339.509 244.701 338.463 249.104C335.8 260.291 334.305 269.971 337.481 275.901C344.862 289.692 369.598 288.887 377.523 277.136Z" fill="url(#paint23_linear)"/>
<path fill-rule="evenodd" clip-rule="evenodd" d="M332.527 210.701C331.812 213.851 328.519 227.082 330.461 229.3C331.451 230.43 334.874 230.066 337.528 229.733L345.031 217.321L341.176 210.126L335.495 209.135L332.527 210.701Z" fill="url(#paint24_linear)"/>
<path fill-rule="evenodd" clip-rule="evenodd" d="M332.527 210.701C332.388 211.306 332.155 212.286 331.884 213.485C333.051 214.42 335.306 215.078 338.083 214.978C337.994 221.061 335.484 224.778 334.929 230.008C335.806 229.944 336.704 229.838 337.528 229.736L345.031 217.324L341.176 210.129L335.498 209.138L332.527 210.701Z" fill="#FFA698"/>
<path fill-rule="evenodd" clip-rule="evenodd" d="M347.361 201.667C355.475 198.347 359.655 201.964 362.867 207.825C366.276 214.043 366.647 217.213 368.963 219.537C372.885 223.473 378.009 222.671 388.485 223.362C406.95 224.583 407.924 241.984 402.606 254.403C396.302 269.133 378.244 279.018 363.94 280.97C346.252 283.382 340.898 274.957 340.438 264.747C340.022 255.522 347.764 247.508 341.756 240.951C338.638 237.55 335.503 237.478 335.612 231.265C335.692 226.554 339.972 220.553 339.068 213.854C337.908 213.879 336.791 213.751 335.806 213.466C325.213 210.395 329.448 194.128 341.023 197.709C343.292 198.414 345.708 199.807 347.361 201.667Z" fill="#081843"/>
<path fill-rule="evenodd" clip-rule="evenodd" d="M387.387 271.74C380.039 276.714 371.468 279.94 363.94 280.967C346.252 283.38 340.898 274.954 340.438 264.744C340.022 255.519 347.763 247.505 341.756 240.948C338.638 237.547 335.503 237.475 335.612 231.263C335.692 226.552 339.972 220.55 339.068 213.851C337.908 213.876 336.791 213.749 335.806 213.463C331.052 212.086 329.285 208.049 329.828 204.343C332.247 210.026 336.175 211.514 342.502 211.431C343.833 220.142 341.786 225.996 344.21 231.01C348.08 239.019 352.873 235.091 354.923 244.89C357.064 255.125 352.917 261.23 357.369 269.022C362.6 278.183 378.641 274.072 387.387 271.74Z" fill="#081843"/>
<path fill-rule="evenodd" clip-rule="evenodd" d="M66.2824 444.061C65.6527 447.187 63.7499 449.575 63.4476 451.873C62.9289 455.829 65.2089 459.807 69.8855 459.846L100.474 460.118C98.8546 449.658 82.5033 455.457 77.0113 443.862L69.891 444.264L66.2824 444.061Z" fill="url(#paint25_linear)"/>
<path opacity="0.5" fill-rule="evenodd" clip-rule="evenodd" d="M66.2824 444.061C66.1048 445.277 64.926 447.926 64.5488 448.811C67.4141 450.802 78.6755 452.484 81.2191 448.994C79.982 447.92 77.9516 446.06 77.1222 444.308L69.891 444.261L66.2824 444.061Z" fill="url(#paint26_linear)"/>
<path fill-rule="evenodd" clip-rule="evenodd" d="M106.649 286.655C113.797 356.325 110.088 381.534 80.914 446.385C77.7353 449.694 66.7207 447.615 65.037 443.04C74.7257 406.729 80.1734 385.568 81.1192 369.431C83.366 331.144 66.4738 330.4 65.3698 289.501L106.649 286.655Z" fill="#0C203A"/>
<path opacity="0.3" fill-rule="evenodd" clip-rule="evenodd" d="M95.8867 287.408C99.1126 318.846 99.6896 387.514 65.037 443.04C74.7257 406.729 80.1734 385.568 81.1193 369.431C83.366 331.144 66.4738 330.4 65.3698 289.501L95.8867 287.408Z" fill="#233F64"/>
<path fill-rule="evenodd" clip-rule="evenodd" d="M28.3068 435.156C26.9116 440.044 24.7259 447.087 24.9339 452.087C25.0643 455.257 28.2874 453.999 30.0598 456.731C30.7311 457.767 30.0792 459.738 28.0849 459.965C24.0297 460.423 14.8263 459.746 11.7086 459.338C8.4356 458.91 10.7517 456.176 11.4174 449C11.5699 447.365 11.6643 445.888 11.0651 444.869C9.88905 442.873 9.70321 440.941 10.9181 438.312C12.2856 435.353 15.0954 434.806 17.4392 431.095L28.3068 435.156Z" fill="url(#paint27_linear)"/>
<path opacity="0.5" fill-rule="evenodd" clip-rule="evenodd" d="M27.9989 435.905C27.4053 437.987 26.7979 440.605 26.2293 442.99C23.7745 442.676 16.2437 440.708 13.8611 434.962C15.0538 433.815 16.8762 431.994 17.442 431.095L27.9989 435.905Z" fill="url(#paint28_linear)"/>
<path fill-rule="evenodd" clip-rule="evenodd" d="M60.352 295.936C56.3634 308.406 54.8711 317.014 54.3857 328.729C52.3581 377.592 40.295 388.216 14.3187 431.419C17.7332 438.29 26.0711 440.081 30.9446 438.193C77.9654 378.658 86.1202 366.516 97.4483 294.689L60.352 295.936Z" fill="#0C203A"/>
<path fill-rule="evenodd" clip-rule="evenodd" d="M168.673 266.674C168.312 267.218 165.63 267.942 164.928 268.364L164.49 276.162C164.989 276.079 167.716 275.462 168.199 275.637C173.408 277.536 175.291 275.524 178.456 276.206C179.185 276.87 182.558 276.842 183.493 276.712C184.947 276.506 185.521 275.182 185.645 273.483C185.94 269.544 186.408 266.593 185.937 264.575C185.571 263.015 185.421 262.873 182.761 262.779C181.238 262.723 179.668 262.632 179.094 263.453C176.517 264.095 175.261 262.707 172.875 263.087C170.892 263.403 170.271 264.258 168.673 266.674Z" fill="#FFA698"/>
<path fill-rule="evenodd" clip-rule="evenodd" d="M179.31 263.331C178.861 263.614 178.653 264.145 178.545 265.036C178.253 267.404 178.029 270.724 177.868 273.139C177.76 274.755 177.909 276.104 178.891 276.267C175.624 275.821 177.147 271.307 173.646 270.357C172.118 269.944 168.581 270.729 166.687 271.607C170.881 268.633 171.042 269.605 174.459 268.053C175.419 267.617 177.563 263.773 179.31 263.331Z" fill="url(#paint29_linear)"/>
<path fill-rule="evenodd" clip-rule="evenodd" d="M177.269 255.364C176.534 256.225 174.434 258.484 173.754 259.37C172.223 261.363 170.276 262.635 169.652 265.286C169.014 267.989 177.71 267.245 175.718 263.773C175.696 263.198 175.946 261.677 176.661 261.005C178.378 259.395 178.153 257.105 177.269 255.364Z" fill="#FFD6CF"/>
<path fill-rule="evenodd" clip-rule="evenodd" d="M113.642 238.433C124.839 268.35 135.452 267.29 167.622 265.943C168.778 265.894 169.083 273.764 167.885 275.793C159.783 280.601 139.842 284.387 125.017 280.426C106.188 275.396 97.3707 257.368 89.2436 237.614C87.5766 231.823 84.9332 214.62 90.9439 214.942C103.09 215.595 109.051 226.166 113.642 238.433Z" fill="url(#paint30_linear)"/>
<path opacity="0.35" fill-rule="evenodd" clip-rule="evenodd" d="M111.514 248.58C124.406 287.463 146.904 277.944 167.885 275.793C159.783 280.601 139.842 284.387 125.017 280.426C106.188 275.396 97.3706 257.368 89.2435 237.614C87.5765 231.823 86.8082 219.231 92.5693 220.978C109.597 226.138 107.392 236.148 111.514 248.58Z" fill="url(#paint31_linear)"/>
<path fill-rule="evenodd" clip-rule="evenodd" d="M59.1704 251.897C59.0151 268.395 60.2827 284.812 59.3341 300.944C77.2664 304.788 91.4875 308.078 108.823 302.171C108.471 284.94 110.282 245.931 106.677 230.169C104.868 222.26 100.469 217.416 94.1198 215.57C89.5791 214.248 84.5725 213.696 79.4965 213.899C68.371 214.346 55.7226 217.424 47.7703 227.101C42.1617 236.926 52.8712 244.129 59.1704 251.897Z" fill="url(#paint32_linear)"/>
<path opacity="0.5" fill-rule="evenodd" clip-rule="evenodd" d="M59.1704 251.897C59.0151 268.395 60.2827 284.812 59.3341 300.944C65.2699 295.686 70.1684 263.312 62.7874 239.624L59.1704 251.897Z" fill="url(#paint33_linear)"/>
<path fill-rule="evenodd" clip-rule="evenodd" d="M71.9381 206.168C71.7605 209.577 71.5719 212.217 70.9589 215.576C72.4346 220.748 77.2526 224.14 82.0484 223.493C86.1785 222.935 87.2575 217.345 85.8457 213.891C85.6432 212.212 85.5683 210.796 85.5184 209.105L75.0863 206.06L71.9381 206.168Z" fill="#FFCAB8"/>
<path fill-rule="evenodd" clip-rule="evenodd" d="M71.9381 206.167C71.8854 207.164 71.8327 208.094 71.7689 208.993C76.2318 213.974 82.1261 214.77 85.8457 213.887C85.6432 212.208 85.5683 210.792 85.5184 209.102L75.0863 206.056L71.9381 206.167Z" fill="#FFCAB8"/>
<path fill-rule="evenodd" clip-rule="evenodd" d="M70.3071 202.12C67.6276 202.625 66.9453 201.72 66.3239 199.93C65.6832 198.084 65.7359 198.592 64.5987 197.179C64.0439 196.49 63.6806 195.824 63.4226 195.144C62.5572 192.873 63.0537 191.493 63.0176 189.747C62.9732 187.576 62.0329 186.752 61.6474 185.35C59.7723 178.552 65.6166 172.622 71.9907 175.748C74.2957 171.6 77.9488 171.52 81.2828 173.435C85.1716 171.081 88.9023 171.345 91.5402 174.371C96.655 180.239 91.8647 186.083 88.3448 187.657L77.1527 195.621L70.3071 202.12Z" fill="url(#paint34_linear)"/>
<path fill-rule="evenodd" clip-rule="evenodd" d="M70.3071 202.12C67.6276 202.625 66.9453 201.72 66.324 199.93C65.6832 198.084 65.7359 198.592 64.5987 197.179C64.0439 196.49 63.6806 195.824 63.4226 195.144C62.5572 192.873 63.0537 191.493 63.0176 189.747L63.0149 189.678C64.6791 192.537 68.2101 193.09 68.5457 189.073C70.3015 187.69 71.4332 185.966 71.6773 183.954C71.9852 181.405 73.0614 179.995 75.9128 180.803C82.5144 182.674 87.9177 186.13 93.7176 180.625C93.2988 183.959 90.5694 186.66 88.3448 187.654L77.1527 195.621L70.3071 202.12Z" fill="#22043D"/>
<path fill-rule="evenodd" clip-rule="evenodd" d="M89.6735 186.869C90.1616 193.804 91.2601 200.905 88.5695 207.501C87.5932 209.897 86.0371 211.385 82.3036 210.585C79.7157 210.03 77.0168 208.847 74.6203 207.873C70.9811 206.393 71.5109 204.933 70.8951 203.662C70.6482 203.154 70.2627 202.59 69.7052 201.935C68.2711 200.25 65.8746 199.231 65.7831 196.846C65.6998 194.653 67.3502 193.482 68.1935 194.984C69.3723 197.085 72.0573 200.63 70.0297 189.565C72.2404 187.891 72.6648 187.228 73.2473 185.418C73.8159 183.646 74.4317 182.261 76.5369 183.386C80.8696 185.695 84.6141 187.938 89.6735 186.869Z" fill="#FFE1D7"/>
<path fill-rule="evenodd" clip-rule="evenodd" d="M89.6742 186.869C89.7214 187.546 89.7741 188.223 89.8296 188.903C83.1004 190.058 79.7331 187.099 75.4421 184.365C73.8999 187.005 73.506 187.776 71.312 189.911C71.3674 190.677 72.1663 194.944 71.6226 197.037C71.1816 198.742 70.269 198.497 69.2871 197.462C68.6269 196.768 67.1763 193.648 65.9364 195.624C66.3552 194.281 67.5285 193.792 68.197 194.98C69.3759 197.082 72.0609 200.627 70.0332 189.561C72.2439 187.887 72.6683 187.224 73.2508 185.414C73.8194 183.643 74.4352 182.258 76.5405 183.382C80.8703 185.694 84.6149 187.937 89.6742 186.869Z" fill="#FFCBBA"/>
<path fill-rule="evenodd" clip-rule="evenodd" d="M81.0526 229.661L82.8749 272.514L90.4029 282L95.3291 270.574L83.8735 228.859C85.0551 225.355 84.6668 224.556 83.99 224.039C83.1967 223.434 83.9678 223.362 81.3299 223.681C79.5936 223.892 77.8156 224.07 78.0708 225.949C78.2677 227.396 79.5159 228.439 81.0526 229.661Z" fill="url(#paint35_linear)"/>
<path fill-rule="evenodd" clip-rule="evenodd" d="M71.2889 213.196C69.7883 213.699 68.665 214.204 68.4042 215.167C67.5 218.49 73.2333 227.868 76.9668 228.748C78.2233 226.405 79.3051 225.08 81.5297 223.526C75.3497 221.705 71.963 218.673 71.2889 213.196Z" fill="#13DDEC"/>
<path fill-rule="evenodd" clip-rule="evenodd" d="M85.8428 213.632C86.9579 213.671 87.9509 214.037 88.1423 214.254C89.7233 216.017 89.7954 223.484 87.2658 227.729C85.1078 225.613 83.266 224.478 81.3438 223.579C86.8747 220.267 86.3948 217.052 85.8428 213.632Z" fill="#13DDEC"/>
<path fill-rule="evenodd" clip-rule="evenodd" d="M51.6314 258.69L172.284 258.284C174.359 258.276 176.259 258.978 177.743 260.155C179.643 261.66 180.855 263.942 180.858 266.496L180.664 311.032C180.672 315.579 176.856 319.29 172.124 319.31L51.4678 319.712C46.7357 319.729 42.8913 316.048 42.883 311.501L43.0799 266.965C43.0688 262.418 46.8994 258.709 51.6314 258.69Z" fill="url(#paint36_linear)"/>
<path fill-rule="evenodd" clip-rule="evenodd" d="M172.409 294.484C171.807 287.93 169.172 284.607 165.425 283.777C164.842 283.646 164.238 283.582 163.622 283.588C159.855 283.618 155.719 286.3 154.363 293.279C153.5 297.696 151.961 301.404 147.002 301.443C134.004 301.196 142.009 271.271 129.663 271.373C119.034 271.465 123.208 291.194 118.082 300.155C116.302 303.262 113.647 303.894 111.861 303.908C104.377 303.753 104.668 293.601 104.194 289.057C101.995 268.056 99.3816 265.763 94.8049 265.799C90.0174 265.874 87.8345 266.413 86.4781 286.683C85.9289 294.975 84.775 302.098 77.3608 302.326C69.1033 302.395 69.2392 294.609 66.1548 289.381C64.3213 286.275 61.6807 284.609 59.0983 284.629C56.3052 284.651 53.5841 286.644 52.0225 290.93C49.404 298.118 48.9852 309.51 49.074 313.597L173.319 312.992C172.95 306.695 172.931 300.147 172.409 294.484Z" fill="white"/>
<path fill-rule="evenodd" clip-rule="evenodd" d="M67.9716 309.199C67.3531 308.986 65.9912 306.562 65.4087 305.988L57.7503 307.492C57.9556 307.956 59.226 310.449 59.1761 310.959C58.8598 314.132 59.2343 315.837 59.7031 317.161C59.789 317.405 60.108 318.294 60.4076 319.138C61.2286 321.431 61.4339 321.517 64.2992 321.805C68.4127 322.219 76.0488 322.616 75.1695 319.607C71.5969 318.58 73.4415 314.607 72.4818 312.389C71.6885 310.543 70.7038 310.152 67.9716 309.199Z" fill="#FFD6CF"/>
<path fill-rule="evenodd" clip-rule="evenodd" d="M65.4151 241.578C47.738 269.505 53.2189 285.287 69.3206 308.941C67.5787 309.802 59.9841 310.81 57.8483 309.813C33.7083 288.798 30.9096 265.427 40.9644 240.82C43.164 235.441 48.3426 222.371 55.4462 220.844C64.0865 218.982 71.6894 232.925 65.4151 241.578Z" fill="url(#paint37_linear)"/>
<path opacity="0.35" fill-rule="evenodd" clip-rule="evenodd" d="M63.8304 300.447C65.4807 303.181 67.317 306.001 69.3168 308.941C67.5749 309.802 59.9804 310.81 57.8446 309.813C33.7046 288.798 30.9058 265.427 40.9607 240.82C31.591 281.217 50.0392 297.94 63.8304 300.447Z" fill="url(#paint38_linear)"/>
<path fill-rule="evenodd" clip-rule="evenodd" d="M178.456 276.206C179.186 276.87 182.558 276.842 183.493 276.712C184.944 276.506 185.521 275.182 185.646 273.483C185.94 269.544 186.408 266.593 185.934 264.575C185.568 263.015 185.418 262.873 182.758 262.779C181.368 262.729 179.94 262.648 179.263 263.259C179.113 263.395 178.966 263.634 178.872 263.806C178.708 264.103 178.606 264.505 178.542 265.036C178.331 266.771 177.191 275.082 178.456 276.206Z" fill="#FFD6CF"/>
</g>
<defs>
<filter id="filter0_d" x="0" y="0" width="502.704" height="509.129" filterUnits="userSpaceOnUse" color-interpolation-filters="sRGB">
<feFlood flood-opacity="0" result="BackgroundImageFix"/>
<feColorMatrix in="SourceAlpha" type="matrix" values="0 0 0 0 0 0 0 0 0 0 0 0 0 0 0 0 0 0 127 0"/>
<feOffset dx="30" dy="4"/>
<feGaussianBlur stdDeviation="20"/>
<feColorMatrix type="matrix" values="0 0 0 0 0 0 0 0 0 0 0 0 0 0 0 0 0 0 0.12 0"/>
<feBlend mode="normal" in2="BackgroundImageFix" result="effect1_dropShadow"/>
<feBlend mode="normal" in="SourceGraphic" in2="effect1_dropShadow" result="shape"/>
</filter>
<linearGradient id="paint0_linear" x1="265.057" y1="41.0409" x2="262.46" y2="62.4476" gradientUnits="userSpaceOnUse">
<stop stop-color="#6D6AFE"/>
<stop offset="1" stop-color="#3FB0F7"/>
</linearGradient>
<linearGradient id="paint1_linear" x1="216.785" y1="77.5242" x2="211.913" y2="84.4634" gradientUnits="userSpaceOnUse">
<stop stop-color="#6D6AFE"/>
<stop offset="1" stop-color="#3FB0F7"/>
</linearGradient>
<linearGradient id="paint2_linear" x1="217.861" y1="75.2361" x2="210.9" y2="86.2919" gradientUnits="userSpaceOnUse">
<stop stop-color="#6D6AFE"/>
<stop offset="1" stop-color="#3FB0F7"/>
</linearGradient>
<linearGradient id="paint3_linear" x1="313.127" y1="106.232" x2="292.776" y2="44.7869" gradientUnits="userSpaceOnUse">
<stop stop-color="#965CF2"/>
<stop offset="1" stop-color="#FF8ADC"/>
</linearGradient>
<linearGradient id="paint4_linear" x1="218.104" y1="332.406" x2="214.8" y2="98.113" gradientUnits="userSpaceOnUse">
<stop stop-color="#6D6AFE"/>
<stop offset="1" stop-color="#3FB0F7"/>
</linearGradient>
<linearGradient id="paint5_linear" x1="141.774" y1="167.639" x2="140.17" y2="96.099" gradientUnits="userSpaceOnUse">
<stop stop-color="#6D6AFE"/>
<stop offset="1" stop-color="#3FB0F7"/>
</linearGradient>
<linearGradient id="paint6_linear" x1="324.81" y1="196.081" x2="323.368" y2="131.732" gradientUnits="userSpaceOnUse">
<stop stop-color="#6D6AFE"/>
<stop offset="1" stop-color="#3FB0F7"/>
</linearGradient>
<linearGradient id="paint7_linear" x1="300.338" y1="291.13" x2="298.916" y2="215.001" gradientUnits="userSpaceOnUse">
<stop stop-color="#6D6AFE"/>
<stop offset="1" stop-color="#3FB0F7"/>
</linearGradient>
<linearGradient id="paint8_linear" x1="86.4107" y1="131.19" x2="97.8689" y2="125.549" gradientUnits="userSpaceOnUse">
<stop stop-color="#965CF2"/>
<stop offset="1" stop-color="#FF8ADC"/>
</linearGradient>
<linearGradient id="paint9_linear" x1="72.9445" y1="140.994" x2="78.6414" y2="130.56" gradientUnits="userSpaceOnUse">
<stop stop-color="#6D6AFE"/>
<stop offset="1" stop-color="#3FB0F7"/>
</linearGradient>
<linearGradient id="paint10_linear" x1="69.4226" y1="119.407" x2="94.7765" y2="116.325" gradientUnits="userSpaceOnUse">
<stop stop-color="#1C8EF4"/>
<stop offset="1" stop-color="#00CFDD"/>
</linearGradient>
<linearGradient id="paint11_linear" x1="403.307" y1="452.584" x2="406.76" y2="458.064" gradientUnits="userSpaceOnUse">
<stop stop-color="#3E4795"/>
<stop offset="1" stop-color="#273088"/>
</linearGradient>
<linearGradient id="paint12_linear" x1="409.77" y1="418.865" x2="377.911" y2="368.953" gradientUnits="userSpaceOnUse">
<stop stop-color="#FFB89E"/>
<stop offset="1" stop-color="#FFA799"/>
</linearGradient>
<linearGradient id="paint13_linear" x1="359.119" y1="331.311" x2="398.506" y2="425.193" gradientUnits="userSpaceOnUse">
<stop stop-color="#FF8A78"/>
<stop offset="1" stop-color="#FFA799"/>
</linearGradient>
<linearGradient id="paint14_linear" x1="341.12" y1="456.259" x2="346.55" y2="462.561" gradientUnits="userSpaceOnUse">
<stop stop-color="#3E4795"/>
<stop offset="1" stop-color="#273088"/>
</linearGradient>
<linearGradient id="paint15_linear" x1="383.87" y1="416.087" x2="345.665" y2="375.412" gradientUnits="userSpaceOnUse">
<stop stop-color="#FFB89E"/>
<stop offset="1" stop-color="#FFA799"/>
</linearGradient>
<linearGradient id="paint16_linear" x1="326.922" y1="335.597" x2="373.924" y2="425.699" gradientUnits="userSpaceOnUse">
<stop stop-color="#FF8A78"/>
<stop offset="1" stop-color="#FFA799"/>
</linearGradient>
<linearGradient id="paint17_linear" x1="264.031" y1="241.937" x2="269.359" y2="256.905" gradientUnits="userSpaceOnUse">
<stop stop-color="#FFB89E"/>
<stop offset="1" stop-color="#FFA799"/>
</linearGradient>
<linearGradient id="paint18_linear" x1="417.396" y1="250.824" x2="416.557" y2="265.854" gradientUnits="userSpaceOnUse">
<stop stop-color="#FFB89E"/>
<stop offset="1" stop-color="#FFA799"/>
</linearGradient>
<linearGradient id="paint19_linear" x1="376.214" y1="348.647" x2="346.814" y2="247.29" gradientUnits="userSpaceOnUse">
<stop stop-color="#1C8EF4"/>
<stop offset="1" stop-color="#00CFDD"/>
</linearGradient>
<linearGradient id="paint20_linear" x1="388.24" y1="304.379" x2="387.666" y2="258.432" gradientUnits="userSpaceOnUse">
<stop stop-color="#1C8EF4"/>
<stop offset="1" stop-color="#00CFDD"/>
</linearGradient>
<linearGradient id="paint21_linear" x1="336.064" y1="308.335" x2="314.141" y2="265.508" gradientUnits="userSpaceOnUse">
<stop stop-color="#1C8EF4"/>
<stop offset="1" stop-color="#00CFDD"/>
</linearGradient>
<linearGradient id="paint22_linear" x1="295.612" y1="302.851" x2="296.238" y2="254.637" gradientUnits="userSpaceOnUse">
<stop stop-color="#1C8EF4"/>
<stop offset="1" stop-color="#00CFDD"/>
</linearGradient>
<linearGradient id="paint23_linear" x1="356.818" y1="306.669" x2="356.308" y2="223.662" gradientUnits="userSpaceOnUse">
<stop stop-color="#1C8EF4"/>
<stop offset="1" stop-color="#00CFDD"/>
</linearGradient>
<linearGradient id="paint24_linear" x1="337.944" y1="216.199" x2="336.755" y2="228.505" gradientUnits="userSpaceOnUse">
<stop stop-color="#FFB89E"/>
<stop offset="1" stop-color="#FFA799"/>
</linearGradient>
<linearGradient id="paint25_linear" x1="85.3532" y1="449.315" x2="79.354" y2="457.737" gradientUnits="userSpaceOnUse">
<stop stop-color="#3874C2"/>
<stop offset="1" stop-color="#214075"/>
</linearGradient>
<linearGradient id="paint26_linear" x1="78.1589" y1="437.274" x2="73.6268" y2="446.775" gradientUnits="userSpaceOnUse">
<stop stop-color="#3874C2"/>
<stop offset="1" stop-color="#214075"/>
</linearGradient>
<linearGradient id="paint27_linear" x1="26.3513" y1="444.164" x2="19.1633" y2="447.008" gradientUnits="userSpaceOnUse">
<stop stop-color="#3874C2"/>
<stop offset="1" stop-color="#214075"/>
</linearGradient>
<linearGradient id="paint28_linear" x1="18.8225" y1="429.746" x2="22.1588" y2="438.738" gradientUnits="userSpaceOnUse">
<stop stop-color="#3874C2"/>
<stop offset="1" stop-color="#214075"/>
</linearGradient>
<linearGradient id="paint29_linear" x1="175.83" y1="268.817" x2="172.277" y2="267.129" gradientUnits="userSpaceOnUse">
<stop stop-color="#FF8A78"/>
<stop offset="1" stop-color="#FFA799"/>
</linearGradient>
<linearGradient id="paint30_linear" x1="119.194" y1="266.397" x2="129.538" y2="242.967" gradientUnits="userSpaceOnUse">
<stop stop-color="#1C8EF4"/>
<stop offset="1" stop-color="#00CFDD"/>
</linearGradient>
<linearGradient id="paint31_linear" x1="119.521" y1="268.086" x2="128.632" y2="248.877" gradientUnits="userSpaceOnUse">
<stop stop-color="#1C8EF4"/>
<stop offset="1" stop-color="#00CFDD"/>
</linearGradient>
<linearGradient id="paint32_linear" x1="73.2173" y1="284.01" x2="87.0121" y2="228.743" gradientUnits="userSpaceOnUse">
<stop stop-color="#1C8EF4"/>
<stop offset="1" stop-color="#00CFDD"/>
</linearGradient>
<linearGradient id="paint33_linear" x1="61.6406" y1="288.209" x2="63.4764" y2="246.14" gradientUnits="userSpaceOnUse">
<stop stop-color="#1C8EF4"/>
<stop offset="1" stop-color="#00CFDD"/>
</linearGradient>
<linearGradient id="paint34_linear" x1="77.0707" y1="176.372" x2="78.0246" y2="186.57" gradientUnits="userSpaceOnUse">
<stop stop-color="#5A2D68"/>
<stop offset="1" stop-color="#22043D"/>
</linearGradient>
<linearGradient id="paint35_linear" x1="92.35" y1="237.713" x2="80.9139" y2="260.026" gradientUnits="userSpaceOnUse">
<stop stop-color="#3874C2"/>
<stop offset="1" stop-color="#214075"/>
</linearGradient>
<linearGradient id="paint36_linear" x1="91.5425" y1="320.042" x2="146.344" y2="236.504" gradientUnits="userSpaceOnUse">
<stop stop-color="#965CF2"/>
<stop offset="1" stop-color="#FF8ADC"/>
</linearGradient>
<linearGradient id="paint37_linear" x1="52.109" y1="290.898" x2="57.132" y2="218.599" gradientUnits="userSpaceOnUse">
<stop stop-color="#1C8EF4"/>
<stop offset="1" stop-color="#00CFDD"/>
</linearGradient>
<linearGradient id="paint38_linear" x1="50.7306" y1="294.573" x2="58.155" y2="252.72" gradientUnits="userSpaceOnUse">
<stop stop-color="#1C8EF4"/>
<stop offset="1" stop-color="#00CFDD"/>
</linearGradient>
</defs>
</svg>
