<svg width="623" height="378" viewBox="0 0 623 378" fill="none" xmlns="http://www.w3.org/2000/svg">
<path d="M247.341 372.087L374.659 5.89311L499.646 7.70383L619.982 192.466L432.322 374.767L247.341 372.087Z" fill="#853FF5"/>
<path d="M376.015 5.91275L248.697 372.107L123.71 370.296L3.37387 185.534L191.034 3.23289L376.015 5.91275Z" fill="#6D6AFE"/>
<path d="M229.699 251.921C263.637 277.282 241.513 309.702 205.308 285.703C169.103 261.703 140.874 240.893 99.6952 210.733C58.5164 180.573 91.9307 150.309 124.899 175.825C157.867 201.342 195.761 226.561 229.699 251.921Z" fill="#FFFEFE"/>
<path d="M207.253 83.2791C242.692 60.0618 265.59 91.9394 230.655 117.753C195.72 143.566 166.51 162.975 124.085 191.356C81.6595 219.736 64.649 177.986 99.9028 155.733C135.156 133.48 171.815 106.496 207.253 83.2791Z" fill="#FFFEFE"/>
<path d="M389.744 120.021C355.806 94.661 377.93 62.2406 414.135 86.24C450.34 110.239 478.569 131.05 519.748 161.21C560.927 191.37 527.513 221.634 494.544 196.117C461.576 170.6 423.682 145.382 389.744 120.021Z" fill="#FFFEFE"/>
<path d="M412.19 288.664C376.752 311.881 353.853 280.003 388.788 254.19C423.723 228.377 452.933 208.967 495.359 180.587C537.784 152.207 554.794 193.957 519.54 216.21C484.287 238.463 447.628 265.446 412.19 288.664Z" fill="#FFFEFE"/>
<rect x="353.669" y="38.3186" width="20" height="309" rx="10" transform="rotate(19.1842 353.669 38.3186)" fill="#FFFCFC"/>
</svg>
