<svg width="286" height="176" viewBox="0 0 286 176" fill="none" xmlns="http://www.w3.org/2000/svg">
<line y1="-2" x2="119.784" y2="-2" transform="matrix(-1.0038 0.00865532 -0.0116028 -0.994806 235.863 155.599)" stroke="#6D6AFE" stroke-width="4"/>
<line y1="-2" x2="87.2382" y2="-2" transform="matrix(0.465319 -0.898099 0.925335 0.354434 236.32 159.144)" stroke="#6D6AFE" stroke-width="4"/>
<line y1="-2" x2="99.3779" y2="-2" transform="matrix(-0.66841 -0.719564 0.838896 -0.576091 276.917 80.1612)" stroke="#6D6AFE" stroke-width="4"/>
<line y1="-2" x2="161.904" y2="-2" transform="matrix(0.382667 -0.93344 0.950483 0.288064 118.818 160.184)" stroke="#6D6AFE" stroke-width="4"/>
<line y1="-2" x2="32.4532" y2="-2" transform="matrix(0.99997 0.00720072 -0.00974007 0.999958 178.283 11.9512)" stroke="#6D6AFE" stroke-width="4"/>
<rect width="12.188" height="78.6132" transform="matrix(-0.799745 0.591876 0.70255 0.719149 190.785 36.345)" fill="#6D6AFE"/>
<rect width="11.7039" height="81.8099" transform="matrix(0.653602 0.763756 0.835139 -0.541295 169.219 129.509)" fill="#6D6AFE"/>
<line y1="-2" x2="119.783" y2="-2" transform="matrix(1.00381 -0.00849058 0.0113819 0.994802 50.6709 20.1279)" stroke="#6D6AFE" stroke-width="4"/>
<line y1="-2" x2="87.2386" y2="-2" transform="matrix(-0.465517 0.898018 -0.92526 -0.354587 50.2151 16.5823)" stroke="#6D6AFE" stroke-width="4"/>
<line y1="-2" x2="99.3779" y2="-2" transform="matrix(0.668251 0.719674 -0.839023 0.575953 9.60022 95.5584)" stroke="#6D6AFE" stroke-width="4"/>
<line y1="-2" x2="161.905" y2="-2" transform="matrix(-0.382872 0.933372 -0.950423 -0.288221 167.717 15.562)" stroke="#6D6AFE" stroke-width="4"/>
<line y1="-2" x2="32.4531" y2="-2" transform="matrix(-0.999972 -0.00736491 0.00996208 -0.999952 109.219 163.785)" stroke="#6D6AFE" stroke-width="4"/>
<rect width="12.2371" height="79.5702" transform="matrix(0.78774 -0.609004 -0.708337 -0.712212 96.0731 139.602)" fill="#6D6AFE"/>
<rect width="11.7986" height="82.4548" transform="matrix(-0.628637 -0.783221 -0.845244 0.527004 116.556 46.8484)" fill="#6D6AFE"/>
</svg>
