<svg width="72" height="72" viewBox="0 0 72 72" fill="none" xmlns="http://www.w3.org/2000/svg">
<path d="M65.3381 15.1251L62.3075 18.1557C65.8661 23.3785 67.7813 29.5417 67.7813 36C67.7813 44.4891 64.4755 52.47 58.4728 58.4727C52.4702 64.4754 44.4893 67.7812 36 67.7812L34.5 70.5L36 72C45.616 72 54.6563 68.2553 61.456 61.4558C68.2553 54.6563 72 45.6159 72 36C72 28.4098 69.6651 21.1791 65.3381 15.1251Z" fill="#6D6AFE"/>
<path d="M36 4.21875C42.4584 4.21875 48.6216 6.13406 53.8444 9.69258L56.875 6.66197C50.8209 2.33494 43.5904 0 36 0L34.5 2.99995L36 4.21875Z" fill="#FDAE02"/>
<path d="M18.1556 62.3074L15.125 65.338C21.179 69.6651 28.4097 72 35.9999 72V67.7813C29.5416 67.7813 23.3784 65.8661 18.1556 62.3074Z" fill="#FDCB02"/>
<path d="M0 36C0 43.5902 2.33494 50.8209 6.66197 56.8749L9.69258 53.8443C6.13406 48.6215 4.21875 42.4583 4.21875 36C4.21875 27.5109 7.52456 19.53 13.5273 13.5273C19.53 7.52456 27.5109 4.21875 36 4.21875V0C26.3841 0 17.3437 3.7447 10.5442 10.5442C3.7447 17.3437 0 26.3841 0 36Z" fill="#6D6AFE"/>
<path d="M61.6138 35.8891L52.596 17.3907L41.9999 22.5L36.0142 35.8891L49.4998 39L61.6138 35.8891Z" fill="#AFD7FD"/>
<path d="M36.0144 35.889H36L34.5 45L36 59.8908L61.614 35.889H36.0144Z" fill="#72BAFD"/>
<path d="M36 35.8732L36.0144 35.8891L52.5962 17.3907H36L34.5 25.5L36 35.8732Z" fill="#72BAFD"/>
<path d="M19.4041 17.3907L10.3862 35.8891L24.0001 39L36.0001 35.8891V35.8732L30 22.5L19.4041 17.3907Z" fill="#C4E2FE"/>
<path d="M10.3862 35.8891L36.0001 59.8908V35.8891H10.3862Z" fill="#9CCEFD"/>
<path d="M36.0003 17.3907H19.4043L36.0003 35.8732V17.3907Z" fill="#9CCEFD"/>
</svg>
