<svg width="35" height="35" viewBox="0 0 35 35" fill="none" xmlns="http://www.w3.org/2000/svg">
<path d="M11.5809 21.5917C11.4945 21.5989 11.4117 21.6177 11.3236 21.6177H2.63326C4.07725 26.8234 8.17669 30.9229 13.3824 32.3669V23.6765C13.3824 23.5884 13.4012 23.5055 13.4085 23.4192C12.6949 22.9243 12.0757 22.3051 11.5809 21.5917ZM23.4191 13.4083C23.5055 13.4011 23.5883 13.3823 23.6764 13.3823H32.3667C30.9227 8.17657 26.8233 4.07713 21.6176 2.63326V11.3236C21.6176 11.4117 21.5988 11.4947 21.5916 11.5809C22.3051 12.0757 22.9243 12.6949 23.4191 13.4083ZM12.3529 18.5294V16.4706C12.3529 15.9021 11.892 15.4412 11.3235 15.4412H1.02942C0.460915 15.4412 0 15.9021 0 16.4706V18.5294C0 19.0979 0.460915 19.5588 1.02942 19.5588H11.3235C11.8921 19.5588 12.3529 19.0979 12.3529 18.5294ZM13.3823 2.63326C8.17657 4.07725 4.07713 8.17669 2.63313 13.3823H11.3235C11.4116 13.3823 11.4945 13.4011 11.5808 13.4083C12.0756 12.6948 12.6948 12.0757 13.4083 11.5808C13.4011 11.4944 13.3823 11.4115 13.3823 11.3235V2.63326ZM23.4191 21.5917C22.9243 22.3052 22.3051 22.9243 21.5916 23.4192C21.5988 23.5056 21.6176 23.5885 21.6176 23.6765V32.3669C26.8233 30.9229 30.9227 26.8236 32.3667 21.6177H23.6764C23.5884 21.6177 23.5055 21.5989 23.4191 21.5917ZM33.9706 15.4412H23.6765C23.108 15.4412 22.6471 15.9021 22.6471 16.4706V18.5294C22.6471 19.0979 23.108 19.5588 23.6765 19.5588H33.9706C34.5391 19.5588 35 19.0979 35 18.5294V16.4706C35 15.9021 34.5391 15.4412 33.9706 15.4412ZM18.5294 22.6471H16.4706C15.9021 22.6471 15.4412 23.108 15.4412 23.6765V33.9706C15.4412 34.5391 15.9021 35 16.4706 35H18.5294C19.0979 35 19.5588 34.5391 19.5588 33.9706V23.6765C19.5588 23.1079 19.0979 22.6471 18.5294 22.6471ZM18.5294 0H16.4706C15.9021 0 15.4412 0.460915 15.4412 1.02942V11.3235C15.4412 11.892 15.9021 12.3529 16.4706 12.3529H18.5294C19.0979 12.3529 19.5588 11.892 19.5588 11.3235V1.02942C19.5588 0.460915 19.0979 0 18.5294 0Z" fill="#6D6AFE"/>
</svg>
