<svg width="40" height="361" viewBox="0 0 40 361" fill="none" xmlns="http://www.w3.org/2000/svg">
<path d="M17.608 15.76V14.432H20.616V26H19.144V15.76H17.608Z" fill="#6D6AFE"/>
<path d="M15.816 172.832C17.1707 171.744 18.232 170.853 19 170.16C19.768 169.456 20.4133 168.725 20.936 167.968C21.4693 167.2 21.736 166.448 21.736 165.712C21.736 165.019 21.5653 164.475 21.224 164.08C20.8933 163.675 20.3547 163.472 19.608 163.472C18.8827 163.472 18.3173 163.701 17.912 164.16C17.5173 164.608 17.304 165.211 17.272 165.968H15.864C15.9067 164.773 16.2693 163.851 16.952 163.2C17.6347 162.549 18.5147 162.224 19.592 162.224C20.6907 162.224 21.56 162.528 22.2 163.136C22.8507 163.744 23.176 164.581 23.176 165.648C23.176 166.533 22.9093 167.397 22.376 168.24C21.8533 169.072 21.256 169.808 20.584 170.448C19.912 171.077 19.0533 171.813 18.008 172.656H23.512V173.872H15.816V172.832Z" fill="#6D6AFE"/>
<path d="M15.96 338.344C16.0347 337.363 16.4133 336.595 17.096 336.04C17.7787 335.485 18.664 335.208 19.752 335.208C20.4773 335.208 21.1013 335.341 21.624 335.608C22.1573 335.864 22.5573 336.216 22.824 336.664C23.1013 337.112 23.24 337.619 23.24 338.184C23.24 338.845 23.048 339.416 22.664 339.896C22.2907 340.376 21.8 340.685 21.192 340.824V340.904C21.8853 341.075 22.4347 341.411 22.84 341.912C23.2453 342.413 23.448 343.069 23.448 343.88C23.448 344.488 23.3093 345.037 23.032 345.528C22.7547 346.008 22.3387 346.387 21.784 346.664C21.2293 346.941 20.5627 347.08 19.784 347.08C18.6533 347.08 17.7253 346.787 17 346.2C16.2747 345.603 15.8693 344.76 15.784 343.672H17.192C17.2667 344.312 17.528 344.835 17.976 345.24C18.424 345.645 19.0213 345.848 19.768 345.848C20.5147 345.848 21.08 345.656 21.464 345.272C21.8587 344.877 22.056 344.371 22.056 343.752C22.056 342.952 21.7893 342.376 21.256 342.024C20.7227 341.672 19.9173 341.496 18.84 341.496H18.472V340.28H18.856C19.8373 340.269 20.5787 340.109 21.08 339.8C21.5813 339.48 21.832 338.989 21.832 338.328C21.832 337.763 21.6453 337.309 21.272 336.968C20.9093 336.627 20.3867 336.456 19.704 336.456C19.0427 336.456 18.5093 336.627 18.104 336.968C17.6987 337.309 17.4587 337.768 17.384 338.344H15.96Z" fill="#6D6AFE"/>
<circle cx="20" cy="20" r="18.5" stroke="#6D6AFE" stroke-width="3"/>
<circle cx="20" cy="168" r="18.5" stroke="#6D6AFE" stroke-width="3"/>
<circle cx="20" cy="341" r="18.5" stroke="#6D6AFE" stroke-width="3"/>
<rect x="19" y="38" width="3" height="111" fill="#6D6AFE"/>
<rect x="19" y="187" width="3" height="135" fill="#6D6AFE"/>
</svg>
