<svg width="72" height="64" viewBox="0 0 72 64" fill="none" xmlns="http://www.w3.org/2000/svg">
<path d="M3.01023 38.5092C5.58519 47.3961 13.0074 65.5245 25.5495 63.8974C38.1288 62.2652 33.2162 45.885 44.7319 43.6399C49.8011 42.6516 53.2372 51.5112 58.3177 51.2356C64.8611 50.8805 68.1916 44.3399 70.0201 38.8412C73.8971 27.1822 68.0911 7.41216 54.5021 3.98824C42.6435 1.00032 41.2564 15.6315 30.9453 11.3818C25.1498 8.99311 25.7288 1.85994 18.6704 0.42062C-2.68323 -3.93373 -0.416135 26.6842 3.01023 38.5092Z" fill="url(#paint0_linear)"/>
<path opacity="0.2" d="M63.0046 10.6666H8.99536C8.00382 10.6666 7.20005 11.4829 7.20005 12.4898V50.6238C7.20005 51.6307 8.00382 52.447 8.99536 52.447H30.1462L29.4617 55.8246C29.1851 57.1901 28.2545 58.2756 27.0434 58.7764C26.4432 59.0247 26.0358 59.5983 26.0358 60.2564V60.2846C26.0358 61.1583 26.7333 61.8666 27.5936 61.8666H44.4065C45.2668 61.8666 45.9643 61.1583 45.9643 60.2846V60.2564C45.9643 59.5983 45.5569 59.0247 44.9568 58.7764C43.7458 58.2756 42.8152 57.1901 42.5384 55.8246L41.8539 52.447H63.0047C63.9963 52.447 64.8001 51.6307 64.8001 50.6238V12.4898C64.7999 11.4829 63.9961 10.6666 63.0046 10.6666Z" fill="#6583FE"/>
<path d="M27.901 58.6667H44.0992C44.928 58.6667 45.6 57.952 45.6 57.0706V57.0421C45.6 56.3782 45.2076 55.7994 44.6294 55.549C43.4626 55.0437 42.5661 53.9485 42.2994 52.5709L41.4148 48H30.5853L29.7007 52.5709C29.4341 53.9485 28.5376 55.0437 27.3707 55.549C26.7925 55.7994 26.4 56.3782 26.4 57.0421V57.0706C26.4002 57.9522 27.0722 58.6667 27.901 58.6667Z" fill="#B7C5FF"/>
<path d="M42.4 52.2667H29.6L30.3536 48H41.6464L42.4 52.2667Z" fill="#9FB0FE"/>
<path d="M63.0047 49.0667H8.99537C8.00382 49.0667 7.20005 48.2748 7.20005 47.2979V10.3021C7.20005 9.3252 8.00382 8.53333 8.99537 8.53333H63.0047C63.9963 8.53333 64.8001 9.3252 64.8001 10.3021V47.2979C64.8001 48.2748 63.9963 49.0667 63.0047 49.0667Z" fill="#8399FE"/>
<path d="M28.5334 13.8667H64.8V41.6H28.5334V13.8667Z" fill="white"/>
<path d="M64.8001 21.3334V41.6H45.6001L55.2008 31.4674L64.8001 21.3334Z" fill="#97FFD2"/>
<path d="M64.8001 41.6H45.6001L55.2008 32L64.8001 41.6Z" fill="#02FFB3"/>
<path d="M64.8 26.6666V28.6952L54.2868 39.2568C54.0069 39.5366 53.5555 39.5366 53.2756 39.2568C52.9971 38.9756 52.9971 38.5223 53.2756 38.2411L64.8 26.6666Z" fill="#FFA8CF"/>
<path d="M13.6001 8.53333H9.06511C8.03504 8.53333 7.20005 9.3252 7.20005 10.3021V47.2979C7.20005 48.2748 8.03504 49.0667 9.06511 49.0667H13.5999V8.53333H13.6001Z" fill="#6583FE"/>
<path d="M64.8001 13.8667V10.3239C64.8001 9.33499 63.9963 8.53333 63.0047 8.53333H8.99537C8.00382 8.53333 7.20005 9.33499 7.20005 10.3239V13.8667H64.8001Z" fill="#2D58E0"/>
<path d="M7.20005 41.6V47.2383C7.20005 48.2481 8.00382 49.0666 8.99537 49.0666H63.0047C63.9963 49.0666 64.8001 48.2481 64.8001 47.2383V41.6H7.20005Z" fill="#D2DEFF"/>
<path d="M65.1635 38.2143C65.552 38.2143 65.8667 37.9006 65.8667 37.5137V9.97856C65.8667 8.59356 64.7358 7.46667 63.3455 7.46667H8.65458C7.26445 7.46667 6.13338 8.59356 6.13338 9.97856V47.8633C6.13338 49.2483 7.26445 50.3752 8.65458 50.3752H29.2097L28.6904 52.8888C28.4641 53.9844 27.7069 54.891 26.6651 55.3138C26.6634 55.3145 26.6617 55.3153 26.6601 55.316C26.6571 55.3173 26.6543 55.3187 26.6515 55.32C25.7736 55.6825 25.2069 56.51 25.2069 57.433V57.4611C25.2069 58.7141 26.23 59.7333 27.4876 59.7333H44.5125C45.77 59.7333 46.7932 58.7141 46.7932 57.4611V57.433C46.7932 56.5103 46.227 55.683 45.3495 55.3205C45.3461 55.3191 45.3429 55.3174 45.3395 55.316C45.3379 55.3153 45.3365 55.3146 45.335 55.3139C44.2932 54.891 43.536 53.9846 43.3097 52.8889L42.7906 50.3754H63.3455C64.7358 50.3754 65.8667 49.2485 65.8667 47.8635V42.2781C65.8667 41.8912 65.552 41.5775 65.1635 41.5775L11.6188 41.5773C11.2305 41.5773 10.9156 41.8911 10.9156 42.278C10.9156 42.6648 11.2305 42.9786 11.6188 42.9786L64.4603 42.9787V47.8635C64.4603 48.4758 63.9601 48.9741 63.3455 48.9741H8.65458C8.03996 48.9741 7.53983 48.4758 7.53983 47.8635V9.97856C7.53983 9.36621 8.03996 8.86793 8.65458 8.86793H63.3454C63.96 8.86793 64.4601 9.36621 64.4601 9.97856V37.5136C64.4603 37.9006 64.775 38.2143 65.1635 38.2143ZM45.3867 57.4611C45.3867 57.9414 44.9946 58.3321 44.5125 58.3321H27.4876C27.0055 58.3321 26.6134 57.9413 26.6134 57.4611V57.433C26.6134 57.1148 26.7975 56.8241 27.0899 56.6633H44.9104C45.2026 56.8239 45.3869 57.1147 45.3869 57.433V57.4611H45.3867ZM41.9321 53.1714C42.0938 53.9543 42.4469 54.6688 42.9459 55.2621H29.0544C29.5534 54.6688 29.9064 53.9543 30.0682 53.1713L30.6456 50.3752H41.3546L41.9321 53.1714Z" fill="#2626BC"/>
<path d="M24.6592 23.4667H17.4742C17.102 23.4667 16.8 23.159 16.8 22.7796V17.7537C16.8 17.3743 17.102 17.0667 17.4742 17.0667H24.6592C25.0315 17.0667 25.3334 17.3743 25.3334 17.7537V22.7796C25.3334 23.1591 25.0315 23.4667 24.6592 23.4667Z" fill="#9FB0FE"/>
<path d="M25.3334 20.2667H16.8V18.0038C16.8 17.4863 17.102 17.0667 17.4742 17.0667H24.6592C25.0315 17.0667 25.3334 17.4863 25.3334 18.0038V20.2667Z" fill="#4369FD"/>
<path d="M24.6592 36.2667H17.4742C17.102 36.2667 16.8 35.9537 16.8 35.5678V24.1656C16.8 23.7796 17.102 23.4667 17.4742 23.4667H24.6592C25.0315 23.4667 25.3334 23.7796 25.3334 24.1656V35.5678C25.3334 35.9537 25.0315 36.2667 24.6592 36.2667Z" fill="#9FB0FE"/>
<path d="M25.3334 26.6667H16.8V24.4038C16.8 23.8863 17.102 23.4667 17.4742 23.4667H24.6592C25.0315 23.4667 25.3334 23.8863 25.3334 24.4038V26.6667Z" fill="#4369FD"/>
<path d="M20 57.6C19.6319 57.6 19.3334 57.3015 19.3334 56.9334C19.3334 56.4922 18.9744 56.1334 18.5334 56.1334C18.1652 56.1334 17.8667 55.8348 17.8667 55.4667C17.8667 55.0986 18.1652 54.8 18.5334 54.8C18.9746 54.8 19.3334 54.4412 19.3334 54C19.3334 53.6319 19.6319 53.3334 20 53.3334C20.3682 53.3334 20.6667 53.6319 20.6667 54C20.6667 54.4412 21.0255 54.8 21.4667 54.8C21.8348 54.8 22.1334 55.0986 22.1334 55.4667C22.1334 55.8348 21.8348 56.1334 21.4667 56.1334C21.0256 56.1334 20.6667 56.4922 20.6667 56.9334C20.6667 57.3016 20.3683 57.6 20 57.6Z" fill="#01ECA5"/>
<path d="M53.0667 60.8C52.6985 60.8 52.4001 60.4268 52.4001 59.9667C52.4001 59.4152 52.0413 58.9667 51.6001 58.9667C51.2318 58.9667 50.9334 58.5935 50.9334 58.1333C50.9334 57.6732 51.2318 57.3 51.6001 57.3C52.0413 57.3 52.4001 56.8515 52.4001 56.3C52.4001 55.8398 52.6985 55.4667 53.0667 55.4667C53.435 55.4667 53.7334 55.8398 53.7334 56.3C53.7334 56.8515 54.0922 57.3 54.5334 57.3C54.9017 57.3 55.2001 57.6732 55.2001 58.1333C55.2001 58.5935 54.9017 58.9667 54.5334 58.9667C54.0922 58.9667 53.7334 59.4152 53.7334 59.9667C53.7334 60.4268 53.435 60.8 53.0667 60.8Z" fill="#FF7EB8"/>
<path d="M19.7335 4.26663C19.5287 4.26663 19.3241 4.21458 19.1677 4.11047C18.8553 3.90214 18.8553 3.56441 19.1677 3.35619L20.7677 2.28947C21.0802 2.08124 21.5866 2.08124 21.899 2.28947C22.2115 2.4978 22.2115 2.83552 21.899 3.04375L20.2991 4.11047C20.1429 4.21458 19.9381 4.26663 19.7335 4.26663Z" fill="#6583FE"/>
<path d="M57.8667 56.5334C57.7303 56.5334 57.5936 56.4553 57.4896 56.2991C57.2813 55.9866 57.2813 55.48 57.4896 55.1677L58.5563 53.5676C58.7644 53.2553 59.1024 53.2553 59.3105 53.5676C59.5188 53.8801 59.5188 54.3867 59.3105 54.699L58.2438 56.2991C58.1398 56.4553 58.0032 56.5334 57.8667 56.5334Z" fill="#6583FE"/>
<path d="M24.2925 35.8397L25.0352 38.0681C25.1494 38.4103 25.5837 38.5128 25.8388 38.2577L27.3244 36.7721C27.5794 36.517 27.4769 36.0827 27.1347 35.9686L24.9064 35.2258C24.5269 35.0994 24.166 35.4604 24.2925 35.8397Z" fill="#2D58E0"/>
<path d="M37.2445 17.0667L32.8 23.3889L46.1333 38.4L59.4667 23.3889L55.0223 17.0667H37.2445Z" fill="#02FFB3"/>
<path d="M32.8 23.4667L46.1333 38.4L59.4667 23.4667H32.8Z" fill="#01ECA5"/>
<path d="M45.6001 23.4667V38.4L59.4667 23.4667H45.6001Z" fill="#02FFB3"/>
<path d="M37.0667 17.0667L32.8 23.4667H41.3334L37.0667 17.0667Z" fill="#97FFD2"/>
<path d="M45.6001 17.0667L41.3334 23.4667H49.8667L45.6001 17.0667Z" fill="#DCFDEE"/>
<path d="M45.6001 38.4L41.3334 23.4667H49.8667L45.6001 38.4Z" fill="#97FFD2"/>
<path d="M54.6668 17.0667L49.8667 23.4667H59.4667L54.6668 17.0667Z" fill="#01ECA5"/>
<path d="M33.8667 36.2667C33.2777 36.2667 32.8 36.0306 32.8 35.7395V35.7273C32.8 35.4362 33.2777 35.2001 33.8667 35.2001C34.4557 35.2001 34.9334 35.4362 34.9334 35.7273V35.7395C34.9334 36.0307 34.4557 36.2667 33.8667 36.2667Z" fill="#02FFB3"/>
<path d="M35.4667 36.2667C35.1722 36.2667 34.9334 36.0306 34.9334 35.7395V35.7273C34.9334 35.4362 35.1722 35.2001 35.4667 35.2001C35.7612 35.2001 36.0001 35.4362 36.0001 35.7273V35.7395C36.0001 36.0307 35.7613 36.2667 35.4667 36.2667Z" fill="#02FFB3"/>
<path d="M42.7697 34.1333H33.497C33.112 34.1333 32.8 33.8945 32.8 33.6C32.8 33.3055 33.112 33.0667 33.497 33.0667H42.7697C43.1547 33.0667 43.4667 33.3055 43.4667 33.6C43.4667 33.8945 43.1547 34.1333 42.7697 34.1333Z" fill="#FFA8CF"/>
<path d="M39.7334 5.3333C39.5969 5.3333 39.4603 5.25522 39.3563 5.09905C39.148 4.78655 39.148 4.27997 39.3563 3.96763L40.423 2.36755C40.6311 2.05522 40.969 2.05522 41.1771 2.36755C41.3855 2.68005 41.3855 3.18663 41.1771 3.49897L40.1104 5.09905C40.0064 5.25522 39.8699 5.3333 39.7334 5.3333Z" fill="#01ECA5"/>
<defs>
<linearGradient id="paint0_linear" x1="10.2287" y1="56.2374" x2="55.629" y2="2.65765" gradientUnits="userSpaceOnUse">
<stop stop-color="#D2DEFF" stop-opacity="0"/>
<stop offset="0.6852" stop-color="#D2DEFF"/>
</linearGradient>
</defs>
</svg>
