<svg width="71" height="70" viewBox="0 0 71 70" fill="none" xmlns="http://www.w3.org/2000/svg">
<path d="M61.9497 5.92588C39.9346 -7.49372 5.66141 4.74516 1.67347 14.4202C-3.66151 27.3633 5.31779 29.5756 6.98583 40.1811C8.32424 48.6908 -0.0321381 56.8402 4.73792 64.3525C9.93236 72.5334 27.1519 70.4791 33.697 66.6077C45.6778 59.521 39.6354 51.2489 45.3087 40.9257C50.7121 31.0933 61.2478 35.081 67.3793 27.2152C73.2068 19.7394 69.3415 10.4317 61.9497 5.92588Z" fill="url(#paint0_linear)"/>
<path opacity="0.2" d="M61.7617 15.495H8.44219C7.4633 15.495 6.6698 16.2885 6.6698 17.2674V54.3391C6.6698 55.318 7.4633 56.1115 8.44219 56.1115H29.3229L28.6472 59.3951C28.3741 60.7225 27.4554 61.7778 26.2597 62.2647C25.6672 62.506 25.2651 63.0637 25.2651 63.7035V63.7309C25.2651 64.5802 25.9537 65.2688 26.803 65.2688H43.4011C44.2504 65.2688 44.939 64.5802 44.939 63.7309V63.7035C44.939 63.0637 44.5368 62.506 43.9444 62.2647C42.7488 61.7778 41.8301 60.7225 41.5569 59.3951L40.8811 56.1115H61.7619C62.7408 56.1115 63.5343 55.318 63.5343 54.3391V17.2674C63.5341 16.2885 62.7406 15.495 61.7617 15.495Z" fill="#6583FE"/>
<path d="M26.803 62.5264H43.4011C44.2504 62.5264 44.939 61.8378 44.939 60.9885V60.961C44.939 60.3213 44.5369 59.7636 43.9444 59.5223C42.7489 59.0354 41.8302 57.9801 41.5569 56.6527L40.6504 52.2483H29.5536L28.6471 56.6527C28.374 57.9801 27.4553 59.0354 26.2597 59.5223C25.6672 59.7636 25.2651 60.3213 25.2651 60.961V60.9885C25.2651 61.8379 25.9535 62.5264 26.803 62.5264Z" fill="#B7C5FF"/>
<path d="M41.3902 55.8379H28.8138L29.5542 52.2482H40.6498L41.3902 55.8379Z" fill="#9FB0FE"/>
<path d="M61.7617 53.3692H8.44219C7.4633 53.3692 6.6698 52.5757 6.6698 51.5968V14.5251C6.6698 13.5462 7.4633 12.7527 8.44219 12.7527H61.7617C62.7406 12.7527 63.5341 13.5462 63.5341 14.5251V51.5968C63.5341 52.5757 62.7406 53.3692 61.7617 53.3692Z" fill="#8399FE"/>
<path d="M63.5348 22.9583V46.1312H28.2462V23.6438C28.2462 23.2653 28.5532 22.9583 28.9317 22.9583H63.5348Z" fill="white"/>
<path d="M43.4095 41.9002H32.9172C32.5385 41.9002 32.2316 41.5932 32.2316 41.2146C32.2316 40.8361 32.5385 40.5291 32.9172 40.5291H43.4095C43.7882 40.5291 44.0951 40.8361 44.0951 41.2146C44.0951 41.5932 43.7882 41.9002 43.4095 41.9002Z" fill="#8399FE"/>
<path d="M55.773 31.2306C55.5097 30.1076 54.99 29.1588 54.2181 28.3854C53.3748 27.5421 52.3217 26.9457 51.0561 26.5933C48.3097 25.8295 45.3767 25.8474 42.5946 26.415C40.2855 26.8853 37.7283 27.7547 36.3255 29.7813C34.5348 32.3687 36.1816 36.3437 39.4614 36.3437C43.5379 36.3437 45.1395 31.0921 41.621 28.9133C42.5781 28.5294 44.4004 27.9987 46.2063 28.565C47.6117 29.0052 48.5757 30.316 48.5798 31.7887V35.9214C48.5798 36.8703 48.1314 37.6176 47.236 38.1619C43.5297 40.4134 38.3371 40.5862 35.4823 44.1691C35.0202 44.7504 34.6842 45.4196 34.4731 46.1312H41.8089C42.2778 44.1677 44.6596 43.1571 45.8909 42.3687C47.2621 41.5254 48.1575 40.7521 48.5798 40.0487V46.1312H56.1679V35.8158C56.1679 33.8838 56.0363 32.3563 55.773 31.2306Z" fill="#FF7EB8"/>
<path d="M12.7518 12.7527H8.44219C7.4633 12.7527 6.6698 13.5462 6.6698 14.5251V51.5968C6.6698 52.5757 7.4633 53.3692 8.44219 53.3692H12.7517V12.7527H12.7518Z" fill="#6583FE"/>
<path d="M63.5341 18.0317V14.5251C63.5341 13.5462 62.7406 12.7527 61.7617 12.7527H8.44219C7.4633 12.7527 6.6698 13.5462 6.6698 14.5251V18.0317H63.5341Z" fill="#2D58E0"/>
<path d="M6.6698 46.131V51.5968C6.6698 52.5757 7.4633 53.3692 8.44219 53.3692H61.7617C62.7406 53.3692 63.5341 52.5757 63.5341 51.5968V46.131H6.6698Z" fill="#D2DEFF"/>
<path d="M63.5337 42.1303C63.9123 42.1303 64.2193 41.8232 64.2193 41.4447V14.5257C64.2193 13.17 63.117 12.0671 61.7621 12.0671H8.44241C7.08686 12.0671 5.98389 13.17 5.98389 14.5257V51.5969C5.98389 52.9526 7.08673 54.0554 8.44241 54.0554H28.4817L27.9756 56.5146C27.7549 57.5867 27.0168 58.4738 26.0011 58.8876C25.9995 58.8883 25.998 58.889 25.9964 58.8896C25.9934 58.8909 25.9904 58.8924 25.9873 58.8938C25.1317 59.2486 24.5794 60.0582 24.5794 60.9612V60.9888C24.5794 62.2147 25.5768 63.2123 26.8029 63.2123H43.4011C44.627 63.2123 45.6246 62.2149 45.6246 60.9888V60.9614C45.6246 60.0582 45.0721 59.2483 44.2162 58.8936C44.2133 58.8924 44.2107 58.891 44.2079 58.8898C44.2062 58.8891 44.2046 58.8883 44.2029 58.8876C43.1872 58.4739 42.449 57.5869 42.2284 56.5148L41.7223 54.0555H61.7621C63.117 54.0555 64.2193 52.9527 64.2193 51.597V46.1312C64.2193 45.7526 63.9123 45.4456 63.5337 45.4456H7.35507V14.5257C7.35507 13.926 7.8428 13.4383 8.44241 13.4383H61.7621C62.3609 13.4383 62.8481 13.9262 62.8481 14.5257V41.4447C62.8481 41.8232 63.1551 42.1303 63.5337 42.1303ZM44.2533 60.9886C44.2533 61.4585 43.8708 61.841 43.4009 61.841H26.8028C26.3329 61.841 25.9505 61.4585 25.9505 60.9886V60.9611C25.9505 60.6495 26.1301 60.365 26.4152 60.2079H43.7887C44.0736 60.365 44.2533 60.6495 44.2533 60.9611V60.9886ZM62.8481 46.8167V51.5969C62.8481 52.1965 62.3609 52.6842 61.7621 52.6842H33.9944C33.6158 52.6842 33.3088 52.9912 33.3088 53.3698C33.3088 53.7484 33.6158 54.0554 33.9944 54.0554H40.3223L40.8854 56.7909C41.043 57.557 41.3871 58.2562 41.8736 58.8367H28.3306C28.8169 58.2562 29.1611 57.557 29.3188 56.7909L29.9945 53.508C30.036 53.3062 29.9846 53.0964 29.8543 52.9367C29.7241 52.7769 29.529 52.6842 29.323 52.6842H8.44241C7.8428 52.6842 7.35507 52.1964 7.35507 51.5969V46.8167H62.8481Z" fill="#2626BC"/>
<path d="M59.2695 27.2254H56.0767C55.6981 27.2254 55.3911 26.9184 55.3911 26.5398V20.8394C55.3911 20.4608 55.6981 20.1538 56.0767 20.1538H59.2695C59.6481 20.1538 59.9551 20.4608 59.9551 20.8394V26.5398C59.9551 26.9185 59.6481 27.2254 59.2695 27.2254Z" fill="#9FB0FE"/>
<path d="M59.9551 22.4948H55.3911V20.8394C55.3911 20.4608 55.6981 20.1538 56.0767 20.1538H59.2695C59.6481 20.1538 59.9551 20.4608 59.9551 20.8394V22.4948Z" fill="#4369FD"/>
<path d="M23.9929 29.0012H16.6866C16.308 29.0012 16.001 28.6941 16.001 28.3156V22.6152C16.001 22.2366 16.308 21.9296 16.6866 21.9296H23.9929C24.3715 21.9296 24.6785 22.2366 24.6785 22.6152V28.3156C24.6785 28.6941 24.3715 29.0012 23.9929 29.0012Z" fill="#9FB0FE"/>
<path d="M24.6785 24.2706H16.001V22.6152C16.001 22.2366 16.308 21.9296 16.6866 21.9296H23.9929C24.3715 21.9296 24.6785 22.2366 24.6785 22.6152V24.2706Z" fill="#4369FD"/>
<path d="M23.9929 40.8718H16.6866C16.308 40.8718 16.001 40.5648 16.001 40.1862V29.6867C16.001 29.3081 16.308 29.0011 16.6866 29.0011H23.9929C24.3715 29.0011 24.6785 29.3081 24.6785 29.6867V40.1862C24.6785 40.5649 24.3715 40.8718 23.9929 40.8718Z" fill="#9FB0FE"/>
<path d="M24.6785 31.3421H16.001V29.6867C16.001 29.3081 16.308 29.0011 16.6866 29.0011H23.9929C24.3715 29.0011 24.6785 29.3081 24.6785 29.6867V31.3421Z" fill="#4369FD"/>
<path d="M55.4159 39.3563L56.1335 41.5089C56.2437 41.8395 56.6633 41.9385 56.9097 41.6921L58.3448 40.257C58.5912 40.0106 58.4922 39.591 58.1616 39.4808L56.009 38.7632C55.6424 38.6412 55.2938 38.9899 55.4159 39.3563Z" fill="#2D58E0"/>
<path d="M60.4561 34.4067H52.7062C52.3274 34.4067 52.0206 34.0997 52.0206 33.7211C52.0206 33.3425 52.3274 33.0355 52.7062 33.0355H60.4561C60.8348 33.0355 61.1417 33.3425 61.1417 33.7211C61.1417 34.0997 60.8348 34.4067 60.4561 34.4067Z" fill="#02FFB3"/>
<path d="M60.4561 32.0863H52.7062C52.3274 32.0863 52.0206 31.7793 52.0206 31.4007C52.0206 31.0221 52.3274 30.7151 52.7062 30.7151H60.4561C60.8348 30.7151 61.1417 31.0221 61.1417 31.4007C61.1417 31.7793 60.8348 32.0863 60.4561 32.0863Z" fill="#02FFB3"/>
<path d="M32.9172 39.4319C32.5386 39.4319 32.2316 39.1249 32.2316 38.7463V38.7305C32.2316 38.3519 32.5386 38.0449 32.9172 38.0449C33.2958 38.0449 33.6028 38.3519 33.6028 38.7305V38.7463C33.6028 39.1249 33.2959 39.4319 32.9172 39.4319Z" fill="#02FFB3"/>
<path d="M34.782 39.4319C34.4034 39.4319 34.0964 39.1249 34.0964 38.7463V38.7305C34.0964 38.3519 34.4034 38.0449 34.782 38.0449C35.1605 38.0449 35.4676 38.3519 35.4676 38.7305V38.7463C35.4676 39.1249 35.1605 39.4319 34.782 39.4319Z" fill="#02FFB3"/>
<path d="M12.9844 61.7163C12.6058 61.7163 12.2988 61.4093 12.2988 61.0307C12.2988 60.577 11.9298 60.208 11.4761 60.208C11.0975 60.208 10.7905 59.901 10.7905 59.5224C10.7905 59.1438 11.0975 58.8368 11.4761 58.8368C11.9298 58.8368 12.2988 58.4678 12.2988 58.0141C12.2988 57.6355 12.6058 57.3285 12.9844 57.3285C13.3629 57.3285 13.6699 57.6355 13.6699 58.0141C13.6699 58.4678 14.0389 58.8368 14.4927 58.8368C14.8712 58.8368 15.1782 59.1438 15.1782 59.5224C15.1782 59.901 14.8712 60.208 14.4927 60.208C14.0389 60.208 13.6699 60.577 13.6699 61.0307C13.6699 61.4093 13.3631 61.7163 12.9844 61.7163Z" fill="#FF7EB8"/>
<path d="M43.9709 8.43343C43.5923 8.43343 43.2853 8.12642 43.2853 7.74784C43.2853 7.29412 42.9163 6.92513 42.4626 6.92513C42.084 6.92513 41.777 6.61812 41.777 6.23954C41.777 5.86096 42.084 5.55395 42.4626 5.55395C42.9163 5.55395 43.2853 5.18497 43.2853 4.73124C43.2853 4.35266 43.5923 4.04565 43.9709 4.04565C44.3494 4.04565 44.6565 4.35266 44.6565 4.73124C44.6565 5.18497 45.0254 5.55395 45.4792 5.55395C45.8577 5.55395 46.1648 5.86096 46.1648 6.23954C46.1648 6.61812 45.8577 6.92513 45.4792 6.92513C45.0254 6.92513 44.6565 7.29412 44.6565 7.74784C44.6565 8.12642 44.3494 8.43343 43.9709 8.43343Z" fill="#FF7EB8"/>
<path d="M55.3912 61.0896C55.0126 61.0896 54.7056 60.7826 54.7056 60.404C54.7056 59.9502 54.3366 59.5813 53.8829 59.5813C53.5043 59.5813 53.1973 59.2743 53.1973 58.8957C53.1973 58.5171 53.5043 58.2101 53.8829 58.2101C54.3366 58.2101 54.7056 57.8411 54.7056 57.3874C54.7056 57.0088 55.0126 56.7018 55.3912 56.7018C55.7697 56.7018 56.0767 57.0088 56.0767 57.3874C56.0767 57.8411 56.4457 58.2101 56.8995 58.2101C57.278 58.2101 57.585 58.5171 57.585 58.8957C57.585 59.2743 57.278 59.5813 56.8995 59.5813C56.4457 59.5813 56.0767 59.9502 56.0767 60.404C56.0767 60.7826 55.7697 61.0896 55.3912 61.0896Z" fill="#FF7EB8"/>
<path d="M35.4676 9.25101C35.2921 9.25101 35.1167 9.1841 34.9828 9.05027C34.715 8.78248 34.715 8.34836 34.9828 8.08071L36.3539 6.70953C36.6217 6.44188 37.0557 6.44188 37.3235 6.70953C37.5913 6.97732 37.5913 7.41144 37.3235 7.67909L35.9523 9.05027C35.8185 9.1841 35.6431 9.25101 35.4676 9.25101Z" fill="#01ECA5"/>
<path d="M20.3396 59.3853C20.1641 59.3853 19.9887 59.3184 19.8548 59.1846C19.587 58.9168 19.587 58.4826 19.8548 58.215L21.226 56.8438C21.4937 56.5762 21.9277 56.5762 22.1955 56.8438C22.4633 57.1116 22.4633 57.5457 22.1955 57.8134L20.8243 59.1846C20.6906 59.3184 20.5151 59.3853 20.3396 59.3853Z" fill="#6583FE"/>
<defs>
<linearGradient id="paint0_linear" x1="8.3948e-05" y1="35" x2="70.2045" y2="35" gradientUnits="userSpaceOnUse">
<stop stop-color="#FFDBED" stop-opacity="0"/>
<stop offset="1" stop-color="#FFDBED"/>
</linearGradient>
</defs>
</svg>
