<svg width="70" height="70" viewBox="0 0 70 70" fill="none" xmlns="http://www.w3.org/2000/svg">
<path d="M57.1923 0.286581C49.5818 -1.01511 32.8158 1.95221 29.8482 14.6443C27.8752 23.0828 27.9332 29.9669 22.9539 30.0961C19.9913 30.1729 18.4463 24.0381 14.3559 23.5335C9.01747 22.8749 5.31269 27.3199 3.00052 31.3453C-2.08606 40.2008 -0.495489 55.2597 6.19343 62.6033C22.3928 80.3884 41.6302 61.7896 49.8553 47.2487C55.1306 37.9228 67.0321 30.3843 69.5108 19.8713C71.5858 11.0699 66.9811 1.96083 57.1923 0.286581Z" fill="url(#paint0_linear)"/>
<path opacity="0.2" d="M61.5822 15.0204H8.4184C7.44237 15.0204 6.65118 15.8116 6.65118 16.7876V53.7512C6.65118 54.7272 7.44237 55.5184 8.4184 55.5184H29.2382L28.5644 58.7923C28.2921 60.1159 27.3761 61.1681 26.1839 61.6536C25.5932 61.8942 25.1922 62.4502 25.1922 63.0881V63.1155C25.1922 63.9623 25.8788 64.6489 26.7256 64.6489H43.2753C44.1221 64.6489 44.8087 63.9623 44.8087 63.1155V63.0881C44.8087 62.4502 44.4077 61.8942 43.8169 61.6536C42.6249 61.1681 41.7089 60.1159 41.4364 58.7923L40.7627 55.5184H61.5825C62.5585 55.5184 63.3497 54.7272 63.3497 53.7512V16.7876C63.3494 15.8116 62.5582 15.0204 61.5822 15.0204Z" fill="#6583FE"/>
<path d="M26.7254 61.9146H43.2751C44.1219 61.9146 44.8085 61.228 44.8085 60.3812V60.3538C44.8085 59.7159 44.4075 59.1599 43.8168 58.9192C42.6247 58.4338 41.7087 57.3816 41.4362 56.058L40.5324 51.6665H29.468L28.5641 56.058C28.2918 57.3816 27.3758 58.4338 26.1837 58.9192C25.593 59.1599 25.192 59.7159 25.192 60.3538V60.3812C25.192 61.2281 25.8786 61.9146 26.7254 61.9146Z" fill="#B7C5FF"/>
<path d="M41.2701 55.2454H28.7304L29.4687 51.6661H40.5318L41.2701 55.2454Z" fill="#9FB0FE"/>
<path d="M61.5822 52.784H8.4184C7.44237 52.784 6.65118 51.9928 6.65118 51.0168V14.0532C6.65118 13.0772 7.44237 12.286 8.4184 12.286H61.5823C62.5583 12.286 63.3495 13.0772 63.3495 14.0532V51.0168C63.3494 51.9928 62.5582 52.784 61.5822 52.784Z" fill="white"/>
<path d="M23.5529 43.6521C19.9759 43.7513 17.8695 42.03 16.6805 40.3974C14.0876 36.8371 14.0006 31.1453 16.4824 27.4397C18.948 23.7584 23.2662 21.1253 28.6417 20.0256C33.6645 18.9979 39.2727 19.3799 44.0283 21.0731C49.2819 22.9437 53.7008 26.2182 56.807 30.5427C59.7977 34.7062 61.3784 39.5303 61.3784 44.4937C61.3784 45.0213 61.8196 45.4491 62.3639 45.4491C62.9082 45.4491 63.3494 45.0213 63.3494 44.4937C63.3494 39.1379 61.6463 33.9362 58.4244 29.4508C55.0859 24.8029 50.3426 21.2859 44.7078 19.2795C39.6139 17.4658 33.6096 17.0562 28.2347 18.156C22.3429 19.3614 17.582 22.2888 14.8293 26.3991C13.4309 28.4872 12.6805 31.177 12.7165 33.9733C12.7527 36.7922 13.5886 39.4652 15.0704 41.4997C16.2739 43.1522 18.797 45.5675 23.262 45.5672C24.2635 45.5672 25.3639 45.4455 26.5678 45.1665C29.2313 44.5491 31.8169 42.6837 33.0015 40.5248C33.8156 39.0408 33.9527 37.4972 33.3977 36.0607C32.5761 33.9342 30.0267 32.6697 27.47 33.1188C26.6407 33.2644 25.7866 33.6186 25.0882 34.2215V37.8582H25.5238C25.5238 37.12 25.7478 35.3633 27.8214 34.9991C28.0591 34.9573 28.2917 34.9377 28.5178 34.9377C29.9972 34.9377 31.1838 35.7777 31.5521 36.731C31.9081 37.6526 31.8104 38.627 31.2614 39.6274C30.3412 41.3047 28.2226 42.8182 26.1095 43.3079C25.9107 43.354 25.7158 43.3952 25.5238 43.4315L23.5529 43.6521Z" fill="#FFC4DF"/>
<path d="M32.7465 16.063C32.2022 16.063 31.761 16.4908 31.761 17.0184V31.1222H12.7153C12.171 31.1222 11.7298 31.55 11.7298 32.0776C11.7298 32.6051 12.171 33.0329 12.7153 33.0329H23.6129V45.0742C23.6129 45.6185 24.0407 46.0597 24.5683 46.0597C25.0959 46.0597 25.5237 45.6185 25.5237 45.0742V33.0329H31.7609V46.0597C31.7609 46.5873 32.202 47.0151 32.7463 47.0151C33.2906 47.0151 33.7318 46.5873 33.7318 46.0597V17.0184C33.7319 16.4908 33.2907 16.063 32.7465 16.063Z" fill="#FF7EB8"/>
<path d="M12.7153 12.286H8.4184C7.44237 12.286 6.65118 13.0772 6.65118 14.0532V51.0168C6.65118 51.9928 7.44237 52.784 8.4184 52.784H12.7153V12.286Z" fill="#6583FE"/>
<path d="M63.3494 17.5496V14.0532C63.3494 13.0772 62.5582 12.286 61.5822 12.286H8.4184C7.44237 12.286 6.65118 13.0772 6.65118 14.0532V17.5496H63.3494Z" fill="#2D58E0"/>
<path d="M6.65118 45.5671V51.017C6.65118 51.993 7.44237 52.7842 8.4184 52.7842H61.5823C62.5583 52.7842 63.3495 51.993 63.3495 51.017V45.5671H6.65118Z" fill="#D2DEFF"/>
<path d="M61.5823 11.6025H8.41824C7.06678 11.6025 5.96744 12.702 5.96744 14.0533V40.9186C5.96744 41.2961 6.27341 41.6022 6.65103 41.6022C7.02864 41.6022 7.33461 41.2961 7.33461 40.9186V14.0532C7.33461 13.4557 7.82078 12.9696 8.41824 12.9696H61.5823C62.1797 12.9696 62.6659 13.4557 62.6659 14.0532V44.8833H6.65116C6.27355 44.8833 5.96757 45.1894 5.96757 45.5669V51.0166C5.96757 52.3681 7.06692 53.4674 8.41838 53.4674H28.3995L27.8948 55.9199C27.6749 56.9889 26.9388 57.8733 25.9262 58.2859C25.9245 58.2866 25.9229 58.2874 25.9213 58.2881C25.9184 58.2893 25.9155 58.2907 25.9126 58.2919C25.0592 58.6456 24.5085 59.4529 24.5085 60.3535V60.3808C24.5085 61.6034 25.503 62.5978 26.7256 62.5978H35.3648C35.7424 62.5978 36.0483 62.2917 36.0483 61.9143C36.0483 61.5368 35.7424 61.2307 35.3648 61.2307H26.7256C26.2569 61.2307 25.8757 60.8494 25.8757 60.3808V60.3535C25.8757 60.0429 26.0547 59.7592 26.3389 59.6025H43.6617C43.9458 59.7592 44.1249 60.0429 44.1249 60.3535V60.3808C44.1249 60.8495 43.7438 61.2307 43.2752 61.2307H40.0134C39.6358 61.2307 39.3298 61.5368 39.3298 61.9143C39.3298 62.2917 39.6358 62.5978 40.0134 62.5978H43.2752C44.4975 62.5978 45.4921 61.6034 45.4921 60.3808V60.3535C45.4921 59.4529 44.9414 58.6455 44.0882 58.2919C44.0853 58.2907 44.0824 58.2892 44.0796 58.288C44.0779 58.2873 44.0764 58.2864 44.0749 58.2859C43.0621 57.8733 42.326 56.9889 42.1062 55.9199L41.6014 53.4674H61.5823C62.9337 53.4674 64.0331 52.3679 64.0331 51.0166V14.0532C64.033 12.7019 62.9336 11.6025 61.5823 11.6025ZM40.7667 56.1956C40.924 56.9595 41.2671 57.6566 41.7521 58.2356H28.2485C28.7335 57.6567 29.0766 56.9595 29.2338 56.1956L29.7953 53.4676H40.2051L40.7667 56.1956ZM62.6658 51.0169C62.6658 51.6143 62.1796 52.1005 61.5822 52.1005H8.41824C7.82078 52.1005 7.33461 51.6143 7.33461 51.0169V46.2508H62.6658V51.0169Z" fill="#2626BC"/>
<path d="M18.8294 61.2435C18.4518 61.2435 18.1458 60.9374 18.1458 60.5599C18.1458 60.1075 17.7778 59.7396 17.3254 59.7396C16.9478 59.7396 16.6418 59.4335 16.6418 59.056C16.6418 58.6785 16.9478 58.3724 17.3254 58.3724C17.7778 58.3724 18.1458 58.0045 18.1458 57.5521C18.1458 57.1746 18.4518 56.8685 18.8294 56.8685C19.207 56.8685 19.513 57.1746 19.513 57.5521C19.513 58.0045 19.8809 58.3724 20.3332 58.3724C20.7108 58.3724 21.0168 58.6785 21.0168 59.056C21.0168 59.4335 20.7108 59.7396 20.3332 59.7396C19.8809 59.7396 19.513 60.1075 19.513 60.5599C19.513 60.9375 19.2069 61.2435 18.8294 61.2435Z" fill="#01ECA5"/>
<path d="M11.187 64.1023C10.8094 64.1023 10.5034 63.7962 10.5034 63.4187C10.5034 62.9663 10.1355 62.5984 9.68313 62.5984C9.30552 62.5984 8.99954 62.2923 8.99954 61.9148C8.99954 61.5373 9.30552 61.2312 9.68313 61.2312C10.1355 61.2312 10.5034 60.8633 10.5034 60.4109C10.5034 60.0334 10.8094 59.7273 11.187 59.7273C11.5646 59.7273 11.8706 60.0334 11.8706 60.4109C11.8706 60.8633 12.2385 61.2312 12.6909 61.2312C13.0685 61.2312 13.3745 61.5373 13.3745 61.9148C13.3745 62.2923 13.0685 62.5984 12.6909 62.5984C12.2385 62.5984 11.8706 62.9663 11.8706 63.4187C11.8706 63.7962 11.5646 64.1023 11.187 64.1023Z" fill="#6583FE"/>
<path d="M27.1618 8.79476C26.987 8.79476 26.8118 8.72805 26.6785 8.59461C26.4115 8.3276 26.4115 7.89475 26.6785 7.62788L28.0457 6.2607C28.3124 5.99383 28.7456 5.99383 29.0123 6.2607C29.2793 6.52771 29.2793 6.96056 29.0123 7.22743L27.6451 8.59461C27.5118 8.72805 27.3367 8.79476 27.1618 8.79476Z" fill="#6583FE"/>
<path d="M52.2385 61.2701C52.0636 61.2701 51.8885 61.2034 51.7552 61.07C51.4881 60.8029 51.4881 60.3701 51.7552 60.1032L53.1223 58.736C53.3891 58.4692 53.8222 58.4692 54.0889 58.736C54.3559 59.0031 54.3559 59.4359 54.0889 59.7028L52.7218 61.07C52.5885 61.2034 52.4133 61.2701 52.2385 61.2701Z" fill="#6583FE"/>
<path d="M52.9221 27.6291H45.637C45.2596 27.6291 44.9535 27.323 44.9535 26.9455V21.9453C44.9535 21.5678 45.2596 21.2617 45.637 21.2617H52.9221C53.2995 21.2617 53.6056 21.5678 53.6056 21.9453V26.9455C53.6056 27.323 53.2995 27.6291 52.9221 27.6291Z" fill="#9FB0FE"/>
<path d="M53.6056 23.5959H44.9535V21.9453C44.9535 21.5678 45.2596 21.2617 45.637 21.2617H52.9221C53.2995 21.2617 53.6056 21.5678 53.6056 21.9453V23.5959Z" fill="#4369FD"/>
<path d="M52.9221 40.1487H45.637C45.2596 40.1487 44.9535 39.8426 44.9535 39.4651V28.3126C44.9535 27.9351 45.2596 27.629 45.637 27.629H52.9221C53.2995 27.629 53.6056 27.9351 53.6056 28.3126V39.4651C53.6056 39.8427 53.2995 40.1487 52.9221 40.1487Z" fill="#9FB0FE"/>
<path d="M53.6056 29.9632H44.9535V28.3126C44.9535 27.9351 45.2596 27.629 45.637 27.629H52.9221C53.2995 27.629 53.6056 27.9351 53.6056 28.3126V29.9632Z" fill="#4369FD"/>
<path d="M36.5161 33.6163L37.2315 35.7626C37.3414 36.0923 37.7598 36.191 38.0055 35.9453L39.4364 34.5144C39.682 34.2687 39.5833 33.8504 39.2537 33.7404L37.1074 33.025C36.7419 32.9033 36.3943 33.251 36.5161 33.6163Z" fill="#2D58E0"/>
<path d="M18.658 29.8153C18.2805 29.8153 17.9744 29.5092 17.9744 29.1317V29.116C17.9744 28.7385 18.2805 28.4324 18.658 28.4324C19.0355 28.4324 19.3416 28.7385 19.3416 29.116V29.1317C19.3416 29.5092 19.0355 29.8153 18.658 29.8153Z" fill="#02FFB3"/>
<path d="M20.654 29.8153C20.2766 29.8153 19.9705 29.5092 19.9705 29.1317V29.116C19.9705 28.7385 20.2766 28.4324 20.654 28.4324C21.0315 28.4324 21.3376 28.7385 21.3376 29.116V29.1317C21.3376 29.5092 21.0315 29.8153 20.654 29.8153Z" fill="#02FFB3"/>
<path d="M35.1371 22.1144C35.1371 21.7369 35.4432 21.4308 35.8207 21.4308H35.8364C36.2139 21.4308 36.52 21.7369 36.52 22.1144C36.52 22.4919 36.2139 22.798 35.8364 22.798H35.8207C35.4432 22.798 35.1371 22.4919 35.1371 22.1144Z" fill="#02FFB3"/>
<path d="M35.1371 24.1103C35.1371 23.7329 35.4432 23.4268 35.8207 23.4268H35.8364C36.2139 23.4268 36.52 23.7329 36.52 24.1103C36.52 24.4878 36.2139 24.7939 35.8364 24.7939H35.8207C35.4432 24.7939 35.1371 24.4878 35.1371 24.1103Z" fill="#02FFB3"/>
<path d="M36.52 8.93149C36.1424 8.93149 35.8364 8.62537 35.8364 8.2479C35.8364 7.7955 35.4685 7.42759 35.0161 7.42759C34.6385 7.42759 34.3326 7.12148 34.3326 6.744C34.3326 6.36652 34.6385 6.06041 35.0161 6.06041C35.4685 6.06041 35.8364 5.69237 35.8364 5.24011C35.8364 4.86263 36.1424 4.55652 36.52 4.55652C36.8976 4.55652 37.2036 4.86263 37.2036 5.24011C37.2036 5.69251 37.5715 6.06041 38.0239 6.06041C38.4015 6.06041 38.7075 6.36652 38.7075 6.744C38.7075 7.12148 38.4015 7.42759 38.0239 7.42759C37.5715 7.42759 37.2036 7.7955 37.2036 8.2479C37.2036 8.62537 36.8976 8.93149 36.52 8.93149Z" fill="#FF7EB8"/>
<defs>
<linearGradient id="paint0_linear" x1="1.19721" y1="54.7906" x2="71.6682" y2="14.1041" gradientUnits="userSpaceOnUse">
<stop stop-color="#DCFDEE" stop-opacity="0"/>
<stop offset="0.6288" stop-color="#D2F3E4"/>
</linearGradient>
</defs>
</svg>
