<svg width="312" height="347" viewBox="0 0 312 347" fill="none" xmlns="http://www.w3.org/2000/svg">
<path d="M12.4147 0H264.701C271.579 0 277.121 7.88321 276.996 17.4927L273.447 290.954C273.28 303.825 265.704 314.09 250.198 313.928L5.84904 309.644C5.40864 309.526 -0.00478853 301.863 -2.73789e-05 292.453L0.117811 17.1715C0.121382 7.68572 5.62646 0 12.4147 0Z" fill="url(#paint0_linear)"/>
<path opacity="0.6" d="M17.9781 7.40491H260.231C266.836 7.40491 272.158 14.8955 272.038 24.0256L268.63 283.853C268.469 296.081 261.195 305.834 252.349 305.681L17.7186 301.611C11.253 301.499 6.05499 294.218 6.05856 285.277L6.17163 23.7186C6.17401 14.7087 11.4601 7.40491 17.9781 7.40491Z" fill="white"/>
<path d="M271.671 46.3298H6.05737V9.67392C6.05737 7.97141 7.4381 6.59131 9.1414 6.59131H268.761C270.368 6.59131 271.671 7.89407 271.671 9.50022V46.3298Z" fill="url(#paint1_linear)"/>
<path opacity="0.61" d="M242.081 29.389L104.281 28.0827C101.033 28.0518 98.4188 25.9079 98.4188 23.2726L98.4176 18.6802C98.4176 16.6469 100.449 14.9991 102.955 14.9991H243.068C245.539 14.9991 247.489 16.7017 247.308 18.7004L246.646 25.9888C246.471 27.9221 244.471 29.4116 242.081 29.389Z" fill="white"/>
<path opacity="0.6" d="M259.465 70.0769H18.2495C16.6485 70.0769 15.3523 68.7849 15.3523 67.1918V59.474C15.3523 57.8702 16.6652 56.5746 18.2757 56.5889L259.491 58.7125C261.081 58.7268 262.363 60.0141 262.363 61.5977V67.1918C262.363 68.7861 261.066 70.0769 259.465 70.0769Z" fill="white"/>
<path d="M75.8963 28.204C72.0028 28.204 68.8355 25.0381 68.8355 21.1453C68.8355 17.2537 72.0028 14.0878 75.8963 14.0878C79.7897 14.0878 82.957 17.2537 82.957 21.1453C82.957 25.0381 79.7897 28.204 75.8963 28.204ZM75.8963 14.8932C72.4468 14.8932 69.6401 17.6986 69.6401 21.1465C69.6401 24.5944 72.4468 27.3998 75.8963 27.3998C79.3457 27.3998 82.1524 24.5944 82.1524 21.1465C82.1524 17.6986 79.3457 14.8932 75.8963 14.8932Z" fill="white"/>
<path d="M52.8499 28.743C48.9565 28.743 45.7891 25.5771 45.7891 21.6842C45.7891 17.7926 48.9565 14.6267 52.8499 14.6267C56.7433 14.6267 59.9107 17.7926 59.9107 21.6842C59.9107 25.5771 56.7433 28.743 52.8499 28.743ZM52.8499 15.4322C49.4005 15.4322 46.5938 18.2376 46.5938 21.6854C46.5938 25.1333 49.4005 27.9387 52.8499 27.9387C56.2994 27.9387 59.1061 25.1333 59.1061 21.6854C59.1061 18.2376 56.2994 15.4322 52.8499 15.4322Z" fill="white"/>
<path d="M30.7046 28.743C26.8112 28.743 23.6439 25.5771 23.6439 21.6842C23.6439 17.7926 26.8112 14.6267 30.7046 14.6267C34.5981 14.6267 37.7654 17.7926 37.7654 21.6842C37.7666 25.5771 34.5981 28.743 30.7046 28.743ZM30.7046 15.4322C27.2552 15.4322 24.4485 18.2376 24.4485 21.6854C24.4485 25.1333 27.2552 27.9387 30.7046 27.9387C34.1541 27.9387 36.9608 25.1333 36.9608 21.6854C36.9608 18.2376 34.1541 15.4322 30.7046 15.4322Z" fill="white"/>
<path opacity="0.6" d="M164.113 93.3472L118.999 92.9724C117.586 92.9605 116.449 91.8064 116.461 90.393L116.472 89.1355C116.484 87.7554 117.587 86.6335 118.968 86.599L164.094 85.483C165.54 85.4473 166.728 86.6156 166.716 88.0611L166.694 90.8094C166.682 92.2229 165.526 93.359 164.113 93.3472Z" fill="white"/>
<path opacity="0.6" d="M173.835 175.286L107.415 174.734C105.17 174.714 103.367 172.881 103.385 170.637L103.938 104.144C103.956 101.942 105.727 100.155 107.932 100.117L173.521 101.36C176.299 101.412 178.517 103.691 178.493 106.467L177.935 171.256C177.915 173.501 176.08 175.305 173.835 175.286Z" fill="white"/>
<path opacity="0.6" d="M80.1861 93.3472L35.0718 92.9724C33.6589 92.9605 32.5222 91.8064 32.5341 90.393L32.5448 89.1355C32.5567 87.7554 33.6601 86.6335 35.0408 86.599L80.167 85.483C81.6132 85.4473 82.8011 86.6156 82.7892 88.0611L82.7666 90.8094C82.7547 92.2229 81.5989 93.359 80.1861 93.3472Z" fill="white"/>
<path opacity="0.6" d="M89.9095 175.286L23.4891 174.734C21.2442 174.714 19.4409 172.881 19.4588 170.637L20.0123 104.144C20.0301 101.942 21.8013 100.155 24.0057 100.117L89.5953 101.36C92.3734 101.412 94.5909 103.691 94.5671 106.467L94.0089 171.256C93.9874 173.501 92.1532 175.305 89.9095 175.286Z" fill="white"/>
<path opacity="0.6" d="M248.288 94.9199L203.174 94.5452C201.761 94.5333 200.624 93.3792 200.636 91.9658L200.647 90.7082C200.659 89.3281 201.762 88.2062 203.143 88.1717L248.269 87.0557C249.715 87.02 250.903 88.1884 250.891 89.6339L250.868 92.3822C250.858 93.7956 249.702 94.9318 248.288 94.9199Z" fill="white"/>
<path opacity="0.6" d="M258.011 176.858L191.591 176.306C189.346 176.287 187.543 174.454 187.561 172.21L188.114 105.717C188.132 103.515 189.903 101.728 192.107 101.689L257.697 102.933C260.475 102.985 262.693 105.263 262.669 108.04L262.111 172.829C262.09 175.074 260.256 176.877 258.011 176.858Z" fill="white"/>
<path opacity="0.6" d="M260.448 198.743H23.3867C22.7964 198.743 22.3167 198.264 22.3167 197.673V188.073C22.3167 187.483 22.7952 187.003 23.3867 187.003H260.448C261.038 187.003 261.518 187.482 261.518 188.073V197.673C261.518 198.264 261.038 198.743 260.448 198.743Z" fill="white"/>
<path opacity="0.6" d="M260.969 217.27H23.9081C23.3177 217.27 22.838 216.792 22.838 216.201V206.601C22.838 206.011 23.3165 205.531 23.9081 205.531H260.969C261.56 205.531 262.039 206.01 262.039 206.601V216.201C262.039 216.791 261.561 217.27 260.969 217.27Z" fill="white"/>
<path opacity="0.6" d="M259.209 238.117H22.1477C21.5573 238.117 21.0776 237.639 21.0776 237.047V227.447C21.0776 226.857 21.5561 226.378 22.1477 226.378H259.209C259.799 226.378 260.279 226.856 260.279 227.447V237.047C260.279 237.639 259.799 238.117 259.209 238.117Z" fill="white"/>
<path opacity="0.6" d="M259.73 256.644H22.669C22.0786 256.644 21.5989 256.165 21.5989 255.574V245.974C21.5989 245.384 22.0774 244.904 22.669 244.904H259.73C260.321 244.904 260.8 245.383 260.8 245.974V255.574C260.8 256.165 260.322 256.644 259.73 256.644Z" fill="white"/>
<path opacity="0.6" d="M259.209 276.198H22.1477C21.5573 276.198 21.0776 275.72 21.0776 275.129V265.529C21.0776 264.939 21.5561 264.459 22.1477 264.459H259.209C259.799 264.459 260.279 264.937 260.279 265.529V275.129C260.279 275.72 259.799 276.198 259.209 276.198Z" fill="white"/>
<path d="M226.03 147.536H107.696C102.469 147.536 98.232 143.301 98.232 138.076V86.5845C98.232 81.2413 102.656 76.9583 107.998 77.1296L226.332 80.913C231.438 81.076 235.494 85.2615 235.494 90.3678V138.078C235.494 143.302 231.256 147.536 226.03 147.536Z" fill="url(#paint2_linear)"/>
<path d="M185.385 147.147L201.11 166.139L207.185 147.147H185.385Z" fill="url(#paint3_linear)"/>
<path d="M152.35 127.966L125.886 114.266V109.922L152.35 96.1345V103.228L134.277 112.035L152.35 120.903V127.966Z" fill="white"/>
<path d="M178.245 92.1502L164.673 134.072L157.621 134.01L171.397 91.7802L178.245 92.1502Z" fill="white"/>
<path d="M183.139 121.59L199.459 114.059L183.139 104.485V97.6206L206.645 112.583V116.57L183.139 128.428V121.59Z" fill="white"/>
<path d="M226.701 169.489C226.554 169.767 222.084 172.907 222.084 172.907C222.084 172.907 218.977 189.958 224.675 198.354C230.372 206.75 249.784 191.802 249.784 191.802C249.784 191.802 260.703 190.1 266.187 168.697C267.446 163.787 259.576 167.517 250.809 168.423C239.507 169.588 226.701 169.489 226.701 169.489Z" fill="#0D1143"/>
<path d="M207.322 222.942C211.04 220.393 215.153 218.47 219.512 217.288C221.149 216.843 229.99 219.405 235.455 219.28C242.956 219.108 250.593 215.705 256.777 217.24C262.919 218.767 267.946 220.759 270.85 222.818C279.538 228.978 284.639 240.466 287.749 251.844C281.863 257.868 274.454 260.546 274.454 260.546L273.086 315.854L240.279 332.587L202.834 313.846L204.175 259.797C204.175 259.797 192.284 254.277 191.412 252.268C190.539 250.261 196.83 230.132 207.322 222.942Z" fill="#6D6AFE"/>
<path d="M191.965 252.027C191.965 252.027 176.03 296.065 212.366 314.165C219.91 313.165 217.009 300.675 217.009 300.675C217.009 300.675 201.221 297.192 205.962 260.456C201.597 256.875 191.965 252.027 191.965 252.027Z" fill="#FDCAB6"/>
<path d="M286.982 252.027C286.982 252.027 297.945 297.997 266.58 314.165C259.036 313.165 261.937 300.675 261.937 300.675C261.937 300.675 274.661 294.428 272.984 260.456C277.349 256.875 286.982 252.027 286.982 252.027Z" fill="#FDCAB6"/>
<path d="M273.689 317.258H203.054C202.694 317.258 202.401 316.965 202.401 316.606V269.475C202.401 269.117 202.694 268.824 203.054 268.824H273.689C274.048 268.824 274.342 269.117 274.342 269.475V316.606C274.342 316.965 274.048 317.258 273.689 317.258Z" fill="url(#paint4_linear)"/>
<path d="M242.615 281.941C242.996 284.51 241.615 286.843 239.037 287.223C236.46 287.603 234.06 285.828 233.679 283.258C233.297 280.689 234.477 278.137 237.054 277.757C239.633 277.377 242.233 279.371 242.615 281.941Z" fill="url(#paint5_linear)"/>
<path d="M305.897 331.617C297.663 329.733 278.636 330.745 278.636 330.745L277.862 332.835L276.581 343.221C276.581 343.221 294.702 346.476 303.635 346.469C304.547 346.467 305.379 346.332 306.141 346.095C306.414 345.851 306.679 345.598 306.931 345.325C310.72 341.199 309.624 335.138 305.897 331.617Z" fill="url(#paint6_linear)"/>
<path d="M306.713 331.822C306.456 331.75 306.181 331.681 305.897 331.615C309.626 335.137 310.72 341.198 306.93 345.323C306.678 345.598 306.413 345.851 306.14 346.093C312.841 344.016 313.634 333.763 306.713 331.822Z" fill="url(#paint7_linear)"/>
<path d="M273.167 330.16L276.389 330.297C278.121 330.37 279.752 331.211 280.916 332.63C282.08 334.05 282.679 335.926 282.576 337.838C282.495 339.362 281.868 340.788 280.833 341.8C279.798 342.812 278.442 343.325 277.063 343.227L272.133 342.878L273.167 330.16Z" fill="#FFD0D0"/>
<path d="M164.821 330.618C173.098 328.987 192.094 330.58 192.094 330.58L192.816 332.692L193.837 343.113C193.837 343.113 175.641 345.814 166.712 345.531C165.801 345.503 164.971 345.34 164.216 345.081C163.949 344.83 163.689 344.568 163.445 344.287C159.76 340.049 161.007 334.023 164.821 330.618Z" fill="url(#paint8_linear)"/>
<path d="M164.001 330.798C164.261 330.734 164.535 330.674 164.822 330.618C161.007 334.024 159.761 340.049 163.446 344.29C163.691 344.571 163.951 344.832 164.217 345.084C157.571 342.8 157.034 332.527 164.001 330.798Z" fill="url(#paint9_linear)"/>
<path d="M197.575 330.163L194.351 330.201C192.619 330.222 190.966 331.012 189.767 332.396C188.568 333.778 187.923 335.636 187.977 337.55C188.02 339.077 188.612 340.521 189.621 341.564C190.63 342.607 191.974 343.162 193.354 343.106L198.29 342.908L197.575 330.163Z" fill="#FFD0D0"/>
<path d="M308.199 299.058C304.465 290.492 295.333 289.1 287.561 293.106C287.425 293.283 238.202 318.432 194.793 329.455C196.036 333.426 196.675 337.652 196.815 341.806C196.839 342.732 196.824 343.645 196.769 344.545C230.058 342.84 266.186 331.773 297.231 322.048C306.858 318.953 312.338 308.552 308.199 299.058Z" fill="#F1D7D7"/>
<path d="M273.404 342.457C273.273 337.67 274.207 333.213 276.205 329.086C276.262 328.896 276.331 328.716 276.392 328.529C273.912 327.763 270.71 326.726 266.504 325.304C235.68 314.789 212.163 304.17 189.721 291.946C181.002 287.197 171.089 290.379 168.298 300.664C165.805 309.845 171.46 317.187 179.582 320.438C207.5 331.618 248.51 341.829 273.458 343.5C273.436 343.152 273.416 342.804 273.404 342.457Z" fill="#F1D7D7"/>
<path d="M219.512 217.288C219.512 217.288 222.826 231.609 238.922 231.312C255.315 231.015 256.777 217.241 256.777 217.241L246.068 214.957L245.173 203.061L229.064 204.251L228.765 215.551L219.512 217.288Z" fill="#FFC0A2"/>
<path d="M230.611 168.002C230.611 168.002 213.459 201.124 233.806 209.159C248.157 214.827 257.154 187.164 254.471 179.672C250.322 168.087 247.588 169.462 247.588 169.462L230.611 168.002Z" fill="url(#paint10_linear)"/>
<path d="M254.471 179.672C254.423 179.536 254.38 179.416 254.343 179.304C254.409 179.915 254.444 180.551 254.45 181.207C254.476 180.741 254.498 180.274 254.513 179.806C254.499 179.762 254.486 179.714 254.471 179.672Z" fill="white"/>
<path d="M254.343 179.304C254.318 179.077 254.291 178.853 254.259 178.634C255.141 180.1 253.444 176.684 254.343 179.304Z" fill="white"/>
<path d="M262.412 159.11C271.602 157.025 265.224 185.367 251.541 180.72C237.859 176.073 231.484 173.22 229.353 176.966C227.22 180.711 223.667 196.031 222.486 188.087C221.383 180.663 220.315 167.057 227.504 164.087C231.586 162.4 235.175 166.054 237.99 165.14C242.322 163.732 246.493 163.684 249.067 165.163C253.935 167.962 256.571 160.435 262.412 159.11Z" fill="url(#paint11_linear)"/>
<path d="M227.821 182.476C227.821 182.476 224.854 178.01 223.503 182.581C222.151 187.151 223.009 193.466 225.729 190.531C228.447 187.594 227.821 182.476 227.821 182.476Z" fill="#FDCFBA"/>
<defs>
<linearGradient id="paint0_linear" x1="3.86697" y1="307.17" x2="487.818" y2="-248.015" gradientUnits="userSpaceOnUse">
<stop stop-color="#53D8FF"/>
<stop offset="1" stop-color="#3840F7"/>
</linearGradient>
<linearGradient id="paint1_linear" x1="188.079" y1="-122.945" x2="110.713" y2="114.173" gradientUnits="userSpaceOnUse">
<stop stop-color="#53D8FF"/>
<stop offset="1" stop-color="#3840F7"/>
</linearGradient>
<linearGradient id="paint2_linear" x1="148.126" y1="50.2176" x2="203.043" y2="237.988" gradientUnits="userSpaceOnUse">
<stop stop-color="#2B3582"/>
<stop offset="1" stop-color="#150E42"/>
</linearGradient>
<linearGradient id="paint3_linear" x1="166.35" y1="44.888" x2="221.267" y2="232.658" gradientUnits="userSpaceOnUse">
<stop stop-color="#2B3582"/>
<stop offset="1" stop-color="#150E42"/>
</linearGradient>
<linearGradient id="paint4_linear" x1="239.201" y1="259.542" x2="235.976" y2="390.561" gradientUnits="userSpaceOnUse">
<stop stop-color="#2B3582"/>
<stop offset="1" stop-color="#150E42"/>
</linearGradient>
<linearGradient id="paint5_linear" x1="245.705" y1="232.355" x2="223.257" y2="382.216" gradientUnits="userSpaceOnUse">
<stop stop-color="#53D8FF"/>
<stop offset="1" stop-color="#3840F7"/>
</linearGradient>
<linearGradient id="paint6_linear" x1="276.617" y1="338.314" x2="310.685" y2="338.578" gradientUnits="userSpaceOnUse">
<stop stop-color="#2B3582"/>
<stop offset="1" stop-color="#150E42"/>
</linearGradient>
<linearGradient id="paint7_linear" x1="359.648" y1="293.689" x2="280.242" y2="361.567" gradientUnits="userSpaceOnUse">
<stop stop-color="#53D8FF"/>
<stop offset="1" stop-color="#3840F7"/>
</linearGradient>
<linearGradient id="paint8_linear" x1="193.937" y1="338.147" x2="159.862" y2="337.463" gradientUnits="userSpaceOnUse">
<stop stop-color="#2B3582"/>
<stop offset="1" stop-color="#150E42"/>
</linearGradient>
<linearGradient id="paint9_linear" x1="115.515" y1="222.702" x2="180.245" y2="380.199" gradientUnits="userSpaceOnUse">
<stop stop-color="#53D8FF"/>
<stop offset="1" stop-color="#3840F7"/>
</linearGradient>
<linearGradient id="paint10_linear" x1="235.09" y1="208.22" x2="246.773" y2="151.176" gradientUnits="userSpaceOnUse">
<stop stop-color="#FCE3CC"/>
<stop offset="1" stop-color="#FFAE9D"/>
</linearGradient>
<linearGradient id="paint11_linear" x1="250.064" y1="161.037" x2="222.015" y2="206.549" gradientUnits="userSpaceOnUse">
<stop stop-color="#0E1443"/>
<stop offset="1" stop-color="#150E42"/>
</linearGradient>
</defs>
</svg>
